G04 #@! TF.FileFunction,Copper,L2,Bot,Mixed*
%FSLAX46Y46*%
G04 Gerber Fmt 4.6, Leading zero omitted, Abs format (unit mm)*
G04 Created by KiCad (PCBNEW 4.0.5) date 06/13/17 16:15:45*
%MOMM*%
%LPD*%
G01*
G04 APERTURE LIST*
%ADD10C,0.100000*%
%ADD11C,0.300000*%
%ADD12R,2.200000X2.200000*%
%ADD13O,2.200000X2.200000*%
%ADD14C,2.340000*%
%ADD15R,2.286000X1.574800*%
%ADD16O,2.286000X1.574800*%
%ADD17O,1.800000X2.600000*%
%ADD18R,1.727200X1.727200*%
%ADD19O,1.727200X1.727200*%
%ADD20R,2.400000X2.400000*%
%ADD21C,2.400000*%
%ADD22R,1.600000X1.600000*%
%ADD23C,1.600000*%
%ADD24C,1.899920*%
%ADD25C,1.500000*%
%ADD26C,3.000000*%
%ADD27R,3.000000X3.000000*%
%ADD28R,1.800000X1.800000*%
%ADD29O,1.800000X1.800000*%
%ADD30O,2.400000X2.400000*%
%ADD31R,1.350000X1.800000*%
%ADD32O,1.350000X1.800000*%
%ADD33C,1.000000*%
%ADD34C,0.250000*%
%ADD35C,0.254000*%
G04 APERTURE END LIST*
D10*
D11*
X116988114Y-27162457D02*
X117488114Y-27162457D01*
X117488114Y-27948171D02*
X117488114Y-26448171D01*
X116773828Y-26448171D01*
X116202400Y-27948171D02*
X116202400Y-26948171D01*
X116202400Y-26448171D02*
X116273829Y-26519600D01*
X116202400Y-26591029D01*
X116130972Y-26519600D01*
X116202400Y-26448171D01*
X116202400Y-26591029D01*
X115559543Y-27876743D02*
X115416686Y-27948171D01*
X115130971Y-27948171D01*
X114988114Y-27876743D01*
X114916686Y-27733886D01*
X114916686Y-27662457D01*
X114988114Y-27519600D01*
X115130971Y-27448171D01*
X115345257Y-27448171D01*
X115488114Y-27376743D01*
X115559543Y-27233886D01*
X115559543Y-27162457D01*
X115488114Y-27019600D01*
X115345257Y-26948171D01*
X115130971Y-26948171D01*
X114988114Y-27019600D01*
X114273828Y-27948171D02*
X114273828Y-26448171D01*
X113630971Y-27948171D02*
X113630971Y-27162457D01*
X113702400Y-27019600D01*
X113845257Y-26948171D01*
X114059542Y-26948171D01*
X114202400Y-27019600D01*
X114273828Y-27091029D01*
X112345257Y-27876743D02*
X112488114Y-27948171D01*
X112773828Y-27948171D01*
X112916685Y-27876743D01*
X112988114Y-27733886D01*
X112988114Y-27162457D01*
X112916685Y-27019600D01*
X112773828Y-26948171D01*
X112488114Y-26948171D01*
X112345257Y-27019600D01*
X112273828Y-27162457D01*
X112273828Y-27305314D01*
X112988114Y-27448171D01*
X111630971Y-27948171D02*
X111630971Y-26948171D01*
X111630971Y-27233886D02*
X111559543Y-27091029D01*
X111488114Y-27019600D01*
X111345257Y-26948171D01*
X111202400Y-26948171D01*
X120488114Y-30426743D02*
X120630971Y-30498171D01*
X120916685Y-30498171D01*
X121059543Y-30426743D01*
X121130971Y-30355314D01*
X121202400Y-30212457D01*
X121202400Y-29783886D01*
X121130971Y-29641029D01*
X121059543Y-29569600D01*
X120916685Y-29498171D01*
X120630971Y-29498171D01*
X120488114Y-29569600D01*
X119630971Y-30498171D02*
X119773829Y-30426743D01*
X119845257Y-30355314D01*
X119916686Y-30212457D01*
X119916686Y-29783886D01*
X119845257Y-29641029D01*
X119773829Y-29569600D01*
X119630971Y-29498171D01*
X119416686Y-29498171D01*
X119273829Y-29569600D01*
X119202400Y-29641029D01*
X119130971Y-29783886D01*
X119130971Y-30212457D01*
X119202400Y-30355314D01*
X119273829Y-30426743D01*
X119416686Y-30498171D01*
X119630971Y-30498171D01*
X118488114Y-30498171D02*
X118488114Y-29498171D01*
X118488114Y-29783886D02*
X118416686Y-29641029D01*
X118345257Y-29569600D01*
X118202400Y-29498171D01*
X118059543Y-29498171D01*
X117559543Y-29498171D02*
X117559543Y-30998171D01*
X117559543Y-29569600D02*
X117416686Y-29498171D01*
X117130972Y-29498171D01*
X116988115Y-29569600D01*
X116916686Y-29641029D01*
X116845257Y-29783886D01*
X116845257Y-30212457D01*
X116916686Y-30355314D01*
X116988115Y-30426743D01*
X117130972Y-30498171D01*
X117416686Y-30498171D01*
X117559543Y-30426743D01*
X115559543Y-29498171D02*
X115559543Y-30498171D01*
X116202400Y-29498171D02*
X116202400Y-30283886D01*
X116130972Y-30426743D01*
X115988114Y-30498171D01*
X115773829Y-30498171D01*
X115630972Y-30426743D01*
X115559543Y-30355314D01*
X114845257Y-30498171D02*
X114845257Y-29498171D01*
X114845257Y-29783886D02*
X114773829Y-29641029D01*
X114702400Y-29569600D01*
X114559543Y-29498171D01*
X114416686Y-29498171D01*
X113273829Y-30498171D02*
X113273829Y-29712457D01*
X113345258Y-29569600D01*
X113488115Y-29498171D01*
X113773829Y-29498171D01*
X113916686Y-29569600D01*
X113273829Y-30426743D02*
X113416686Y-30498171D01*
X113773829Y-30498171D01*
X113916686Y-30426743D01*
X113988115Y-30283886D01*
X113988115Y-30141029D01*
X113916686Y-29998171D01*
X113773829Y-29926743D01*
X113416686Y-29926743D01*
X113273829Y-29855314D01*
X112773829Y-29498171D02*
X112202400Y-29498171D01*
X112559543Y-28998171D02*
X112559543Y-30283886D01*
X112488115Y-30426743D01*
X112345257Y-30498171D01*
X112202400Y-30498171D01*
X111702400Y-30498171D02*
X111702400Y-29498171D01*
X111702400Y-28998171D02*
X111773829Y-29069600D01*
X111702400Y-29141029D01*
X111630972Y-29069600D01*
X111702400Y-28998171D01*
X111702400Y-29141029D01*
X110773828Y-30498171D02*
X110916686Y-30426743D01*
X110988114Y-30355314D01*
X111059543Y-30212457D01*
X111059543Y-29783886D01*
X110988114Y-29641029D01*
X110916686Y-29569600D01*
X110773828Y-29498171D01*
X110559543Y-29498171D01*
X110416686Y-29569600D01*
X110345257Y-29641029D01*
X110273828Y-29783886D01*
X110273828Y-30212457D01*
X110345257Y-30355314D01*
X110416686Y-30426743D01*
X110559543Y-30498171D01*
X110773828Y-30498171D01*
X109630971Y-29498171D02*
X109630971Y-30498171D01*
X109630971Y-29641029D02*
X109559543Y-29569600D01*
X109416685Y-29498171D01*
X109202400Y-29498171D01*
X109059543Y-29569600D01*
X108988114Y-29712457D01*
X108988114Y-30498171D01*
X108345257Y-30426743D02*
X108202400Y-30498171D01*
X107916685Y-30498171D01*
X107773828Y-30426743D01*
X107702400Y-30283886D01*
X107702400Y-30212457D01*
X107773828Y-30069600D01*
X107916685Y-29998171D01*
X108130971Y-29998171D01*
X108273828Y-29926743D01*
X108345257Y-29783886D01*
X108345257Y-29712457D01*
X108273828Y-29569600D01*
X108130971Y-29498171D01*
X107916685Y-29498171D01*
X107773828Y-29569600D01*
X117023828Y-31691029D02*
X116952399Y-31619600D01*
X116809542Y-31548171D01*
X116452399Y-31548171D01*
X116309542Y-31619600D01*
X116238113Y-31691029D01*
X116166685Y-31833886D01*
X116166685Y-31976743D01*
X116238113Y-32191029D01*
X117095256Y-33048171D01*
X116166685Y-33048171D01*
X115238114Y-31548171D02*
X115095257Y-31548171D01*
X114952400Y-31619600D01*
X114880971Y-31691029D01*
X114809542Y-31833886D01*
X114738114Y-32119600D01*
X114738114Y-32476743D01*
X114809542Y-32762457D01*
X114880971Y-32905314D01*
X114952400Y-32976743D01*
X115095257Y-33048171D01*
X115238114Y-33048171D01*
X115380971Y-32976743D01*
X115452400Y-32905314D01*
X115523828Y-32762457D01*
X115595257Y-32476743D01*
X115595257Y-32119600D01*
X115523828Y-31833886D01*
X115452400Y-31691029D01*
X115380971Y-31619600D01*
X115238114Y-31548171D01*
X113309543Y-33048171D02*
X114166686Y-33048171D01*
X113738114Y-33048171D02*
X113738114Y-31548171D01*
X113880971Y-31762457D01*
X114023829Y-31905314D01*
X114166686Y-31976743D01*
X112809543Y-31548171D02*
X111809543Y-31548171D01*
X112452400Y-33048171D01*
D12*
X30353000Y-65836800D03*
D13*
X20193000Y-65836800D03*
D14*
X30382200Y-71109200D03*
X35382200Y-73609200D03*
X30382200Y-76109200D03*
D15*
X111328200Y-77063600D03*
D16*
X111328200Y-74523600D03*
X111328200Y-71983600D03*
X111328200Y-69443600D03*
X111328200Y-66903600D03*
X111328200Y-64363600D03*
X111328200Y-61823600D03*
X111328200Y-59283600D03*
X111328200Y-56743600D03*
X111328200Y-54203600D03*
X111328200Y-51663600D03*
X111328200Y-49123600D03*
X111328200Y-46583600D03*
X111328200Y-44043600D03*
X111328200Y-41503600D03*
X96088200Y-41503600D03*
X96088200Y-44043600D03*
X96088200Y-49123600D03*
X96088200Y-51663600D03*
X96088200Y-54203600D03*
X96088200Y-56743600D03*
X96088200Y-59283600D03*
X96088200Y-61823600D03*
X96088200Y-64363600D03*
X96088200Y-66903600D03*
X96088200Y-69443600D03*
X96088200Y-71983600D03*
X96088200Y-74523600D03*
X96088200Y-77063600D03*
D17*
X82753200Y-78308200D03*
X80213200Y-78308200D03*
X77673200Y-78308200D03*
X75133200Y-78308200D03*
X72593200Y-78308200D03*
X70053200Y-78308200D03*
X67513200Y-78308200D03*
X64973200Y-78308200D03*
X62433200Y-78308200D03*
X59893200Y-78308200D03*
X57353200Y-78308200D03*
X54813200Y-78308200D03*
X52273200Y-78308200D03*
X49733200Y-78308200D03*
X47193200Y-78308200D03*
X44653200Y-78308200D03*
D18*
X67284600Y-28168600D03*
D19*
X67284600Y-25628600D03*
X69824600Y-28168600D03*
X69824600Y-25628600D03*
X72364600Y-28168600D03*
X72364600Y-25628600D03*
X74904600Y-28168600D03*
X74904600Y-25628600D03*
X77444600Y-28168600D03*
X77444600Y-25628600D03*
X79984600Y-28168600D03*
X79984600Y-25628600D03*
X82524600Y-28168600D03*
X82524600Y-25628600D03*
X85064600Y-28168600D03*
X85064600Y-25628600D03*
X87604600Y-28168600D03*
X87604600Y-25628600D03*
X90144600Y-28168600D03*
X90144600Y-25628600D03*
D20*
X25679400Y-40944800D03*
D21*
X20679400Y-40944800D03*
D22*
X21361400Y-56896000D03*
D23*
X23361400Y-56896000D03*
D21*
X20731600Y-29794200D03*
D20*
X24231600Y-29794200D03*
D21*
X46568600Y-26212800D03*
X43068600Y-26212800D03*
X50068600Y-26212800D03*
D20*
X53568600Y-26212800D03*
D24*
X29133800Y-55565040D03*
X29133800Y-60563760D03*
D25*
X127099600Y-67691000D03*
X124559600Y-67691000D03*
X122529600Y-67691000D03*
X119989600Y-67691000D03*
D26*
X130149600Y-70361000D03*
X116429600Y-70361000D03*
X76657200Y-57658000D03*
X71577200Y-57658000D03*
D27*
X81737200Y-57658000D03*
D26*
X66497200Y-57658000D03*
D28*
X56184800Y-38735000D03*
D29*
X56184800Y-36195000D03*
X56184800Y-33655000D03*
D28*
X48564800Y-38709600D03*
D29*
X48564800Y-36169600D03*
X48564800Y-33629600D03*
D28*
X41021000Y-38811200D03*
D29*
X41021000Y-36271200D03*
X41021000Y-33731200D03*
D21*
X56184800Y-69011800D03*
D30*
X56184800Y-43611800D03*
D21*
X48336200Y-69189600D03*
D30*
X48336200Y-43789600D03*
D21*
X40741600Y-69189600D03*
D30*
X40741600Y-43789600D03*
D14*
X85144600Y-75006200D03*
X87644600Y-70006200D03*
X90144600Y-75006200D03*
D31*
X27457400Y-50190400D03*
D32*
X25757400Y-50190400D03*
X24057400Y-50190400D03*
X22357400Y-50190400D03*
X20657400Y-50190400D03*
D33*
X69824600Y-28168600D02*
X68961001Y-29032199D01*
X68961001Y-29032199D02*
X68961001Y-29479401D01*
X68961001Y-29479401D02*
X62245402Y-36195000D01*
X62245402Y-36195000D02*
X57457592Y-36195000D01*
X57457592Y-36195000D02*
X56184800Y-36195000D01*
X69824600Y-25628600D02*
X69824600Y-28168600D01*
X48564800Y-36169600D02*
X56159400Y-36169600D01*
X56159400Y-36169600D02*
X56184800Y-36195000D01*
X41021000Y-36271200D02*
X48463200Y-36271200D01*
X48463200Y-36271200D02*
X48564800Y-36169600D01*
X41021000Y-36271200D02*
X28153000Y-36271200D01*
X28153000Y-36271200D02*
X25679400Y-38744800D01*
X25679400Y-38744800D02*
X25679400Y-40944800D01*
X27457400Y-50190400D02*
X27457400Y-42722800D01*
X27457400Y-42722800D02*
X25679400Y-40944800D01*
X24231600Y-29794200D02*
X24231600Y-39497000D01*
X24231600Y-39497000D02*
X25679400Y-40944800D01*
X59893200Y-78308200D02*
X59893200Y-76008200D01*
X59893200Y-76008200D02*
X57269400Y-73384400D01*
X57269400Y-73384400D02*
X40596198Y-73384400D01*
X40596198Y-73384400D02*
X37150999Y-69939201D01*
X30382200Y-71109200D02*
X31552199Y-72279199D01*
X31552199Y-72885428D02*
X36974971Y-78308200D01*
X31552199Y-72279199D02*
X31552199Y-72885428D01*
X30382200Y-71109200D02*
X31552199Y-69939201D01*
X31552199Y-69939201D02*
X37150999Y-69939201D01*
X37150999Y-69939201D02*
X40304031Y-66786169D01*
X20193000Y-65836800D02*
X25465400Y-71109200D01*
X25465400Y-71109200D02*
X30382200Y-71109200D01*
X71755000Y-74980800D02*
X72593200Y-75819000D01*
X72593200Y-75819000D02*
X72593200Y-78308200D01*
X68540600Y-74980800D02*
X71755000Y-74980800D01*
X67513200Y-78308200D02*
X67513200Y-76008200D01*
X67513200Y-76008200D02*
X68540600Y-74980800D01*
X96088200Y-49123600D02*
X71775598Y-49123600D01*
X71775598Y-49123600D02*
X68697201Y-52201997D01*
X68697201Y-52201997D02*
X68697201Y-58861599D01*
X68697201Y-58861599D02*
X60772631Y-66786169D01*
X60772631Y-66786169D02*
X40304031Y-66786169D01*
X111328200Y-44043600D02*
X113471200Y-44043600D01*
X113471200Y-44043600D02*
X116429600Y-47002000D01*
X116429600Y-47002000D02*
X116429600Y-68239680D01*
X116429600Y-68239680D02*
X116429600Y-70361000D01*
X65455800Y-23799800D02*
X59232800Y-23799800D01*
X59232800Y-23799800D02*
X39547800Y-23799800D01*
X125552200Y-18059400D02*
X64973200Y-18059400D01*
X64973200Y-18059400D02*
X59232800Y-23799800D01*
X130403600Y-22910800D02*
X125552200Y-18059400D01*
X130403600Y-58756340D02*
X130403600Y-22910800D01*
X122529600Y-67691000D02*
X122529600Y-66630340D01*
X122529600Y-66630340D02*
X130403600Y-58756340D01*
X122529600Y-67691000D02*
X119859600Y-70361000D01*
X119859600Y-70361000D02*
X116429600Y-70361000D01*
X127099600Y-67691000D02*
X127479600Y-67691000D01*
X127479600Y-67691000D02*
X130149600Y-70361000D01*
X127099600Y-67691000D02*
X124559600Y-67691000D01*
X122529600Y-67691000D02*
X124559600Y-67691000D01*
X22615944Y-26212800D02*
X37134800Y-26212800D01*
X39547800Y-23799800D02*
X37134800Y-26212800D01*
X37134800Y-26212800D02*
X41371544Y-26212800D01*
X67284600Y-25628600D02*
X65455800Y-23799800D01*
X67284600Y-28168600D02*
X67284600Y-25628600D01*
X90144600Y-75006200D02*
X86842600Y-78308200D01*
X86842600Y-78308200D02*
X82753200Y-78308200D01*
X67513200Y-78308200D02*
X67513200Y-78185445D01*
X72593200Y-78185445D02*
X72593200Y-78308200D01*
X64973200Y-78308200D02*
X67513200Y-78308200D01*
X62433200Y-78308200D02*
X64973200Y-78308200D01*
X59893200Y-78308200D02*
X62433200Y-78308200D01*
X59893200Y-77908200D02*
X59893200Y-78308200D01*
X44653200Y-78308200D02*
X36974971Y-78308200D01*
X23361400Y-56896000D02*
X23361400Y-62668400D01*
X23361400Y-62668400D02*
X20193000Y-65836800D01*
X24057400Y-50190400D02*
X24057400Y-56200000D01*
X24057400Y-56200000D02*
X23361400Y-56896000D01*
X20657400Y-50190400D02*
X20657400Y-46812200D01*
X24057400Y-50190400D02*
X24057400Y-48290400D01*
X20657400Y-46812200D02*
X20657400Y-40966800D01*
X22579200Y-46812200D02*
X20657400Y-46812200D01*
X24057400Y-48290400D02*
X22579200Y-46812200D01*
X20657400Y-40966800D02*
X20679400Y-40944800D01*
X20731600Y-29794200D02*
X20731600Y-28097144D01*
X20731600Y-28097144D02*
X22615944Y-26212800D01*
X41371544Y-26212800D02*
X43068600Y-26212800D01*
X20731600Y-29794200D02*
X20731600Y-40892600D01*
X20731600Y-40892600D02*
X20679400Y-40944800D01*
D34*
X22357400Y-50190400D02*
X22357400Y-55900000D01*
X22357400Y-55900000D02*
X21361400Y-56896000D01*
X29133800Y-55565040D02*
X26974800Y-57724040D01*
X26974800Y-57724040D02*
X26974800Y-61108600D01*
X26974800Y-61108600D02*
X30353000Y-64486800D01*
X30353000Y-64486800D02*
X30353000Y-65836800D01*
X25757400Y-50190400D02*
X25757400Y-52188640D01*
X25757400Y-52188640D02*
X29133800Y-55565040D01*
X33705800Y-78384400D02*
X33832800Y-78511400D01*
X33832800Y-78511400D02*
X37954670Y-82633270D01*
X30382200Y-76109200D02*
X31552199Y-77279199D01*
X31552199Y-77279199D02*
X32600599Y-77279199D01*
X32600599Y-77279199D02*
X33832800Y-78511400D01*
X37954670Y-82633270D02*
X47015400Y-82633270D01*
X71278210Y-79125635D02*
X71278210Y-77400785D01*
X47015400Y-82633270D02*
X108273932Y-82633270D01*
X85144600Y-75006200D02*
X89139601Y-71011199D01*
X82797776Y-68511199D02*
X73818210Y-77490765D01*
X69545785Y-76683190D02*
X68738210Y-77490765D01*
X57860615Y-76683190D02*
X49225785Y-76683190D01*
X89139601Y-71011199D02*
X89139601Y-69288599D01*
X89139601Y-69288599D02*
X88362201Y-68511199D01*
X88362201Y-68511199D02*
X82797776Y-68511199D01*
X73818210Y-77490765D02*
X73818210Y-79215615D01*
X68020615Y-79933210D02*
X59385785Y-79933210D01*
X73818210Y-79215615D02*
X73100615Y-79933210D01*
X73100615Y-79933210D02*
X72085785Y-79933210D01*
X72085785Y-79933210D02*
X71278210Y-79125635D01*
X71278210Y-77400785D02*
X70560615Y-76683190D01*
X48418210Y-81230460D02*
X47015400Y-82633270D01*
X70560615Y-76683190D02*
X69545785Y-76683190D01*
X68738210Y-77490765D02*
X68738210Y-79215615D01*
X48418210Y-77490765D02*
X48418210Y-81230460D01*
X68738210Y-79215615D02*
X68020615Y-79933210D01*
X59385785Y-79933210D02*
X58578210Y-79125635D01*
X58578210Y-79125635D02*
X58578210Y-77400785D01*
X58578210Y-77400785D02*
X57860615Y-76683190D01*
X49225785Y-76683190D02*
X48418210Y-77490765D01*
X85144600Y-75006200D02*
X83974601Y-76176199D01*
X108273932Y-82633270D02*
X112796201Y-78111001D01*
X112796201Y-78111001D02*
X112796201Y-50236001D01*
X112796201Y-50236001D02*
X111683800Y-49123600D01*
X111683800Y-49123600D02*
X111328200Y-49123600D01*
X83974601Y-76176199D02*
X81945201Y-76176199D01*
X81945201Y-76176199D02*
X80213200Y-77908200D01*
X80213200Y-77908200D02*
X80213200Y-78308200D01*
X87644600Y-70006200D02*
X85575200Y-70006200D01*
X85575200Y-70006200D02*
X77673200Y-77908200D01*
X77673200Y-77908200D02*
X77673200Y-78308200D01*
X96088200Y-64363600D02*
X97481200Y-64363600D01*
X97481200Y-64363600D02*
X98526600Y-65409000D01*
X98526600Y-65409000D02*
X98526600Y-77774800D01*
X98526600Y-77774800D02*
X96368190Y-79933210D01*
X76358210Y-79933210D02*
X75133200Y-78708200D01*
X96368190Y-79933210D02*
X76358210Y-79933210D01*
X75133200Y-78708200D02*
X75133200Y-78308200D01*
X96088200Y-61823600D02*
X96443800Y-61823600D01*
X96443800Y-61823600D02*
X98976610Y-64356410D01*
X98976610Y-64356410D02*
X98976609Y-77961201D01*
X70053200Y-78708200D02*
X70053200Y-78308200D01*
X98976609Y-77961201D02*
X96554590Y-80383220D01*
X96554590Y-80383220D02*
X71728220Y-80383220D01*
X71728220Y-80383220D02*
X70053200Y-78708200D01*
X96088200Y-59283600D02*
X97481200Y-59283600D01*
X97481200Y-59283600D02*
X99426619Y-61229019D01*
X99426619Y-61229019D02*
X99426618Y-78147602D01*
X99426618Y-78147602D02*
X96740990Y-80833230D01*
X96740990Y-80833230D02*
X59478230Y-80833230D01*
X59478230Y-80833230D02*
X57353200Y-78708200D01*
X57353200Y-78708200D02*
X57353200Y-78308200D01*
X96088200Y-56743600D02*
X97481200Y-56743600D01*
X97481200Y-56743600D02*
X99876627Y-59139027D01*
X99876627Y-59139027D02*
X99876627Y-78334003D01*
X96927390Y-81283240D02*
X57388240Y-81283240D01*
X99876627Y-78334003D02*
X96927390Y-81283240D01*
X57388240Y-81283240D02*
X54813200Y-78708200D01*
X54813200Y-78708200D02*
X54813200Y-78308200D01*
X96088200Y-54203600D02*
X96443800Y-54203600D01*
X96443800Y-54203600D02*
X100326637Y-58086437D01*
X100326637Y-58086437D02*
X100326636Y-78520404D01*
X100326636Y-78520404D02*
X97113790Y-81733250D01*
X97113790Y-81733250D02*
X55298250Y-81733250D01*
X55298250Y-81733250D02*
X52273200Y-78708200D01*
X52273200Y-78708200D02*
X52273200Y-78308200D01*
X96088200Y-51663600D02*
X97481200Y-51663600D01*
X100776646Y-54959047D02*
X100776645Y-78706805D01*
X97481200Y-51663600D02*
X100776646Y-54959047D01*
X97300190Y-82183260D02*
X53208260Y-82183260D01*
X100776645Y-78706805D02*
X97300190Y-82183260D01*
X53208260Y-82183260D02*
X49733200Y-78708200D01*
X49733200Y-78708200D02*
X49733200Y-78308200D01*
X35382200Y-73609200D02*
X36552199Y-74779199D01*
X36552199Y-74779199D02*
X37600599Y-74779199D01*
X37600599Y-74779199D02*
X38705800Y-75884400D01*
X38705800Y-75884400D02*
X45169400Y-75884400D01*
X45169400Y-75884400D02*
X47193200Y-77908200D01*
X47193200Y-77908200D02*
X47193200Y-78308200D01*
D33*
X46568600Y-26212800D02*
X46568600Y-28183600D01*
X46568600Y-28183600D02*
X41021000Y-33731200D01*
X50068600Y-26212800D02*
X50068600Y-32125800D01*
X50068600Y-32125800D02*
X48564800Y-33629600D01*
D34*
X112721200Y-41503600D02*
X129413000Y-58195400D01*
X29133800Y-60563760D02*
X41300400Y-60563760D01*
X41300400Y-60563760D02*
X41489842Y-60563760D01*
X66497200Y-57658000D02*
X64375880Y-57658000D01*
X61470120Y-60563760D02*
X41300400Y-60563760D01*
X64375880Y-57658000D02*
X61470120Y-60563760D01*
X129578590Y-58102010D02*
X129413000Y-58267600D01*
X129413000Y-58195400D02*
X129413000Y-58267600D01*
X129413000Y-58267600D02*
X119989600Y-67691000D01*
X111328200Y-41503600D02*
X112721200Y-41503600D01*
X129578590Y-23711390D02*
X129578590Y-58102010D01*
X77887476Y-18884410D02*
X124751610Y-18884410D01*
X124751610Y-18884410D02*
X129578590Y-23711390D01*
X72364600Y-25628600D02*
X72364600Y-24407286D01*
X72364600Y-24407286D02*
X77887476Y-18884410D01*
X72364600Y-25628600D02*
X72364600Y-26849914D01*
X72364600Y-26849914D02*
X72364600Y-28168600D01*
X41489842Y-60563760D02*
X72364600Y-29689002D01*
X72364600Y-29689002D02*
X72364600Y-29389914D01*
X72364600Y-29389914D02*
X72364600Y-28168600D01*
X96088200Y-44043600D02*
X94695200Y-44043600D01*
X94695200Y-44043600D02*
X94644400Y-43992800D01*
X94644400Y-43992800D02*
X78511400Y-43992800D01*
X78511400Y-43992800D02*
X74904600Y-40386000D01*
X74904600Y-40386000D02*
X74904600Y-28168600D01*
X104140000Y-47626615D02*
X104140000Y-67691000D01*
X104140000Y-67691000D02*
X110972600Y-74523600D01*
X110972600Y-74523600D02*
X111328200Y-74523600D01*
X96619985Y-40106600D02*
X104140000Y-47626615D01*
X77444600Y-28168600D02*
X77444600Y-25628600D01*
X80594200Y-40106600D02*
X77444600Y-36957000D01*
X96619985Y-40106600D02*
X80594200Y-40106600D01*
X77444600Y-36957000D02*
X77444600Y-28168600D01*
X111328200Y-71983600D02*
X110972600Y-71983600D01*
X110972600Y-71983600D02*
X104590010Y-65601010D01*
X104590010Y-65601010D02*
X104590009Y-47440214D01*
X104590009Y-47440214D02*
X96799195Y-39649400D01*
X96799195Y-39649400D02*
X83159600Y-39649400D01*
X83159600Y-39649400D02*
X79984600Y-36474400D01*
X79984600Y-36474400D02*
X79984600Y-28168600D01*
X105105200Y-47318995D02*
X105105200Y-63576200D01*
X105105200Y-63576200D02*
X110972600Y-69443600D01*
X110972600Y-69443600D02*
X111328200Y-69443600D01*
X81173201Y-35488999D02*
X84883592Y-39199390D01*
X84883592Y-39199390D02*
X96985596Y-39199391D01*
X96985596Y-39199391D02*
X105105200Y-47318995D01*
X79984600Y-25628600D02*
X81173201Y-26817201D01*
X81173201Y-26817201D02*
X81173201Y-35488999D01*
X86639400Y-38430200D02*
X82524600Y-34315400D01*
X82524600Y-34315400D02*
X82524600Y-28168600D01*
X96852815Y-38430200D02*
X86639400Y-38430200D01*
X111328200Y-66903600D02*
X109935200Y-66903600D01*
X109935200Y-66903600D02*
X105555210Y-62523610D01*
X105555210Y-62523610D02*
X105555209Y-47132594D01*
X105555209Y-47132594D02*
X96852815Y-38430200D01*
X111328200Y-66903600D02*
X110972600Y-66903600D01*
X71577200Y-57658000D02*
X78333600Y-50901600D01*
X101226655Y-54744655D02*
X97033190Y-50551190D01*
X97033190Y-50551190D02*
X78684010Y-50551190D01*
X78684010Y-50551190D02*
X78333600Y-50901600D01*
X104292400Y-77063600D02*
X111328200Y-77063600D01*
X101226655Y-73997855D02*
X104292400Y-77063600D01*
X101226655Y-54744655D02*
X101226655Y-73997855D01*
X111328200Y-77063600D02*
X111328200Y-76452385D01*
X86283800Y-53213000D02*
X81102200Y-53213000D01*
X81102200Y-53213000D02*
X76657200Y-57658000D01*
X89890600Y-56819800D02*
X86283800Y-53213000D01*
X89890600Y-60094785D02*
X89890600Y-56819800D01*
X98076590Y-76468210D02*
X98076590Y-66963205D01*
X98076590Y-66963205D02*
X96589395Y-65476010D01*
X96589395Y-65476010D02*
X95271825Y-65476010D01*
X95271825Y-65476010D02*
X89890600Y-60094785D01*
X96088200Y-77063600D02*
X97481200Y-77063600D01*
X97481200Y-77063600D02*
X98076590Y-76468210D01*
X95732600Y-77063600D02*
X96088200Y-77063600D01*
X86487000Y-57658000D02*
X81737200Y-57658000D01*
X96088200Y-66903600D02*
X95732600Y-66903600D01*
X95732600Y-66903600D02*
X86487000Y-57658000D01*
X56184800Y-38735000D02*
X56184800Y-39885000D01*
X56184800Y-39885000D02*
X56184800Y-43611800D01*
X48564800Y-38709600D02*
X48564800Y-43561000D01*
X48564800Y-43561000D02*
X48336200Y-43789600D01*
X41021000Y-38811200D02*
X41021000Y-43510200D01*
X41021000Y-43510200D02*
X40741600Y-43789600D01*
X64770000Y-66243200D02*
X62001400Y-69011800D01*
X62001400Y-69011800D02*
X56184800Y-69011800D01*
X92532200Y-66243200D02*
X64770000Y-66243200D01*
X95732600Y-69443600D02*
X92532200Y-66243200D01*
X95732600Y-69443600D02*
X96088200Y-69443600D01*
X92378390Y-66725800D02*
X64923810Y-66725800D01*
X64923810Y-66725800D02*
X61112809Y-70536801D01*
X61112809Y-70536801D02*
X49683401Y-70536801D01*
X49683401Y-70536801D02*
X49536199Y-70389599D01*
X49536199Y-70389599D02*
X48336200Y-69189600D01*
X94620190Y-68967600D02*
X92378390Y-66725800D01*
X95732600Y-71983600D02*
X94620190Y-70871190D01*
X94620190Y-70871190D02*
X94620190Y-68967600D01*
X95732600Y-71983600D02*
X96088200Y-71983600D01*
X65026820Y-67259200D02*
X61299209Y-70986811D01*
X61299209Y-70986811D02*
X42538811Y-70986811D01*
X42538811Y-70986811D02*
X41941599Y-70389599D01*
X41941599Y-70389599D02*
X40741600Y-69189600D01*
X94170181Y-69154001D02*
X92275380Y-67259200D01*
X92275380Y-67259200D02*
X65026820Y-67259200D01*
X95732600Y-74523600D02*
X94170181Y-72961181D01*
X94170181Y-72961181D02*
X94170181Y-69154001D01*
X95732600Y-74523600D02*
X96088200Y-74523600D01*
X106070400Y-47011375D02*
X106070400Y-59461400D01*
X106070400Y-59461400D02*
X110972600Y-64363600D01*
X110972600Y-64363600D02*
X111328200Y-64363600D01*
X83713201Y-34411801D02*
X87281590Y-37980190D01*
X87281590Y-37980190D02*
X97039216Y-37980191D01*
X97039216Y-37980191D02*
X106070400Y-47011375D01*
X82524600Y-25628600D02*
X83713201Y-26817201D01*
X83713201Y-26817201D02*
X83713201Y-34411801D01*
X88950800Y-37134800D02*
X85064600Y-33248600D01*
X85064600Y-33248600D02*
X85064600Y-28168600D01*
X96830235Y-37134800D02*
X88950800Y-37134800D01*
X111328200Y-61823600D02*
X109935200Y-61823600D01*
X109935200Y-61823600D02*
X106520410Y-58408810D01*
X106520410Y-58408810D02*
X106520409Y-46824974D01*
X106520409Y-46824974D02*
X96830235Y-37134800D01*
X107061000Y-46729155D02*
X107061000Y-55372000D01*
X107061000Y-55372000D02*
X110972600Y-59283600D01*
X110972600Y-59283600D02*
X111328200Y-59283600D01*
X89433400Y-36652200D02*
X96984045Y-36652200D01*
X96984045Y-36652200D02*
X107061000Y-46729155D01*
X86415999Y-33634799D02*
X89433400Y-36652200D01*
X85064600Y-25628600D02*
X86415999Y-26979999D01*
X86415999Y-26979999D02*
X86415999Y-33634799D01*
X90449400Y-35991800D02*
X87604600Y-33147000D01*
X87604600Y-33147000D02*
X87604600Y-28168600D01*
X96960055Y-35991800D02*
X90449400Y-35991800D01*
X111328200Y-56743600D02*
X110972600Y-56743600D01*
X110972600Y-56743600D02*
X107511010Y-53282010D01*
X107511010Y-53282010D02*
X107511009Y-46542754D01*
X107511009Y-46542754D02*
X96960055Y-35991800D01*
X108026200Y-53160790D02*
X109069010Y-54203600D01*
X109069010Y-54203600D02*
X111328200Y-54203600D01*
X88793201Y-33699191D02*
X90635800Y-35541790D01*
X90635800Y-35541790D02*
X97146456Y-35541791D01*
X97146456Y-35541791D02*
X108026200Y-46421535D01*
X108026200Y-46421535D02*
X108026200Y-53160790D01*
X87604600Y-25628600D02*
X88793201Y-26817201D01*
X88793201Y-26817201D02*
X88793201Y-33699191D01*
X111328200Y-54203600D02*
X110972600Y-54203600D01*
X91273274Y-29032199D02*
X91008199Y-29032199D01*
X91008199Y-29032199D02*
X90144600Y-28168600D01*
X109860190Y-47619115D02*
X109860190Y-50551190D01*
X110972600Y-51663600D02*
X111328200Y-51663600D01*
X91273274Y-29032199D02*
X109860190Y-47619115D01*
X109860190Y-50551190D02*
X110972600Y-51663600D01*
X90144600Y-25628600D02*
X111099600Y-46583600D01*
X111099600Y-46583600D02*
X111328200Y-46583600D01*
X111328200Y-46583600D02*
X110972600Y-46583600D01*
D33*
X53568600Y-26212800D02*
X53568600Y-31038800D01*
X53568600Y-31038800D02*
X56184800Y-33655000D01*
D34*
X79552800Y-41503600D02*
X76093201Y-38044001D01*
X76093201Y-38044001D02*
X76093201Y-26817201D01*
X76093201Y-26817201D02*
X75768199Y-26492199D01*
X75768199Y-26492199D02*
X74904600Y-25628600D01*
X96088200Y-41503600D02*
X79552800Y-41503600D01*
D35*
G36*
X131090600Y-68436696D02*
X130533413Y-68218277D01*
X129684213Y-68234503D01*
X128975018Y-68528261D01*
X128815235Y-68847030D01*
X130149600Y-70181395D01*
X130163743Y-70167253D01*
X130343348Y-70346858D01*
X130329205Y-70361000D01*
X130343348Y-70375143D01*
X130163743Y-70554748D01*
X130149600Y-70540605D01*
X128815235Y-71874970D01*
X128975018Y-72193739D01*
X129765787Y-72503723D01*
X130614987Y-72487497D01*
X131090600Y-72290492D01*
X131090600Y-86412000D01*
X14553000Y-86412000D01*
X14553000Y-75367636D01*
X22736637Y-75133148D01*
X22785741Y-75121731D01*
X22826534Y-75092110D01*
X22852588Y-75048951D01*
X22859799Y-74999057D01*
X22847030Y-74950288D01*
X22816293Y-74910329D01*
X22772431Y-74885476D01*
X22729363Y-74879252D01*
X14553000Y-75113532D01*
X14553000Y-72384686D01*
X29286320Y-72384686D01*
X29405786Y-72669184D01*
X30077090Y-72924094D01*
X30794846Y-72902704D01*
X31358614Y-72669184D01*
X31478080Y-72384686D01*
X30382200Y-71288805D01*
X29286320Y-72384686D01*
X14553000Y-72384686D01*
X14553000Y-70804090D01*
X28567306Y-70804090D01*
X28588696Y-71521846D01*
X28822216Y-72085614D01*
X29106714Y-72205080D01*
X30202595Y-71109200D01*
X30561805Y-71109200D01*
X31657686Y-72205080D01*
X31942184Y-72085614D01*
X32197094Y-71414310D01*
X32175704Y-70696554D01*
X31942184Y-70132786D01*
X31657686Y-70013320D01*
X30561805Y-71109200D01*
X30202595Y-71109200D01*
X29106714Y-70013320D01*
X28822216Y-70132786D01*
X28567306Y-70804090D01*
X14553000Y-70804090D01*
X14553000Y-69833714D01*
X29286320Y-69833714D01*
X30382200Y-70929595D01*
X31478080Y-69833714D01*
X31358614Y-69549216D01*
X30687310Y-69294306D01*
X29969554Y-69315696D01*
X29405786Y-69549216D01*
X29286320Y-69833714D01*
X14553000Y-69833714D01*
X14553000Y-66232922D01*
X18503825Y-66232922D01*
X18718466Y-66751132D01*
X19180608Y-67245812D01*
X19796877Y-67525983D01*
X20066000Y-67408404D01*
X20066000Y-65963800D01*
X20320000Y-65963800D01*
X20320000Y-67408404D01*
X20589123Y-67525983D01*
X21205392Y-67245812D01*
X21667534Y-66751132D01*
X21882175Y-66232922D01*
X21764125Y-65963800D01*
X20320000Y-65963800D01*
X20066000Y-65963800D01*
X18621875Y-65963800D01*
X18503825Y-66232922D01*
X14553000Y-66232922D01*
X14553000Y-65440678D01*
X18503825Y-65440678D01*
X18621875Y-65709800D01*
X20066000Y-65709800D01*
X20066000Y-64265196D01*
X20320000Y-64265196D01*
X20320000Y-65709800D01*
X21764125Y-65709800D01*
X21882175Y-65440678D01*
X21667534Y-64922468D01*
X21205392Y-64427788D01*
X20589123Y-64147617D01*
X20320000Y-64265196D01*
X20066000Y-64265196D01*
X19796877Y-64147617D01*
X19180608Y-64427788D01*
X18718466Y-64922468D01*
X18503825Y-65440678D01*
X14553000Y-65440678D01*
X14553000Y-56096000D01*
X19913960Y-56096000D01*
X19913960Y-57696000D01*
X19958238Y-57931317D01*
X20097310Y-58147441D01*
X20309510Y-58292431D01*
X20561400Y-58343440D01*
X22161400Y-58343440D01*
X22396717Y-58299162D01*
X22612841Y-58160090D01*
X22617377Y-58153452D01*
X23144623Y-58342965D01*
X23714854Y-58315778D01*
X24115405Y-58149864D01*
X24189539Y-57903745D01*
X23361400Y-57075605D01*
X23347258Y-57089748D01*
X23167653Y-56910143D01*
X23181795Y-56896000D01*
X23541005Y-56896000D01*
X24369145Y-57724139D01*
X24615264Y-57650005D01*
X24808365Y-57112777D01*
X24781178Y-56542546D01*
X24615264Y-56141995D01*
X24369145Y-56067861D01*
X23541005Y-56896000D01*
X23181795Y-56896000D01*
X23167652Y-56881858D01*
X23347258Y-56702253D01*
X23361400Y-56716395D01*
X24189539Y-55888255D01*
X24115405Y-55642136D01*
X23578177Y-55449035D01*
X23117400Y-55471004D01*
X23117400Y-51482907D01*
X23207554Y-51422668D01*
X23655190Y-51670929D01*
X23728000Y-51683310D01*
X23930400Y-51559624D01*
X23930400Y-50317400D01*
X23910400Y-50317400D01*
X23910400Y-50063400D01*
X23930400Y-50063400D01*
X23930400Y-48821176D01*
X23728000Y-48697490D01*
X23655190Y-48709871D01*
X23207554Y-48958132D01*
X22858715Y-48725046D01*
X22357400Y-48625328D01*
X21856085Y-48725046D01*
X21507246Y-48958132D01*
X21059610Y-48709871D01*
X20986800Y-48697490D01*
X20784400Y-48821176D01*
X20784400Y-50063400D01*
X20804400Y-50063400D01*
X20804400Y-50317400D01*
X20784400Y-50317400D01*
X20784400Y-51559624D01*
X20986800Y-51683310D01*
X21059610Y-51670929D01*
X21507246Y-51422668D01*
X21597400Y-51482907D01*
X21597400Y-55448560D01*
X20561400Y-55448560D01*
X20326083Y-55492838D01*
X20109959Y-55631910D01*
X19964969Y-55844110D01*
X19913960Y-56096000D01*
X14553000Y-56096000D01*
X14553000Y-50524276D01*
X19343523Y-50524276D01*
X19485201Y-51018787D01*
X19805336Y-51421438D01*
X20255190Y-51670929D01*
X20328000Y-51683310D01*
X20530400Y-51559624D01*
X20530400Y-50317400D01*
X19501417Y-50317400D01*
X19343523Y-50524276D01*
X14553000Y-50524276D01*
X14553000Y-49856524D01*
X19343523Y-49856524D01*
X19501417Y-50063400D01*
X20530400Y-50063400D01*
X20530400Y-48821176D01*
X20328000Y-48697490D01*
X20255190Y-48709871D01*
X19805336Y-48959362D01*
X19485201Y-49362013D01*
X19343523Y-49856524D01*
X14553000Y-49856524D01*
X14553000Y-42241975D01*
X19561830Y-42241975D01*
X19684965Y-42529588D01*
X20367134Y-42789507D01*
X21096843Y-42768586D01*
X21673835Y-42529588D01*
X21796970Y-42241975D01*
X20679400Y-41124405D01*
X19561830Y-42241975D01*
X14553000Y-42241975D01*
X14553000Y-40632534D01*
X18834693Y-40632534D01*
X18855614Y-41362243D01*
X19094612Y-41939235D01*
X19382225Y-42062370D01*
X20499795Y-40944800D01*
X20859005Y-40944800D01*
X21976575Y-42062370D01*
X22264188Y-41939235D01*
X22524107Y-41257066D01*
X22503186Y-40527357D01*
X22264188Y-39950365D01*
X21976575Y-39827230D01*
X20859005Y-40944800D01*
X20499795Y-40944800D01*
X19382225Y-39827230D01*
X19094612Y-39950365D01*
X18834693Y-40632534D01*
X14553000Y-40632534D01*
X14553000Y-39647625D01*
X19561830Y-39647625D01*
X20679400Y-40765195D01*
X21796970Y-39647625D01*
X21673835Y-39360012D01*
X20991666Y-39100093D01*
X20261957Y-39121014D01*
X19684965Y-39360012D01*
X19561830Y-39647625D01*
X14553000Y-39647625D01*
X14553000Y-31091375D01*
X19614030Y-31091375D01*
X19737165Y-31378988D01*
X20419334Y-31638907D01*
X21149043Y-31617986D01*
X21726035Y-31378988D01*
X21849170Y-31091375D01*
X20731600Y-29973805D01*
X19614030Y-31091375D01*
X14553000Y-31091375D01*
X14553000Y-29481934D01*
X18886893Y-29481934D01*
X18907814Y-30211643D01*
X19146812Y-30788635D01*
X19434425Y-30911770D01*
X20551995Y-29794200D01*
X20911205Y-29794200D01*
X22028775Y-30911770D01*
X22316388Y-30788635D01*
X22384160Y-30610764D01*
X22384160Y-30994200D01*
X22428438Y-31229517D01*
X22567510Y-31445641D01*
X22779710Y-31590631D01*
X23031600Y-31641640D01*
X23096600Y-31641640D01*
X23096600Y-39497000D01*
X23182997Y-39931346D01*
X23383508Y-40231431D01*
X23429034Y-40299566D01*
X23831960Y-40702492D01*
X23831960Y-42144800D01*
X23876238Y-42380117D01*
X24015310Y-42596241D01*
X24227510Y-42741231D01*
X24479400Y-42792240D01*
X25921708Y-42792240D01*
X26322400Y-43192932D01*
X26322400Y-48767599D01*
X26258715Y-48725046D01*
X25757400Y-48625328D01*
X25256085Y-48725046D01*
X24907246Y-48958132D01*
X24459610Y-48709871D01*
X24386800Y-48697490D01*
X24184400Y-48821176D01*
X24184400Y-50063400D01*
X24204400Y-50063400D01*
X24204400Y-50317400D01*
X24184400Y-50317400D01*
X24184400Y-51559624D01*
X24386800Y-51683310D01*
X24459610Y-51670929D01*
X24907246Y-51422668D01*
X24997400Y-51482907D01*
X24997400Y-52188640D01*
X25055252Y-52479479D01*
X25219999Y-52726041D01*
X27605811Y-55111853D01*
X27549116Y-55248389D01*
X27548566Y-55878925D01*
X27606033Y-56018005D01*
X26437399Y-57186639D01*
X26272652Y-57433201D01*
X26214800Y-57724040D01*
X26214800Y-61108600D01*
X26272652Y-61399439D01*
X26437399Y-61646001D01*
X28961311Y-64169913D01*
X28801559Y-64272710D01*
X28656569Y-64484910D01*
X28605560Y-64736800D01*
X28605560Y-66936800D01*
X28649838Y-67172117D01*
X28788910Y-67388241D01*
X29001110Y-67533231D01*
X29253000Y-67584240D01*
X31453000Y-67584240D01*
X31688317Y-67539962D01*
X31904441Y-67400890D01*
X32049431Y-67188690D01*
X32100440Y-66936800D01*
X32100440Y-64736800D01*
X32056162Y-64501483D01*
X31917090Y-64285359D01*
X31704890Y-64140369D01*
X31453000Y-64089360D01*
X30983920Y-64089360D01*
X30890401Y-63949399D01*
X29089684Y-62148682D01*
X29447685Y-62148994D01*
X30030435Y-61908207D01*
X30476680Y-61462740D01*
X30534390Y-61323760D01*
X61470120Y-61323760D01*
X61760959Y-61265908D01*
X62007521Y-61101161D01*
X64556567Y-58552115D01*
X64686180Y-58865800D01*
X65286241Y-59466909D01*
X66070659Y-59792628D01*
X66920015Y-59793370D01*
X67705000Y-59469020D01*
X68306109Y-58868959D01*
X68631828Y-58084541D01*
X68632570Y-57235185D01*
X68308220Y-56450200D01*
X67708159Y-55849091D01*
X66923741Y-55523372D01*
X66074385Y-55522630D01*
X65289400Y-55846980D01*
X64688291Y-56447041D01*
X64501036Y-56898000D01*
X64375880Y-56898000D01*
X64085040Y-56955852D01*
X63838479Y-57120599D01*
X61155318Y-59803760D01*
X43324644Y-59803760D01*
X54351864Y-48776540D01*
X94353190Y-48776540D01*
X94475348Y-48996600D01*
X95961200Y-48996600D01*
X95961200Y-47701200D01*
X96215200Y-47701200D01*
X96215200Y-48996600D01*
X97701052Y-48996600D01*
X97823210Y-48776540D01*
X97806527Y-48696604D01*
X97539391Y-48207614D01*
X97105462Y-47858075D01*
X96570800Y-47701200D01*
X96215200Y-47701200D01*
X95961200Y-47701200D01*
X95605600Y-47701200D01*
X95070938Y-47858075D01*
X94637009Y-48207614D01*
X94369873Y-48696604D01*
X94353190Y-48776540D01*
X54351864Y-48776540D01*
X72902001Y-30226404D01*
X73066747Y-29979842D01*
X73066748Y-29979841D01*
X73124600Y-29689002D01*
X73124600Y-29448120D01*
X73453629Y-29228270D01*
X73634600Y-28957428D01*
X73815571Y-29228270D01*
X74144600Y-29448120D01*
X74144600Y-40386000D01*
X74202452Y-40676839D01*
X74367199Y-40923401D01*
X77973999Y-44530201D01*
X78220560Y-44694948D01*
X78268814Y-44704546D01*
X78511400Y-44752800D01*
X94439813Y-44752800D01*
X94502080Y-44765186D01*
X94691978Y-45049389D01*
X95153438Y-45357726D01*
X95697767Y-45466000D01*
X96478633Y-45466000D01*
X97022962Y-45357726D01*
X97484422Y-45049389D01*
X97792759Y-44587929D01*
X97901033Y-44043600D01*
X97792759Y-43499271D01*
X97484422Y-43037811D01*
X97089001Y-42773600D01*
X97484422Y-42509389D01*
X97670094Y-42231511D01*
X103380000Y-47941417D01*
X103380000Y-67691000D01*
X103437852Y-67981839D01*
X103602599Y-68228401D01*
X109578817Y-74204619D01*
X109515367Y-74523600D01*
X109623641Y-75067929D01*
X109931978Y-75529389D01*
X110103660Y-75644103D01*
X109949883Y-75673038D01*
X109733759Y-75812110D01*
X109588769Y-76024310D01*
X109537760Y-76276200D01*
X109537760Y-76303600D01*
X104607202Y-76303600D01*
X101986655Y-73683053D01*
X101986655Y-54744655D01*
X101928803Y-54453816D01*
X101764056Y-54207254D01*
X97570591Y-50013789D01*
X97558059Y-50005415D01*
X97806527Y-49550596D01*
X97823210Y-49470660D01*
X97701052Y-49250600D01*
X96215200Y-49250600D01*
X96215200Y-49270600D01*
X95961200Y-49270600D01*
X95961200Y-49250600D01*
X94475348Y-49250600D01*
X94353190Y-49470660D01*
X94369873Y-49550596D01*
X94501310Y-49791190D01*
X78684010Y-49791190D01*
X78393171Y-49849042D01*
X78146609Y-50013789D01*
X72451217Y-55709181D01*
X72003741Y-55523372D01*
X71154385Y-55522630D01*
X70369400Y-55846980D01*
X69768291Y-56447041D01*
X69442572Y-57231459D01*
X69441830Y-58080815D01*
X69766180Y-58865800D01*
X70366241Y-59466909D01*
X71150659Y-59792628D01*
X72000015Y-59793370D01*
X72785000Y-59469020D01*
X73386109Y-58868959D01*
X73711828Y-58084541D01*
X73712570Y-57235185D01*
X73526102Y-56783900D01*
X78998812Y-51311190D01*
X94345466Y-51311190D01*
X94275367Y-51663600D01*
X94383641Y-52207929D01*
X94691978Y-52669389D01*
X95087399Y-52933600D01*
X94691978Y-53197811D01*
X94383641Y-53659271D01*
X94275367Y-54203600D01*
X94383641Y-54747929D01*
X94691978Y-55209389D01*
X95087399Y-55473600D01*
X94691978Y-55737811D01*
X94383641Y-56199271D01*
X94275367Y-56743600D01*
X94383641Y-57287929D01*
X94691978Y-57749389D01*
X95087399Y-58013600D01*
X94691978Y-58277811D01*
X94383641Y-58739271D01*
X94275367Y-59283600D01*
X94383641Y-59827929D01*
X94691978Y-60289389D01*
X95087399Y-60553600D01*
X94691978Y-60817811D01*
X94383641Y-61279271D01*
X94275367Y-61823600D01*
X94383641Y-62367929D01*
X94691978Y-62829389D01*
X95087399Y-63093600D01*
X94691978Y-63357811D01*
X94506306Y-63635689D01*
X90650600Y-59779983D01*
X90650600Y-56819800D01*
X90592748Y-56528961D01*
X90592748Y-56528960D01*
X90428001Y-56282399D01*
X86821201Y-52675599D01*
X86574639Y-52510852D01*
X86283800Y-52453000D01*
X81102200Y-52453000D01*
X80811360Y-52510852D01*
X80564799Y-52675599D01*
X77531217Y-55709181D01*
X77083741Y-55523372D01*
X76234385Y-55522630D01*
X75449400Y-55846980D01*
X74848291Y-56447041D01*
X74522572Y-57231459D01*
X74521830Y-58080815D01*
X74846180Y-58865800D01*
X75446241Y-59466909D01*
X76230659Y-59792628D01*
X77080015Y-59793370D01*
X77865000Y-59469020D01*
X78466109Y-58868959D01*
X78791828Y-58084541D01*
X78792570Y-57235185D01*
X78606102Y-56783900D01*
X81417002Y-53973000D01*
X85968998Y-53973000D01*
X89130600Y-57134602D01*
X89130600Y-59226798D01*
X87024401Y-57120599D01*
X86777839Y-56955852D01*
X86487000Y-56898000D01*
X83884640Y-56898000D01*
X83884640Y-56158000D01*
X83840362Y-55922683D01*
X83701290Y-55706559D01*
X83489090Y-55561569D01*
X83237200Y-55510560D01*
X80237200Y-55510560D01*
X80001883Y-55554838D01*
X79785759Y-55693910D01*
X79640769Y-55906110D01*
X79589760Y-56158000D01*
X79589760Y-59158000D01*
X79634038Y-59393317D01*
X79773110Y-59609441D01*
X79985310Y-59754431D01*
X80237200Y-59805440D01*
X83237200Y-59805440D01*
X83472517Y-59761162D01*
X83688641Y-59622090D01*
X83833631Y-59409890D01*
X83884640Y-59158000D01*
X83884640Y-58418000D01*
X86172198Y-58418000D01*
X94338817Y-66584619D01*
X94275367Y-66903600D01*
X94277345Y-66913543D01*
X93069601Y-65705799D01*
X92823039Y-65541052D01*
X92532200Y-65483200D01*
X64770000Y-65483200D01*
X64479161Y-65541052D01*
X64232599Y-65705799D01*
X61686598Y-68251800D01*
X57856248Y-68251800D01*
X57741345Y-67973714D01*
X57225601Y-67457070D01*
X56551405Y-67177119D01*
X55821397Y-67176482D01*
X55146714Y-67455255D01*
X54630070Y-67970999D01*
X54350119Y-68645195D01*
X54349482Y-69375203D01*
X54515419Y-69776801D01*
X50079281Y-69776801D01*
X50170881Y-69556205D01*
X50171518Y-68826197D01*
X49892745Y-68151514D01*
X49377001Y-67634870D01*
X48702805Y-67354919D01*
X47972797Y-67354282D01*
X47298114Y-67633055D01*
X46781470Y-68148799D01*
X46501519Y-68822995D01*
X46500882Y-69553003D01*
X46779293Y-70226811D01*
X42853613Y-70226811D01*
X42460893Y-69834091D01*
X42576281Y-69556205D01*
X42576918Y-68826197D01*
X42298145Y-68151514D01*
X41782401Y-67634870D01*
X41108205Y-67354919D01*
X40378197Y-67354282D01*
X39703514Y-67633055D01*
X39186870Y-68148799D01*
X38906919Y-68822995D01*
X38906282Y-69553003D01*
X39185055Y-70227686D01*
X39700799Y-70744330D01*
X40374995Y-71024281D01*
X41105003Y-71024918D01*
X41386007Y-70908809D01*
X42001410Y-71524212D01*
X42247971Y-71688959D01*
X42538811Y-71746811D01*
X61299209Y-71746811D01*
X61590048Y-71688959D01*
X61836610Y-71524212D01*
X65341622Y-68019200D01*
X82214973Y-68019200D01*
X73532450Y-76701723D01*
X73063286Y-76441444D01*
X72957940Y-76417164D01*
X72720200Y-76537822D01*
X72720200Y-78181200D01*
X72740200Y-78181200D01*
X72740200Y-78435200D01*
X72720200Y-78435200D01*
X72720200Y-78455200D01*
X72466200Y-78455200D01*
X72466200Y-78435200D01*
X72446200Y-78435200D01*
X72446200Y-78181200D01*
X72466200Y-78181200D01*
X72466200Y-76537822D01*
X72228460Y-76417164D01*
X72123114Y-76441444D01*
X71653950Y-76701723D01*
X71098016Y-76145789D01*
X70851454Y-75981042D01*
X70560615Y-75923190D01*
X69545785Y-75923190D01*
X69254946Y-75981042D01*
X69008384Y-76145789D01*
X68452450Y-76701723D01*
X67983286Y-76441444D01*
X67877940Y-76417164D01*
X67640200Y-76537822D01*
X67640200Y-78181200D01*
X67660200Y-78181200D01*
X67660200Y-78435200D01*
X67640200Y-78435200D01*
X67640200Y-78455200D01*
X67386200Y-78455200D01*
X67386200Y-78435200D01*
X65100200Y-78435200D01*
X65100200Y-78455200D01*
X64846200Y-78455200D01*
X64846200Y-78435200D01*
X62560200Y-78435200D01*
X62560200Y-78455200D01*
X62306200Y-78455200D01*
X62306200Y-78435200D01*
X60020200Y-78435200D01*
X60020200Y-78455200D01*
X59766200Y-78455200D01*
X59766200Y-78435200D01*
X59746200Y-78435200D01*
X59746200Y-78181200D01*
X59766200Y-78181200D01*
X59766200Y-76537822D01*
X60020200Y-76537822D01*
X60020200Y-78181200D01*
X62306200Y-78181200D01*
X62306200Y-76537822D01*
X62560200Y-76537822D01*
X62560200Y-78181200D01*
X64846200Y-78181200D01*
X64846200Y-76537822D01*
X65100200Y-76537822D01*
X65100200Y-78181200D01*
X67386200Y-78181200D01*
X67386200Y-76537822D01*
X67148460Y-76417164D01*
X67043114Y-76441444D01*
X66517594Y-76732988D01*
X66243200Y-77078200D01*
X65968806Y-76732988D01*
X65443286Y-76441444D01*
X65337940Y-76417164D01*
X65100200Y-76537822D01*
X64846200Y-76537822D01*
X64608460Y-76417164D01*
X64503114Y-76441444D01*
X63977594Y-76732988D01*
X63703200Y-77078200D01*
X63428806Y-76732988D01*
X62903286Y-76441444D01*
X62797940Y-76417164D01*
X62560200Y-76537822D01*
X62306200Y-76537822D01*
X62068460Y-76417164D01*
X61963114Y-76441444D01*
X61437594Y-76732988D01*
X61163200Y-77078200D01*
X60888806Y-76732988D01*
X60363286Y-76441444D01*
X60257940Y-76417164D01*
X60020200Y-76537822D01*
X59766200Y-76537822D01*
X59528460Y-76417164D01*
X59423114Y-76441444D01*
X58953950Y-76701723D01*
X58398016Y-76145789D01*
X58151454Y-75981042D01*
X57860615Y-75923190D01*
X49225785Y-75923190D01*
X48934946Y-75981042D01*
X48688384Y-76145789D01*
X48141143Y-76693030D01*
X47780619Y-76452136D01*
X47193200Y-76335291D01*
X46777734Y-76417932D01*
X45706801Y-75346999D01*
X45460239Y-75182252D01*
X45169400Y-75124400D01*
X39020602Y-75124400D01*
X38138000Y-74241798D01*
X37891438Y-74077051D01*
X37600599Y-74019199D01*
X37166379Y-74019199D01*
X37186886Y-73969812D01*
X37187513Y-73251738D01*
X36913297Y-72588085D01*
X36405985Y-72079888D01*
X35742812Y-71804514D01*
X35024738Y-71803887D01*
X34361085Y-72078103D01*
X33852888Y-72585415D01*
X33577514Y-73248588D01*
X33576887Y-73966662D01*
X33851103Y-74630315D01*
X34358415Y-75138512D01*
X35021588Y-75413886D01*
X35739662Y-75414513D01*
X36003638Y-75305440D01*
X36014798Y-75316600D01*
X36261359Y-75481347D01*
X36309613Y-75490945D01*
X36552199Y-75539199D01*
X37285797Y-75539199D01*
X38168399Y-76421801D01*
X38414960Y-76586548D01*
X38705800Y-76644400D01*
X43817277Y-76644400D01*
X43657594Y-76732988D01*
X43283646Y-77203448D01*
X43118200Y-77781200D01*
X43118200Y-78181200D01*
X44526200Y-78181200D01*
X44526200Y-78161200D01*
X44780200Y-78161200D01*
X44780200Y-78181200D01*
X44800200Y-78181200D01*
X44800200Y-78435200D01*
X44780200Y-78435200D01*
X44780200Y-80078578D01*
X45017940Y-80199236D01*
X45123286Y-80174956D01*
X45648806Y-79883412D01*
X45917008Y-79545990D01*
X46107791Y-79831518D01*
X46605781Y-80164264D01*
X47193200Y-80281109D01*
X47658210Y-80188613D01*
X47658210Y-80915658D01*
X46700598Y-81873270D01*
X38269472Y-81873270D01*
X34831402Y-78435200D01*
X43118200Y-78435200D01*
X43118200Y-78835200D01*
X43283646Y-79412952D01*
X43657594Y-79883412D01*
X44183114Y-80174956D01*
X44288460Y-80199236D01*
X44526200Y-80078578D01*
X44526200Y-78435200D01*
X43118200Y-78435200D01*
X34831402Y-78435200D01*
X33138000Y-76741798D01*
X32891438Y-76577051D01*
X32600599Y-76519199D01*
X32166379Y-76519199D01*
X32186886Y-76469812D01*
X32187513Y-75751738D01*
X31913297Y-75088085D01*
X31405985Y-74579888D01*
X30742812Y-74304514D01*
X30024738Y-74303887D01*
X29361085Y-74578103D01*
X28852888Y-75085415D01*
X28577514Y-75748588D01*
X28576887Y-76466662D01*
X28851103Y-77130315D01*
X29358415Y-77638512D01*
X30021588Y-77913886D01*
X30739662Y-77914513D01*
X31003638Y-77805440D01*
X31014798Y-77816600D01*
X31261359Y-77981347D01*
X31309613Y-77990945D01*
X31552199Y-78039199D01*
X32285797Y-78039199D01*
X37417269Y-83170671D01*
X37663830Y-83335418D01*
X37712084Y-83345016D01*
X37954670Y-83393270D01*
X108273932Y-83393270D01*
X108564771Y-83335418D01*
X108811333Y-83170671D01*
X113333602Y-78648402D01*
X113498349Y-78401840D01*
X113556201Y-78111001D01*
X113556201Y-71874970D01*
X115095235Y-71874970D01*
X115255018Y-72193739D01*
X116045787Y-72503723D01*
X116894987Y-72487497D01*
X117604182Y-72193739D01*
X117763965Y-71874970D01*
X116429600Y-70540605D01*
X115095235Y-71874970D01*
X113556201Y-71874970D01*
X113556201Y-69977187D01*
X114286877Y-69977187D01*
X114303103Y-70826387D01*
X114596861Y-71535582D01*
X114915630Y-71695365D01*
X116249995Y-70361000D01*
X116609205Y-70361000D01*
X117943570Y-71695365D01*
X118262339Y-71535582D01*
X118572323Y-70744813D01*
X118557656Y-69977187D01*
X128006877Y-69977187D01*
X128023103Y-70826387D01*
X128316861Y-71535582D01*
X128635630Y-71695365D01*
X129969995Y-70361000D01*
X128635630Y-69026635D01*
X128316861Y-69186418D01*
X128006877Y-69977187D01*
X118557656Y-69977187D01*
X118556097Y-69895613D01*
X118262339Y-69186418D01*
X117943570Y-69026635D01*
X116609205Y-70361000D01*
X116249995Y-70361000D01*
X114915630Y-69026635D01*
X114596861Y-69186418D01*
X114286877Y-69977187D01*
X113556201Y-69977187D01*
X113556201Y-68847030D01*
X115095235Y-68847030D01*
X116429600Y-70181395D01*
X117763965Y-68847030D01*
X117604182Y-68528261D01*
X116813413Y-68218277D01*
X115964213Y-68234503D01*
X115255018Y-68528261D01*
X115095235Y-68847030D01*
X113556201Y-68847030D01*
X113556201Y-50236001D01*
X113498349Y-49945162D01*
X113333602Y-49698600D01*
X113077583Y-49442581D01*
X113141033Y-49123600D01*
X113032759Y-48579271D01*
X112724422Y-48117811D01*
X112329001Y-47853600D01*
X112724422Y-47589389D01*
X113032759Y-47127929D01*
X113141033Y-46583600D01*
X113032759Y-46039271D01*
X112724422Y-45577811D01*
X112329370Y-45313846D01*
X112345462Y-45309125D01*
X112779391Y-44959586D01*
X113046527Y-44470596D01*
X113063210Y-44390660D01*
X112941052Y-44170600D01*
X111455200Y-44170600D01*
X111455200Y-44190600D01*
X111201200Y-44190600D01*
X111201200Y-44170600D01*
X111181200Y-44170600D01*
X111181200Y-43916600D01*
X111201200Y-43916600D01*
X111201200Y-43896600D01*
X111455200Y-43896600D01*
X111455200Y-43916600D01*
X112941052Y-43916600D01*
X113063210Y-43696540D01*
X113046527Y-43616604D01*
X112779391Y-43127614D01*
X112345462Y-42778075D01*
X112329370Y-42773354D01*
X112681120Y-42538322D01*
X128374298Y-58231500D01*
X120289800Y-66315998D01*
X120266302Y-66306241D01*
X119715315Y-66305760D01*
X119206085Y-66516169D01*
X118816139Y-66905436D01*
X118604841Y-67414298D01*
X118604360Y-67965285D01*
X118814769Y-68474515D01*
X119204036Y-68864461D01*
X119712898Y-69075759D01*
X120263885Y-69076240D01*
X120773115Y-68865831D01*
X120976783Y-68662517D01*
X121737688Y-68662517D01*
X121805677Y-68903460D01*
X122324771Y-69088201D01*
X122875048Y-69060230D01*
X123253523Y-68903460D01*
X123321512Y-68662517D01*
X123767688Y-68662517D01*
X123835677Y-68903460D01*
X124354771Y-69088201D01*
X124905048Y-69060230D01*
X125283523Y-68903460D01*
X125351512Y-68662517D01*
X126307688Y-68662517D01*
X126375677Y-68903460D01*
X126894771Y-69088201D01*
X127445048Y-69060230D01*
X127823523Y-68903460D01*
X127891512Y-68662517D01*
X127099600Y-67870605D01*
X126307688Y-68662517D01*
X125351512Y-68662517D01*
X124559600Y-67870605D01*
X123767688Y-68662517D01*
X123321512Y-68662517D01*
X122529600Y-67870605D01*
X121737688Y-68662517D01*
X120976783Y-68662517D01*
X121163061Y-68476564D01*
X121252977Y-68260021D01*
X121317140Y-68414923D01*
X121558083Y-68482912D01*
X122349995Y-67691000D01*
X122709205Y-67691000D01*
X123286337Y-68268132D01*
X123347140Y-68414923D01*
X123466930Y-68448725D01*
X123501117Y-68482912D01*
X123544600Y-68470642D01*
X123588083Y-68482912D01*
X123622270Y-68448725D01*
X123742060Y-68414923D01*
X123789571Y-68281424D01*
X124379995Y-67691000D01*
X124739205Y-67691000D01*
X125531117Y-68482912D01*
X125772060Y-68414923D01*
X125825242Y-68265489D01*
X125887140Y-68414923D01*
X126128083Y-68482912D01*
X126919995Y-67691000D01*
X127279205Y-67691000D01*
X128071117Y-68482912D01*
X128312060Y-68414923D01*
X128496801Y-67895829D01*
X128468830Y-67345552D01*
X128312060Y-66967077D01*
X128071117Y-66899088D01*
X127279205Y-67691000D01*
X126919995Y-67691000D01*
X126128083Y-66899088D01*
X125887140Y-66967077D01*
X125833958Y-67116511D01*
X125772060Y-66967077D01*
X125531117Y-66899088D01*
X124739205Y-67691000D01*
X124379995Y-67691000D01*
X123802863Y-67113868D01*
X123742060Y-66967077D01*
X123622270Y-66933275D01*
X123588083Y-66899088D01*
X123544600Y-66911358D01*
X123501117Y-66899088D01*
X123466930Y-66933275D01*
X123347140Y-66967077D01*
X123299629Y-67100576D01*
X122709205Y-67691000D01*
X122349995Y-67691000D01*
X122335853Y-67676858D01*
X122515458Y-67497253D01*
X122529600Y-67511395D01*
X123321512Y-66719483D01*
X123767688Y-66719483D01*
X124559600Y-67511395D01*
X125351512Y-66719483D01*
X126307688Y-66719483D01*
X127099600Y-67511395D01*
X127891512Y-66719483D01*
X127823523Y-66478540D01*
X127304429Y-66293799D01*
X126754152Y-66321770D01*
X126375677Y-66478540D01*
X126307688Y-66719483D01*
X125351512Y-66719483D01*
X125283523Y-66478540D01*
X124764429Y-66293799D01*
X124214152Y-66321770D01*
X123835677Y-66478540D01*
X123767688Y-66719483D01*
X123321512Y-66719483D01*
X123253523Y-66478540D01*
X122734429Y-66293799D01*
X122446992Y-66308410D01*
X130115991Y-58639411D01*
X130280738Y-58392849D01*
X130338590Y-58102010D01*
X130338590Y-23711390D01*
X130280738Y-23420551D01*
X130115991Y-23173989D01*
X125289011Y-18347009D01*
X125042449Y-18182262D01*
X124751610Y-18124410D01*
X77887476Y-18124410D01*
X77596637Y-18182262D01*
X77350075Y-18347009D01*
X71827199Y-23869885D01*
X71662452Y-24116447D01*
X71617953Y-24340158D01*
X71275571Y-24568930D01*
X71094600Y-24839772D01*
X70913629Y-24568930D01*
X70427448Y-24244074D01*
X69853959Y-24130000D01*
X69795241Y-24130000D01*
X69221752Y-24244074D01*
X68735571Y-24568930D01*
X68554608Y-24839761D01*
X68173090Y-24421779D01*
X67643627Y-24173632D01*
X67411600Y-24294131D01*
X67411600Y-25501600D01*
X67431600Y-25501600D01*
X67431600Y-25755600D01*
X67411600Y-25755600D01*
X67411600Y-28041600D01*
X67431600Y-28041600D01*
X67431600Y-28295600D01*
X67411600Y-28295600D01*
X67411600Y-28315600D01*
X67157600Y-28315600D01*
X67157600Y-28295600D01*
X65944750Y-28295600D01*
X65786000Y-28454350D01*
X65786000Y-29158510D01*
X65882673Y-29391899D01*
X66061302Y-29570527D01*
X66294691Y-29667200D01*
X66998850Y-29667200D01*
X67157598Y-29508452D01*
X67157598Y-29667200D01*
X67168070Y-29667200D01*
X61775270Y-35060000D01*
X57240997Y-35060000D01*
X57038955Y-34925000D01*
X57270209Y-34770481D01*
X57602955Y-34272491D01*
X57719800Y-33685072D01*
X57719800Y-33624928D01*
X57602955Y-33037509D01*
X57270209Y-32539519D01*
X56772219Y-32206773D01*
X56234808Y-32099875D01*
X54703600Y-30568668D01*
X54703600Y-28060240D01*
X54768600Y-28060240D01*
X55003917Y-28015962D01*
X55220041Y-27876890D01*
X55365031Y-27664690D01*
X55416040Y-27412800D01*
X55416040Y-27178690D01*
X65786000Y-27178690D01*
X65786000Y-27882850D01*
X65944750Y-28041600D01*
X67157600Y-28041600D01*
X67157600Y-25755600D01*
X65950783Y-25755600D01*
X65829642Y-25987626D01*
X66001912Y-26403547D01*
X66258720Y-26684900D01*
X66061302Y-26766673D01*
X65882673Y-26945301D01*
X65786000Y-27178690D01*
X55416040Y-27178690D01*
X55416040Y-25269574D01*
X65829642Y-25269574D01*
X65950783Y-25501600D01*
X67157600Y-25501600D01*
X67157600Y-24294131D01*
X66925573Y-24173632D01*
X66396110Y-24421779D01*
X66001912Y-24853653D01*
X65829642Y-25269574D01*
X55416040Y-25269574D01*
X55416040Y-25012800D01*
X55371762Y-24777483D01*
X55232690Y-24561359D01*
X55020490Y-24416369D01*
X54768600Y-24365360D01*
X52368600Y-24365360D01*
X52133283Y-24409638D01*
X51917159Y-24548710D01*
X51772169Y-24760910D01*
X51721160Y-25012800D01*
X51721160Y-25407088D01*
X51625145Y-25174714D01*
X51109401Y-24658070D01*
X50435205Y-24378119D01*
X49705197Y-24377482D01*
X49030514Y-24656255D01*
X48513870Y-25171999D01*
X48318465Y-25642585D01*
X48125145Y-25174714D01*
X47609401Y-24658070D01*
X46935205Y-24378119D01*
X46205197Y-24377482D01*
X45530514Y-24656255D01*
X45013870Y-25171999D01*
X44823792Y-25629757D01*
X44653388Y-25218365D01*
X44365775Y-25095230D01*
X43248205Y-26212800D01*
X44365775Y-27330370D01*
X44653388Y-27207235D01*
X44816804Y-26778342D01*
X45012055Y-27250886D01*
X45433600Y-27673167D01*
X45433600Y-27713468D01*
X40970993Y-32176075D01*
X40433581Y-32282973D01*
X39935591Y-32615719D01*
X39602845Y-33113709D01*
X39486000Y-33701128D01*
X39486000Y-33761272D01*
X39602845Y-34348691D01*
X39935591Y-34846681D01*
X40166845Y-35001200D01*
X39964803Y-35136200D01*
X28153000Y-35136200D01*
X27718655Y-35222596D01*
X27350434Y-35468634D01*
X25366600Y-37452468D01*
X25366600Y-31641640D01*
X25431600Y-31641640D01*
X25666917Y-31597362D01*
X25883041Y-31458290D01*
X26028031Y-31246090D01*
X26079040Y-30994200D01*
X26079040Y-28594200D01*
X26034762Y-28358883D01*
X25895690Y-28142759D01*
X25683490Y-27997769D01*
X25431600Y-27946760D01*
X23031600Y-27946760D01*
X22796283Y-27991038D01*
X22580159Y-28130110D01*
X22435169Y-28342310D01*
X22384160Y-28594200D01*
X22384160Y-28963381D01*
X22316388Y-28799765D01*
X22028775Y-28676630D01*
X20911205Y-29794200D01*
X20551995Y-29794200D01*
X19434425Y-28676630D01*
X19146812Y-28799765D01*
X18886893Y-29481934D01*
X14553000Y-29481934D01*
X14553000Y-28497025D01*
X19614030Y-28497025D01*
X20731600Y-29614595D01*
X21849170Y-28497025D01*
X21726035Y-28209412D01*
X21043866Y-27949493D01*
X20314157Y-27970414D01*
X19737165Y-28209412D01*
X19614030Y-28497025D01*
X14553000Y-28497025D01*
X14553000Y-27509975D01*
X41951030Y-27509975D01*
X42074165Y-27797588D01*
X42756334Y-28057507D01*
X43486043Y-28036586D01*
X44063035Y-27797588D01*
X44186170Y-27509975D01*
X43068600Y-26392405D01*
X41951030Y-27509975D01*
X14553000Y-27509975D01*
X14553000Y-25900534D01*
X41223893Y-25900534D01*
X41244814Y-26630243D01*
X41483812Y-27207235D01*
X41771425Y-27330370D01*
X42888995Y-26212800D01*
X41771425Y-25095230D01*
X41483812Y-25218365D01*
X41223893Y-25900534D01*
X14553000Y-25900534D01*
X14553000Y-24915625D01*
X41951030Y-24915625D01*
X43068600Y-26033195D01*
X44186170Y-24915625D01*
X44063035Y-24628012D01*
X43380866Y-24368093D01*
X42651157Y-24389014D01*
X42074165Y-24628012D01*
X41951030Y-24915625D01*
X14553000Y-24915625D01*
X14553000Y-17829600D01*
X131090600Y-17829600D01*
X131090600Y-68436696D01*
X131090600Y-68436696D01*
G37*
X131090600Y-68436696D02*
X130533413Y-68218277D01*
X129684213Y-68234503D01*
X128975018Y-68528261D01*
X128815235Y-68847030D01*
X130149600Y-70181395D01*
X130163743Y-70167253D01*
X130343348Y-70346858D01*
X130329205Y-70361000D01*
X130343348Y-70375143D01*
X130163743Y-70554748D01*
X130149600Y-70540605D01*
X128815235Y-71874970D01*
X128975018Y-72193739D01*
X129765787Y-72503723D01*
X130614987Y-72487497D01*
X131090600Y-72290492D01*
X131090600Y-86412000D01*
X14553000Y-86412000D01*
X14553000Y-75367636D01*
X22736637Y-75133148D01*
X22785741Y-75121731D01*
X22826534Y-75092110D01*
X22852588Y-75048951D01*
X22859799Y-74999057D01*
X22847030Y-74950288D01*
X22816293Y-74910329D01*
X22772431Y-74885476D01*
X22729363Y-74879252D01*
X14553000Y-75113532D01*
X14553000Y-72384686D01*
X29286320Y-72384686D01*
X29405786Y-72669184D01*
X30077090Y-72924094D01*
X30794846Y-72902704D01*
X31358614Y-72669184D01*
X31478080Y-72384686D01*
X30382200Y-71288805D01*
X29286320Y-72384686D01*
X14553000Y-72384686D01*
X14553000Y-70804090D01*
X28567306Y-70804090D01*
X28588696Y-71521846D01*
X28822216Y-72085614D01*
X29106714Y-72205080D01*
X30202595Y-71109200D01*
X30561805Y-71109200D01*
X31657686Y-72205080D01*
X31942184Y-72085614D01*
X32197094Y-71414310D01*
X32175704Y-70696554D01*
X31942184Y-70132786D01*
X31657686Y-70013320D01*
X30561805Y-71109200D01*
X30202595Y-71109200D01*
X29106714Y-70013320D01*
X28822216Y-70132786D01*
X28567306Y-70804090D01*
X14553000Y-70804090D01*
X14553000Y-69833714D01*
X29286320Y-69833714D01*
X30382200Y-70929595D01*
X31478080Y-69833714D01*
X31358614Y-69549216D01*
X30687310Y-69294306D01*
X29969554Y-69315696D01*
X29405786Y-69549216D01*
X29286320Y-69833714D01*
X14553000Y-69833714D01*
X14553000Y-66232922D01*
X18503825Y-66232922D01*
X18718466Y-66751132D01*
X19180608Y-67245812D01*
X19796877Y-67525983D01*
X20066000Y-67408404D01*
X20066000Y-65963800D01*
X20320000Y-65963800D01*
X20320000Y-67408404D01*
X20589123Y-67525983D01*
X21205392Y-67245812D01*
X21667534Y-66751132D01*
X21882175Y-66232922D01*
X21764125Y-65963800D01*
X20320000Y-65963800D01*
X20066000Y-65963800D01*
X18621875Y-65963800D01*
X18503825Y-66232922D01*
X14553000Y-66232922D01*
X14553000Y-65440678D01*
X18503825Y-65440678D01*
X18621875Y-65709800D01*
X20066000Y-65709800D01*
X20066000Y-64265196D01*
X20320000Y-64265196D01*
X20320000Y-65709800D01*
X21764125Y-65709800D01*
X21882175Y-65440678D01*
X21667534Y-64922468D01*
X21205392Y-64427788D01*
X20589123Y-64147617D01*
X20320000Y-64265196D01*
X20066000Y-64265196D01*
X19796877Y-64147617D01*
X19180608Y-64427788D01*
X18718466Y-64922468D01*
X18503825Y-65440678D01*
X14553000Y-65440678D01*
X14553000Y-56096000D01*
X19913960Y-56096000D01*
X19913960Y-57696000D01*
X19958238Y-57931317D01*
X20097310Y-58147441D01*
X20309510Y-58292431D01*
X20561400Y-58343440D01*
X22161400Y-58343440D01*
X22396717Y-58299162D01*
X22612841Y-58160090D01*
X22617377Y-58153452D01*
X23144623Y-58342965D01*
X23714854Y-58315778D01*
X24115405Y-58149864D01*
X24189539Y-57903745D01*
X23361400Y-57075605D01*
X23347258Y-57089748D01*
X23167653Y-56910143D01*
X23181795Y-56896000D01*
X23541005Y-56896000D01*
X24369145Y-57724139D01*
X24615264Y-57650005D01*
X24808365Y-57112777D01*
X24781178Y-56542546D01*
X24615264Y-56141995D01*
X24369145Y-56067861D01*
X23541005Y-56896000D01*
X23181795Y-56896000D01*
X23167652Y-56881858D01*
X23347258Y-56702253D01*
X23361400Y-56716395D01*
X24189539Y-55888255D01*
X24115405Y-55642136D01*
X23578177Y-55449035D01*
X23117400Y-55471004D01*
X23117400Y-51482907D01*
X23207554Y-51422668D01*
X23655190Y-51670929D01*
X23728000Y-51683310D01*
X23930400Y-51559624D01*
X23930400Y-50317400D01*
X23910400Y-50317400D01*
X23910400Y-50063400D01*
X23930400Y-50063400D01*
X23930400Y-48821176D01*
X23728000Y-48697490D01*
X23655190Y-48709871D01*
X23207554Y-48958132D01*
X22858715Y-48725046D01*
X22357400Y-48625328D01*
X21856085Y-48725046D01*
X21507246Y-48958132D01*
X21059610Y-48709871D01*
X20986800Y-48697490D01*
X20784400Y-48821176D01*
X20784400Y-50063400D01*
X20804400Y-50063400D01*
X20804400Y-50317400D01*
X20784400Y-50317400D01*
X20784400Y-51559624D01*
X20986800Y-51683310D01*
X21059610Y-51670929D01*
X21507246Y-51422668D01*
X21597400Y-51482907D01*
X21597400Y-55448560D01*
X20561400Y-55448560D01*
X20326083Y-55492838D01*
X20109959Y-55631910D01*
X19964969Y-55844110D01*
X19913960Y-56096000D01*
X14553000Y-56096000D01*
X14553000Y-50524276D01*
X19343523Y-50524276D01*
X19485201Y-51018787D01*
X19805336Y-51421438D01*
X20255190Y-51670929D01*
X20328000Y-51683310D01*
X20530400Y-51559624D01*
X20530400Y-50317400D01*
X19501417Y-50317400D01*
X19343523Y-50524276D01*
X14553000Y-50524276D01*
X14553000Y-49856524D01*
X19343523Y-49856524D01*
X19501417Y-50063400D01*
X20530400Y-50063400D01*
X20530400Y-48821176D01*
X20328000Y-48697490D01*
X20255190Y-48709871D01*
X19805336Y-48959362D01*
X19485201Y-49362013D01*
X19343523Y-49856524D01*
X14553000Y-49856524D01*
X14553000Y-42241975D01*
X19561830Y-42241975D01*
X19684965Y-42529588D01*
X20367134Y-42789507D01*
X21096843Y-42768586D01*
X21673835Y-42529588D01*
X21796970Y-42241975D01*
X20679400Y-41124405D01*
X19561830Y-42241975D01*
X14553000Y-42241975D01*
X14553000Y-40632534D01*
X18834693Y-40632534D01*
X18855614Y-41362243D01*
X19094612Y-41939235D01*
X19382225Y-42062370D01*
X20499795Y-40944800D01*
X20859005Y-40944800D01*
X21976575Y-42062370D01*
X22264188Y-41939235D01*
X22524107Y-41257066D01*
X22503186Y-40527357D01*
X22264188Y-39950365D01*
X21976575Y-39827230D01*
X20859005Y-40944800D01*
X20499795Y-40944800D01*
X19382225Y-39827230D01*
X19094612Y-39950365D01*
X18834693Y-40632534D01*
X14553000Y-40632534D01*
X14553000Y-39647625D01*
X19561830Y-39647625D01*
X20679400Y-40765195D01*
X21796970Y-39647625D01*
X21673835Y-39360012D01*
X20991666Y-39100093D01*
X20261957Y-39121014D01*
X19684965Y-39360012D01*
X19561830Y-39647625D01*
X14553000Y-39647625D01*
X14553000Y-31091375D01*
X19614030Y-31091375D01*
X19737165Y-31378988D01*
X20419334Y-31638907D01*
X21149043Y-31617986D01*
X21726035Y-31378988D01*
X21849170Y-31091375D01*
X20731600Y-29973805D01*
X19614030Y-31091375D01*
X14553000Y-31091375D01*
X14553000Y-29481934D01*
X18886893Y-29481934D01*
X18907814Y-30211643D01*
X19146812Y-30788635D01*
X19434425Y-30911770D01*
X20551995Y-29794200D01*
X20911205Y-29794200D01*
X22028775Y-30911770D01*
X22316388Y-30788635D01*
X22384160Y-30610764D01*
X22384160Y-30994200D01*
X22428438Y-31229517D01*
X22567510Y-31445641D01*
X22779710Y-31590631D01*
X23031600Y-31641640D01*
X23096600Y-31641640D01*
X23096600Y-39497000D01*
X23182997Y-39931346D01*
X23383508Y-40231431D01*
X23429034Y-40299566D01*
X23831960Y-40702492D01*
X23831960Y-42144800D01*
X23876238Y-42380117D01*
X24015310Y-42596241D01*
X24227510Y-42741231D01*
X24479400Y-42792240D01*
X25921708Y-42792240D01*
X26322400Y-43192932D01*
X26322400Y-48767599D01*
X26258715Y-48725046D01*
X25757400Y-48625328D01*
X25256085Y-48725046D01*
X24907246Y-48958132D01*
X24459610Y-48709871D01*
X24386800Y-48697490D01*
X24184400Y-48821176D01*
X24184400Y-50063400D01*
X24204400Y-50063400D01*
X24204400Y-50317400D01*
X24184400Y-50317400D01*
X24184400Y-51559624D01*
X24386800Y-51683310D01*
X24459610Y-51670929D01*
X24907246Y-51422668D01*
X24997400Y-51482907D01*
X24997400Y-52188640D01*
X25055252Y-52479479D01*
X25219999Y-52726041D01*
X27605811Y-55111853D01*
X27549116Y-55248389D01*
X27548566Y-55878925D01*
X27606033Y-56018005D01*
X26437399Y-57186639D01*
X26272652Y-57433201D01*
X26214800Y-57724040D01*
X26214800Y-61108600D01*
X26272652Y-61399439D01*
X26437399Y-61646001D01*
X28961311Y-64169913D01*
X28801559Y-64272710D01*
X28656569Y-64484910D01*
X28605560Y-64736800D01*
X28605560Y-66936800D01*
X28649838Y-67172117D01*
X28788910Y-67388241D01*
X29001110Y-67533231D01*
X29253000Y-67584240D01*
X31453000Y-67584240D01*
X31688317Y-67539962D01*
X31904441Y-67400890D01*
X32049431Y-67188690D01*
X32100440Y-66936800D01*
X32100440Y-64736800D01*
X32056162Y-64501483D01*
X31917090Y-64285359D01*
X31704890Y-64140369D01*
X31453000Y-64089360D01*
X30983920Y-64089360D01*
X30890401Y-63949399D01*
X29089684Y-62148682D01*
X29447685Y-62148994D01*
X30030435Y-61908207D01*
X30476680Y-61462740D01*
X30534390Y-61323760D01*
X61470120Y-61323760D01*
X61760959Y-61265908D01*
X62007521Y-61101161D01*
X64556567Y-58552115D01*
X64686180Y-58865800D01*
X65286241Y-59466909D01*
X66070659Y-59792628D01*
X66920015Y-59793370D01*
X67705000Y-59469020D01*
X68306109Y-58868959D01*
X68631828Y-58084541D01*
X68632570Y-57235185D01*
X68308220Y-56450200D01*
X67708159Y-55849091D01*
X66923741Y-55523372D01*
X66074385Y-55522630D01*
X65289400Y-55846980D01*
X64688291Y-56447041D01*
X64501036Y-56898000D01*
X64375880Y-56898000D01*
X64085040Y-56955852D01*
X63838479Y-57120599D01*
X61155318Y-59803760D01*
X43324644Y-59803760D01*
X54351864Y-48776540D01*
X94353190Y-48776540D01*
X94475348Y-48996600D01*
X95961200Y-48996600D01*
X95961200Y-47701200D01*
X96215200Y-47701200D01*
X96215200Y-48996600D01*
X97701052Y-48996600D01*
X97823210Y-48776540D01*
X97806527Y-48696604D01*
X97539391Y-48207614D01*
X97105462Y-47858075D01*
X96570800Y-47701200D01*
X96215200Y-47701200D01*
X95961200Y-47701200D01*
X95605600Y-47701200D01*
X95070938Y-47858075D01*
X94637009Y-48207614D01*
X94369873Y-48696604D01*
X94353190Y-48776540D01*
X54351864Y-48776540D01*
X72902001Y-30226404D01*
X73066747Y-29979842D01*
X73066748Y-29979841D01*
X73124600Y-29689002D01*
X73124600Y-29448120D01*
X73453629Y-29228270D01*
X73634600Y-28957428D01*
X73815571Y-29228270D01*
X74144600Y-29448120D01*
X74144600Y-40386000D01*
X74202452Y-40676839D01*
X74367199Y-40923401D01*
X77973999Y-44530201D01*
X78220560Y-44694948D01*
X78268814Y-44704546D01*
X78511400Y-44752800D01*
X94439813Y-44752800D01*
X94502080Y-44765186D01*
X94691978Y-45049389D01*
X95153438Y-45357726D01*
X95697767Y-45466000D01*
X96478633Y-45466000D01*
X97022962Y-45357726D01*
X97484422Y-45049389D01*
X97792759Y-44587929D01*
X97901033Y-44043600D01*
X97792759Y-43499271D01*
X97484422Y-43037811D01*
X97089001Y-42773600D01*
X97484422Y-42509389D01*
X97670094Y-42231511D01*
X103380000Y-47941417D01*
X103380000Y-67691000D01*
X103437852Y-67981839D01*
X103602599Y-68228401D01*
X109578817Y-74204619D01*
X109515367Y-74523600D01*
X109623641Y-75067929D01*
X109931978Y-75529389D01*
X110103660Y-75644103D01*
X109949883Y-75673038D01*
X109733759Y-75812110D01*
X109588769Y-76024310D01*
X109537760Y-76276200D01*
X109537760Y-76303600D01*
X104607202Y-76303600D01*
X101986655Y-73683053D01*
X101986655Y-54744655D01*
X101928803Y-54453816D01*
X101764056Y-54207254D01*
X97570591Y-50013789D01*
X97558059Y-50005415D01*
X97806527Y-49550596D01*
X97823210Y-49470660D01*
X97701052Y-49250600D01*
X96215200Y-49250600D01*
X96215200Y-49270600D01*
X95961200Y-49270600D01*
X95961200Y-49250600D01*
X94475348Y-49250600D01*
X94353190Y-49470660D01*
X94369873Y-49550596D01*
X94501310Y-49791190D01*
X78684010Y-49791190D01*
X78393171Y-49849042D01*
X78146609Y-50013789D01*
X72451217Y-55709181D01*
X72003741Y-55523372D01*
X71154385Y-55522630D01*
X70369400Y-55846980D01*
X69768291Y-56447041D01*
X69442572Y-57231459D01*
X69441830Y-58080815D01*
X69766180Y-58865800D01*
X70366241Y-59466909D01*
X71150659Y-59792628D01*
X72000015Y-59793370D01*
X72785000Y-59469020D01*
X73386109Y-58868959D01*
X73711828Y-58084541D01*
X73712570Y-57235185D01*
X73526102Y-56783900D01*
X78998812Y-51311190D01*
X94345466Y-51311190D01*
X94275367Y-51663600D01*
X94383641Y-52207929D01*
X94691978Y-52669389D01*
X95087399Y-52933600D01*
X94691978Y-53197811D01*
X94383641Y-53659271D01*
X94275367Y-54203600D01*
X94383641Y-54747929D01*
X94691978Y-55209389D01*
X95087399Y-55473600D01*
X94691978Y-55737811D01*
X94383641Y-56199271D01*
X94275367Y-56743600D01*
X94383641Y-57287929D01*
X94691978Y-57749389D01*
X95087399Y-58013600D01*
X94691978Y-58277811D01*
X94383641Y-58739271D01*
X94275367Y-59283600D01*
X94383641Y-59827929D01*
X94691978Y-60289389D01*
X95087399Y-60553600D01*
X94691978Y-60817811D01*
X94383641Y-61279271D01*
X94275367Y-61823600D01*
X94383641Y-62367929D01*
X94691978Y-62829389D01*
X95087399Y-63093600D01*
X94691978Y-63357811D01*
X94506306Y-63635689D01*
X90650600Y-59779983D01*
X90650600Y-56819800D01*
X90592748Y-56528961D01*
X90592748Y-56528960D01*
X90428001Y-56282399D01*
X86821201Y-52675599D01*
X86574639Y-52510852D01*
X86283800Y-52453000D01*
X81102200Y-52453000D01*
X80811360Y-52510852D01*
X80564799Y-52675599D01*
X77531217Y-55709181D01*
X77083741Y-55523372D01*
X76234385Y-55522630D01*
X75449400Y-55846980D01*
X74848291Y-56447041D01*
X74522572Y-57231459D01*
X74521830Y-58080815D01*
X74846180Y-58865800D01*
X75446241Y-59466909D01*
X76230659Y-59792628D01*
X77080015Y-59793370D01*
X77865000Y-59469020D01*
X78466109Y-58868959D01*
X78791828Y-58084541D01*
X78792570Y-57235185D01*
X78606102Y-56783900D01*
X81417002Y-53973000D01*
X85968998Y-53973000D01*
X89130600Y-57134602D01*
X89130600Y-59226798D01*
X87024401Y-57120599D01*
X86777839Y-56955852D01*
X86487000Y-56898000D01*
X83884640Y-56898000D01*
X83884640Y-56158000D01*
X83840362Y-55922683D01*
X83701290Y-55706559D01*
X83489090Y-55561569D01*
X83237200Y-55510560D01*
X80237200Y-55510560D01*
X80001883Y-55554838D01*
X79785759Y-55693910D01*
X79640769Y-55906110D01*
X79589760Y-56158000D01*
X79589760Y-59158000D01*
X79634038Y-59393317D01*
X79773110Y-59609441D01*
X79985310Y-59754431D01*
X80237200Y-59805440D01*
X83237200Y-59805440D01*
X83472517Y-59761162D01*
X83688641Y-59622090D01*
X83833631Y-59409890D01*
X83884640Y-59158000D01*
X83884640Y-58418000D01*
X86172198Y-58418000D01*
X94338817Y-66584619D01*
X94275367Y-66903600D01*
X94277345Y-66913543D01*
X93069601Y-65705799D01*
X92823039Y-65541052D01*
X92532200Y-65483200D01*
X64770000Y-65483200D01*
X64479161Y-65541052D01*
X64232599Y-65705799D01*
X61686598Y-68251800D01*
X57856248Y-68251800D01*
X57741345Y-67973714D01*
X57225601Y-67457070D01*
X56551405Y-67177119D01*
X55821397Y-67176482D01*
X55146714Y-67455255D01*
X54630070Y-67970999D01*
X54350119Y-68645195D01*
X54349482Y-69375203D01*
X54515419Y-69776801D01*
X50079281Y-69776801D01*
X50170881Y-69556205D01*
X50171518Y-68826197D01*
X49892745Y-68151514D01*
X49377001Y-67634870D01*
X48702805Y-67354919D01*
X47972797Y-67354282D01*
X47298114Y-67633055D01*
X46781470Y-68148799D01*
X46501519Y-68822995D01*
X46500882Y-69553003D01*
X46779293Y-70226811D01*
X42853613Y-70226811D01*
X42460893Y-69834091D01*
X42576281Y-69556205D01*
X42576918Y-68826197D01*
X42298145Y-68151514D01*
X41782401Y-67634870D01*
X41108205Y-67354919D01*
X40378197Y-67354282D01*
X39703514Y-67633055D01*
X39186870Y-68148799D01*
X38906919Y-68822995D01*
X38906282Y-69553003D01*
X39185055Y-70227686D01*
X39700799Y-70744330D01*
X40374995Y-71024281D01*
X41105003Y-71024918D01*
X41386007Y-70908809D01*
X42001410Y-71524212D01*
X42247971Y-71688959D01*
X42538811Y-71746811D01*
X61299209Y-71746811D01*
X61590048Y-71688959D01*
X61836610Y-71524212D01*
X65341622Y-68019200D01*
X82214973Y-68019200D01*
X73532450Y-76701723D01*
X73063286Y-76441444D01*
X72957940Y-76417164D01*
X72720200Y-76537822D01*
X72720200Y-78181200D01*
X72740200Y-78181200D01*
X72740200Y-78435200D01*
X72720200Y-78435200D01*
X72720200Y-78455200D01*
X72466200Y-78455200D01*
X72466200Y-78435200D01*
X72446200Y-78435200D01*
X72446200Y-78181200D01*
X72466200Y-78181200D01*
X72466200Y-76537822D01*
X72228460Y-76417164D01*
X72123114Y-76441444D01*
X71653950Y-76701723D01*
X71098016Y-76145789D01*
X70851454Y-75981042D01*
X70560615Y-75923190D01*
X69545785Y-75923190D01*
X69254946Y-75981042D01*
X69008384Y-76145789D01*
X68452450Y-76701723D01*
X67983286Y-76441444D01*
X67877940Y-76417164D01*
X67640200Y-76537822D01*
X67640200Y-78181200D01*
X67660200Y-78181200D01*
X67660200Y-78435200D01*
X67640200Y-78435200D01*
X67640200Y-78455200D01*
X67386200Y-78455200D01*
X67386200Y-78435200D01*
X65100200Y-78435200D01*
X65100200Y-78455200D01*
X64846200Y-78455200D01*
X64846200Y-78435200D01*
X62560200Y-78435200D01*
X62560200Y-78455200D01*
X62306200Y-78455200D01*
X62306200Y-78435200D01*
X60020200Y-78435200D01*
X60020200Y-78455200D01*
X59766200Y-78455200D01*
X59766200Y-78435200D01*
X59746200Y-78435200D01*
X59746200Y-78181200D01*
X59766200Y-78181200D01*
X59766200Y-76537822D01*
X60020200Y-76537822D01*
X60020200Y-78181200D01*
X62306200Y-78181200D01*
X62306200Y-76537822D01*
X62560200Y-76537822D01*
X62560200Y-78181200D01*
X64846200Y-78181200D01*
X64846200Y-76537822D01*
X65100200Y-76537822D01*
X65100200Y-78181200D01*
X67386200Y-78181200D01*
X67386200Y-76537822D01*
X67148460Y-76417164D01*
X67043114Y-76441444D01*
X66517594Y-76732988D01*
X66243200Y-77078200D01*
X65968806Y-76732988D01*
X65443286Y-76441444D01*
X65337940Y-76417164D01*
X65100200Y-76537822D01*
X64846200Y-76537822D01*
X64608460Y-76417164D01*
X64503114Y-76441444D01*
X63977594Y-76732988D01*
X63703200Y-77078200D01*
X63428806Y-76732988D01*
X62903286Y-76441444D01*
X62797940Y-76417164D01*
X62560200Y-76537822D01*
X62306200Y-76537822D01*
X62068460Y-76417164D01*
X61963114Y-76441444D01*
X61437594Y-76732988D01*
X61163200Y-77078200D01*
X60888806Y-76732988D01*
X60363286Y-76441444D01*
X60257940Y-76417164D01*
X60020200Y-76537822D01*
X59766200Y-76537822D01*
X59528460Y-76417164D01*
X59423114Y-76441444D01*
X58953950Y-76701723D01*
X58398016Y-76145789D01*
X58151454Y-75981042D01*
X57860615Y-75923190D01*
X49225785Y-75923190D01*
X48934946Y-75981042D01*
X48688384Y-76145789D01*
X48141143Y-76693030D01*
X47780619Y-76452136D01*
X47193200Y-76335291D01*
X46777734Y-76417932D01*
X45706801Y-75346999D01*
X45460239Y-75182252D01*
X45169400Y-75124400D01*
X39020602Y-75124400D01*
X38138000Y-74241798D01*
X37891438Y-74077051D01*
X37600599Y-74019199D01*
X37166379Y-74019199D01*
X37186886Y-73969812D01*
X37187513Y-73251738D01*
X36913297Y-72588085D01*
X36405985Y-72079888D01*
X35742812Y-71804514D01*
X35024738Y-71803887D01*
X34361085Y-72078103D01*
X33852888Y-72585415D01*
X33577514Y-73248588D01*
X33576887Y-73966662D01*
X33851103Y-74630315D01*
X34358415Y-75138512D01*
X35021588Y-75413886D01*
X35739662Y-75414513D01*
X36003638Y-75305440D01*
X36014798Y-75316600D01*
X36261359Y-75481347D01*
X36309613Y-75490945D01*
X36552199Y-75539199D01*
X37285797Y-75539199D01*
X38168399Y-76421801D01*
X38414960Y-76586548D01*
X38705800Y-76644400D01*
X43817277Y-76644400D01*
X43657594Y-76732988D01*
X43283646Y-77203448D01*
X43118200Y-77781200D01*
X43118200Y-78181200D01*
X44526200Y-78181200D01*
X44526200Y-78161200D01*
X44780200Y-78161200D01*
X44780200Y-78181200D01*
X44800200Y-78181200D01*
X44800200Y-78435200D01*
X44780200Y-78435200D01*
X44780200Y-80078578D01*
X45017940Y-80199236D01*
X45123286Y-80174956D01*
X45648806Y-79883412D01*
X45917008Y-79545990D01*
X46107791Y-79831518D01*
X46605781Y-80164264D01*
X47193200Y-80281109D01*
X47658210Y-80188613D01*
X47658210Y-80915658D01*
X46700598Y-81873270D01*
X38269472Y-81873270D01*
X34831402Y-78435200D01*
X43118200Y-78435200D01*
X43118200Y-78835200D01*
X43283646Y-79412952D01*
X43657594Y-79883412D01*
X44183114Y-80174956D01*
X44288460Y-80199236D01*
X44526200Y-80078578D01*
X44526200Y-78435200D01*
X43118200Y-78435200D01*
X34831402Y-78435200D01*
X33138000Y-76741798D01*
X32891438Y-76577051D01*
X32600599Y-76519199D01*
X32166379Y-76519199D01*
X32186886Y-76469812D01*
X32187513Y-75751738D01*
X31913297Y-75088085D01*
X31405985Y-74579888D01*
X30742812Y-74304514D01*
X30024738Y-74303887D01*
X29361085Y-74578103D01*
X28852888Y-75085415D01*
X28577514Y-75748588D01*
X28576887Y-76466662D01*
X28851103Y-77130315D01*
X29358415Y-77638512D01*
X30021588Y-77913886D01*
X30739662Y-77914513D01*
X31003638Y-77805440D01*
X31014798Y-77816600D01*
X31261359Y-77981347D01*
X31309613Y-77990945D01*
X31552199Y-78039199D01*
X32285797Y-78039199D01*
X37417269Y-83170671D01*
X37663830Y-83335418D01*
X37712084Y-83345016D01*
X37954670Y-83393270D01*
X108273932Y-83393270D01*
X108564771Y-83335418D01*
X108811333Y-83170671D01*
X113333602Y-78648402D01*
X113498349Y-78401840D01*
X113556201Y-78111001D01*
X113556201Y-71874970D01*
X115095235Y-71874970D01*
X115255018Y-72193739D01*
X116045787Y-72503723D01*
X116894987Y-72487497D01*
X117604182Y-72193739D01*
X117763965Y-71874970D01*
X116429600Y-70540605D01*
X115095235Y-71874970D01*
X113556201Y-71874970D01*
X113556201Y-69977187D01*
X114286877Y-69977187D01*
X114303103Y-70826387D01*
X114596861Y-71535582D01*
X114915630Y-71695365D01*
X116249995Y-70361000D01*
X116609205Y-70361000D01*
X117943570Y-71695365D01*
X118262339Y-71535582D01*
X118572323Y-70744813D01*
X118557656Y-69977187D01*
X128006877Y-69977187D01*
X128023103Y-70826387D01*
X128316861Y-71535582D01*
X128635630Y-71695365D01*
X129969995Y-70361000D01*
X128635630Y-69026635D01*
X128316861Y-69186418D01*
X128006877Y-69977187D01*
X118557656Y-69977187D01*
X118556097Y-69895613D01*
X118262339Y-69186418D01*
X117943570Y-69026635D01*
X116609205Y-70361000D01*
X116249995Y-70361000D01*
X114915630Y-69026635D01*
X114596861Y-69186418D01*
X114286877Y-69977187D01*
X113556201Y-69977187D01*
X113556201Y-68847030D01*
X115095235Y-68847030D01*
X116429600Y-70181395D01*
X117763965Y-68847030D01*
X117604182Y-68528261D01*
X116813413Y-68218277D01*
X115964213Y-68234503D01*
X115255018Y-68528261D01*
X115095235Y-68847030D01*
X113556201Y-68847030D01*
X113556201Y-50236001D01*
X113498349Y-49945162D01*
X113333602Y-49698600D01*
X113077583Y-49442581D01*
X113141033Y-49123600D01*
X113032759Y-48579271D01*
X112724422Y-48117811D01*
X112329001Y-47853600D01*
X112724422Y-47589389D01*
X113032759Y-47127929D01*
X113141033Y-46583600D01*
X113032759Y-46039271D01*
X112724422Y-45577811D01*
X112329370Y-45313846D01*
X112345462Y-45309125D01*
X112779391Y-44959586D01*
X113046527Y-44470596D01*
X113063210Y-44390660D01*
X112941052Y-44170600D01*
X111455200Y-44170600D01*
X111455200Y-44190600D01*
X111201200Y-44190600D01*
X111201200Y-44170600D01*
X111181200Y-44170600D01*
X111181200Y-43916600D01*
X111201200Y-43916600D01*
X111201200Y-43896600D01*
X111455200Y-43896600D01*
X111455200Y-43916600D01*
X112941052Y-43916600D01*
X113063210Y-43696540D01*
X113046527Y-43616604D01*
X112779391Y-43127614D01*
X112345462Y-42778075D01*
X112329370Y-42773354D01*
X112681120Y-42538322D01*
X128374298Y-58231500D01*
X120289800Y-66315998D01*
X120266302Y-66306241D01*
X119715315Y-66305760D01*
X119206085Y-66516169D01*
X118816139Y-66905436D01*
X118604841Y-67414298D01*
X118604360Y-67965285D01*
X118814769Y-68474515D01*
X119204036Y-68864461D01*
X119712898Y-69075759D01*
X120263885Y-69076240D01*
X120773115Y-68865831D01*
X120976783Y-68662517D01*
X121737688Y-68662517D01*
X121805677Y-68903460D01*
X122324771Y-69088201D01*
X122875048Y-69060230D01*
X123253523Y-68903460D01*
X123321512Y-68662517D01*
X123767688Y-68662517D01*
X123835677Y-68903460D01*
X124354771Y-69088201D01*
X124905048Y-69060230D01*
X125283523Y-68903460D01*
X125351512Y-68662517D01*
X126307688Y-68662517D01*
X126375677Y-68903460D01*
X126894771Y-69088201D01*
X127445048Y-69060230D01*
X127823523Y-68903460D01*
X127891512Y-68662517D01*
X127099600Y-67870605D01*
X126307688Y-68662517D01*
X125351512Y-68662517D01*
X124559600Y-67870605D01*
X123767688Y-68662517D01*
X123321512Y-68662517D01*
X122529600Y-67870605D01*
X121737688Y-68662517D01*
X120976783Y-68662517D01*
X121163061Y-68476564D01*
X121252977Y-68260021D01*
X121317140Y-68414923D01*
X121558083Y-68482912D01*
X122349995Y-67691000D01*
X122709205Y-67691000D01*
X123286337Y-68268132D01*
X123347140Y-68414923D01*
X123466930Y-68448725D01*
X123501117Y-68482912D01*
X123544600Y-68470642D01*
X123588083Y-68482912D01*
X123622270Y-68448725D01*
X123742060Y-68414923D01*
X123789571Y-68281424D01*
X124379995Y-67691000D01*
X124739205Y-67691000D01*
X125531117Y-68482912D01*
X125772060Y-68414923D01*
X125825242Y-68265489D01*
X125887140Y-68414923D01*
X126128083Y-68482912D01*
X126919995Y-67691000D01*
X127279205Y-67691000D01*
X128071117Y-68482912D01*
X128312060Y-68414923D01*
X128496801Y-67895829D01*
X128468830Y-67345552D01*
X128312060Y-66967077D01*
X128071117Y-66899088D01*
X127279205Y-67691000D01*
X126919995Y-67691000D01*
X126128083Y-66899088D01*
X125887140Y-66967077D01*
X125833958Y-67116511D01*
X125772060Y-66967077D01*
X125531117Y-66899088D01*
X124739205Y-67691000D01*
X124379995Y-67691000D01*
X123802863Y-67113868D01*
X123742060Y-66967077D01*
X123622270Y-66933275D01*
X123588083Y-66899088D01*
X123544600Y-66911358D01*
X123501117Y-66899088D01*
X123466930Y-66933275D01*
X123347140Y-66967077D01*
X123299629Y-67100576D01*
X122709205Y-67691000D01*
X122349995Y-67691000D01*
X122335853Y-67676858D01*
X122515458Y-67497253D01*
X122529600Y-67511395D01*
X123321512Y-66719483D01*
X123767688Y-66719483D01*
X124559600Y-67511395D01*
X125351512Y-66719483D01*
X126307688Y-66719483D01*
X127099600Y-67511395D01*
X127891512Y-66719483D01*
X127823523Y-66478540D01*
X127304429Y-66293799D01*
X126754152Y-66321770D01*
X126375677Y-66478540D01*
X126307688Y-66719483D01*
X125351512Y-66719483D01*
X125283523Y-66478540D01*
X124764429Y-66293799D01*
X124214152Y-66321770D01*
X123835677Y-66478540D01*
X123767688Y-66719483D01*
X123321512Y-66719483D01*
X123253523Y-66478540D01*
X122734429Y-66293799D01*
X122446992Y-66308410D01*
X130115991Y-58639411D01*
X130280738Y-58392849D01*
X130338590Y-58102010D01*
X130338590Y-23711390D01*
X130280738Y-23420551D01*
X130115991Y-23173989D01*
X125289011Y-18347009D01*
X125042449Y-18182262D01*
X124751610Y-18124410D01*
X77887476Y-18124410D01*
X77596637Y-18182262D01*
X77350075Y-18347009D01*
X71827199Y-23869885D01*
X71662452Y-24116447D01*
X71617953Y-24340158D01*
X71275571Y-24568930D01*
X71094600Y-24839772D01*
X70913629Y-24568930D01*
X70427448Y-24244074D01*
X69853959Y-24130000D01*
X69795241Y-24130000D01*
X69221752Y-24244074D01*
X68735571Y-24568930D01*
X68554608Y-24839761D01*
X68173090Y-24421779D01*
X67643627Y-24173632D01*
X67411600Y-24294131D01*
X67411600Y-25501600D01*
X67431600Y-25501600D01*
X67431600Y-25755600D01*
X67411600Y-25755600D01*
X67411600Y-28041600D01*
X67431600Y-28041600D01*
X67431600Y-28295600D01*
X67411600Y-28295600D01*
X67411600Y-28315600D01*
X67157600Y-28315600D01*
X67157600Y-28295600D01*
X65944750Y-28295600D01*
X65786000Y-28454350D01*
X65786000Y-29158510D01*
X65882673Y-29391899D01*
X66061302Y-29570527D01*
X66294691Y-29667200D01*
X66998850Y-29667200D01*
X67157598Y-29508452D01*
X67157598Y-29667200D01*
X67168070Y-29667200D01*
X61775270Y-35060000D01*
X57240997Y-35060000D01*
X57038955Y-34925000D01*
X57270209Y-34770481D01*
X57602955Y-34272491D01*
X57719800Y-33685072D01*
X57719800Y-33624928D01*
X57602955Y-33037509D01*
X57270209Y-32539519D01*
X56772219Y-32206773D01*
X56234808Y-32099875D01*
X54703600Y-30568668D01*
X54703600Y-28060240D01*
X54768600Y-28060240D01*
X55003917Y-28015962D01*
X55220041Y-27876890D01*
X55365031Y-27664690D01*
X55416040Y-27412800D01*
X55416040Y-27178690D01*
X65786000Y-27178690D01*
X65786000Y-27882850D01*
X65944750Y-28041600D01*
X67157600Y-28041600D01*
X67157600Y-25755600D01*
X65950783Y-25755600D01*
X65829642Y-25987626D01*
X66001912Y-26403547D01*
X66258720Y-26684900D01*
X66061302Y-26766673D01*
X65882673Y-26945301D01*
X65786000Y-27178690D01*
X55416040Y-27178690D01*
X55416040Y-25269574D01*
X65829642Y-25269574D01*
X65950783Y-25501600D01*
X67157600Y-25501600D01*
X67157600Y-24294131D01*
X66925573Y-24173632D01*
X66396110Y-24421779D01*
X66001912Y-24853653D01*
X65829642Y-25269574D01*
X55416040Y-25269574D01*
X55416040Y-25012800D01*
X55371762Y-24777483D01*
X55232690Y-24561359D01*
X55020490Y-24416369D01*
X54768600Y-24365360D01*
X52368600Y-24365360D01*
X52133283Y-24409638D01*
X51917159Y-24548710D01*
X51772169Y-24760910D01*
X51721160Y-25012800D01*
X51721160Y-25407088D01*
X51625145Y-25174714D01*
X51109401Y-24658070D01*
X50435205Y-24378119D01*
X49705197Y-24377482D01*
X49030514Y-24656255D01*
X48513870Y-25171999D01*
X48318465Y-25642585D01*
X48125145Y-25174714D01*
X47609401Y-24658070D01*
X46935205Y-24378119D01*
X46205197Y-24377482D01*
X45530514Y-24656255D01*
X45013870Y-25171999D01*
X44823792Y-25629757D01*
X44653388Y-25218365D01*
X44365775Y-25095230D01*
X43248205Y-26212800D01*
X44365775Y-27330370D01*
X44653388Y-27207235D01*
X44816804Y-26778342D01*
X45012055Y-27250886D01*
X45433600Y-27673167D01*
X45433600Y-27713468D01*
X40970993Y-32176075D01*
X40433581Y-32282973D01*
X39935591Y-32615719D01*
X39602845Y-33113709D01*
X39486000Y-33701128D01*
X39486000Y-33761272D01*
X39602845Y-34348691D01*
X39935591Y-34846681D01*
X40166845Y-35001200D01*
X39964803Y-35136200D01*
X28153000Y-35136200D01*
X27718655Y-35222596D01*
X27350434Y-35468634D01*
X25366600Y-37452468D01*
X25366600Y-31641640D01*
X25431600Y-31641640D01*
X25666917Y-31597362D01*
X25883041Y-31458290D01*
X26028031Y-31246090D01*
X26079040Y-30994200D01*
X26079040Y-28594200D01*
X26034762Y-28358883D01*
X25895690Y-28142759D01*
X25683490Y-27997769D01*
X25431600Y-27946760D01*
X23031600Y-27946760D01*
X22796283Y-27991038D01*
X22580159Y-28130110D01*
X22435169Y-28342310D01*
X22384160Y-28594200D01*
X22384160Y-28963381D01*
X22316388Y-28799765D01*
X22028775Y-28676630D01*
X20911205Y-29794200D01*
X20551995Y-29794200D01*
X19434425Y-28676630D01*
X19146812Y-28799765D01*
X18886893Y-29481934D01*
X14553000Y-29481934D01*
X14553000Y-28497025D01*
X19614030Y-28497025D01*
X20731600Y-29614595D01*
X21849170Y-28497025D01*
X21726035Y-28209412D01*
X21043866Y-27949493D01*
X20314157Y-27970414D01*
X19737165Y-28209412D01*
X19614030Y-28497025D01*
X14553000Y-28497025D01*
X14553000Y-27509975D01*
X41951030Y-27509975D01*
X42074165Y-27797588D01*
X42756334Y-28057507D01*
X43486043Y-28036586D01*
X44063035Y-27797588D01*
X44186170Y-27509975D01*
X43068600Y-26392405D01*
X41951030Y-27509975D01*
X14553000Y-27509975D01*
X14553000Y-25900534D01*
X41223893Y-25900534D01*
X41244814Y-26630243D01*
X41483812Y-27207235D01*
X41771425Y-27330370D01*
X42888995Y-26212800D01*
X41771425Y-25095230D01*
X41483812Y-25218365D01*
X41223893Y-25900534D01*
X14553000Y-25900534D01*
X14553000Y-24915625D01*
X41951030Y-24915625D01*
X43068600Y-26033195D01*
X44186170Y-24915625D01*
X44063035Y-24628012D01*
X43380866Y-24368093D01*
X42651157Y-24389014D01*
X42074165Y-24628012D01*
X41951030Y-24915625D01*
X14553000Y-24915625D01*
X14553000Y-17829600D01*
X131090600Y-17829600D01*
X131090600Y-68436696D01*
G36*
X93410181Y-69468803D02*
X93410181Y-72961181D01*
X93468033Y-73252020D01*
X93632780Y-73498582D01*
X94338817Y-74204619D01*
X94275367Y-74523600D01*
X94383641Y-75067929D01*
X94691978Y-75529389D01*
X95087399Y-75793600D01*
X94691978Y-76057811D01*
X94383641Y-76519271D01*
X94275367Y-77063600D01*
X94383641Y-77607929D01*
X94691978Y-78069389D01*
X95153438Y-78377726D01*
X95697767Y-78486000D01*
X96478633Y-78486000D01*
X96805645Y-78420953D01*
X96053388Y-79173210D01*
X84191407Y-79173210D01*
X84288200Y-78835200D01*
X84288200Y-78435200D01*
X82880200Y-78435200D01*
X82880200Y-78455200D01*
X82626200Y-78455200D01*
X82626200Y-78435200D01*
X82606200Y-78435200D01*
X82606200Y-78181200D01*
X82626200Y-78181200D01*
X82626200Y-78161200D01*
X82880200Y-78161200D01*
X82880200Y-78181200D01*
X84288200Y-78181200D01*
X84288200Y-77781200D01*
X84122754Y-77203448D01*
X83910330Y-76936199D01*
X83974601Y-76936199D01*
X84265440Y-76878347D01*
X84512002Y-76713600D01*
X84523062Y-76702540D01*
X84783988Y-76810886D01*
X85502062Y-76811513D01*
X86165715Y-76537297D01*
X86421771Y-76281686D01*
X89048720Y-76281686D01*
X89168186Y-76566184D01*
X89839490Y-76821094D01*
X90557246Y-76799704D01*
X91121014Y-76566184D01*
X91240480Y-76281686D01*
X90144600Y-75185805D01*
X89048720Y-76281686D01*
X86421771Y-76281686D01*
X86673912Y-76029985D01*
X86949286Y-75366812D01*
X86949867Y-74701090D01*
X88329706Y-74701090D01*
X88351096Y-75418846D01*
X88584616Y-75982614D01*
X88869114Y-76102080D01*
X89964995Y-75006200D01*
X90324205Y-75006200D01*
X91420086Y-76102080D01*
X91704584Y-75982614D01*
X91959494Y-75311310D01*
X91938104Y-74593554D01*
X91704584Y-74029786D01*
X91420086Y-73910320D01*
X90324205Y-75006200D01*
X89964995Y-75006200D01*
X88869114Y-73910320D01*
X88584616Y-74029786D01*
X88329706Y-74701090D01*
X86949867Y-74701090D01*
X86949913Y-74648738D01*
X86840840Y-74384762D01*
X87494888Y-73730714D01*
X89048720Y-73730714D01*
X90144600Y-74826595D01*
X91240480Y-73730714D01*
X91121014Y-73446216D01*
X90449710Y-73191306D01*
X89731954Y-73212696D01*
X89168186Y-73446216D01*
X89048720Y-73730714D01*
X87494888Y-73730714D01*
X89677002Y-71548600D01*
X89841749Y-71302038D01*
X89899601Y-71011199D01*
X89899601Y-69288599D01*
X89841749Y-68997760D01*
X89677002Y-68751198D01*
X88945004Y-68019200D01*
X91960578Y-68019200D01*
X93410181Y-69468803D01*
X93410181Y-69468803D01*
G37*
X93410181Y-69468803D02*
X93410181Y-72961181D01*
X93468033Y-73252020D01*
X93632780Y-73498582D01*
X94338817Y-74204619D01*
X94275367Y-74523600D01*
X94383641Y-75067929D01*
X94691978Y-75529389D01*
X95087399Y-75793600D01*
X94691978Y-76057811D01*
X94383641Y-76519271D01*
X94275367Y-77063600D01*
X94383641Y-77607929D01*
X94691978Y-78069389D01*
X95153438Y-78377726D01*
X95697767Y-78486000D01*
X96478633Y-78486000D01*
X96805645Y-78420953D01*
X96053388Y-79173210D01*
X84191407Y-79173210D01*
X84288200Y-78835200D01*
X84288200Y-78435200D01*
X82880200Y-78435200D01*
X82880200Y-78455200D01*
X82626200Y-78455200D01*
X82626200Y-78435200D01*
X82606200Y-78435200D01*
X82606200Y-78181200D01*
X82626200Y-78181200D01*
X82626200Y-78161200D01*
X82880200Y-78161200D01*
X82880200Y-78181200D01*
X84288200Y-78181200D01*
X84288200Y-77781200D01*
X84122754Y-77203448D01*
X83910330Y-76936199D01*
X83974601Y-76936199D01*
X84265440Y-76878347D01*
X84512002Y-76713600D01*
X84523062Y-76702540D01*
X84783988Y-76810886D01*
X85502062Y-76811513D01*
X86165715Y-76537297D01*
X86421771Y-76281686D01*
X89048720Y-76281686D01*
X89168186Y-76566184D01*
X89839490Y-76821094D01*
X90557246Y-76799704D01*
X91121014Y-76566184D01*
X91240480Y-76281686D01*
X90144600Y-75185805D01*
X89048720Y-76281686D01*
X86421771Y-76281686D01*
X86673912Y-76029985D01*
X86949286Y-75366812D01*
X86949867Y-74701090D01*
X88329706Y-74701090D01*
X88351096Y-75418846D01*
X88584616Y-75982614D01*
X88869114Y-76102080D01*
X89964995Y-75006200D01*
X90324205Y-75006200D01*
X91420086Y-76102080D01*
X91704584Y-75982614D01*
X91959494Y-75311310D01*
X91938104Y-74593554D01*
X91704584Y-74029786D01*
X91420086Y-73910320D01*
X90324205Y-75006200D01*
X89964995Y-75006200D01*
X88869114Y-73910320D01*
X88584616Y-74029786D01*
X88329706Y-74701090D01*
X86949867Y-74701090D01*
X86949913Y-74648738D01*
X86840840Y-74384762D01*
X87494888Y-73730714D01*
X89048720Y-73730714D01*
X90144600Y-74826595D01*
X91240480Y-73730714D01*
X91121014Y-73446216D01*
X90449710Y-73191306D01*
X89731954Y-73212696D01*
X89168186Y-73446216D01*
X89048720Y-73730714D01*
X87494888Y-73730714D01*
X89677002Y-71548600D01*
X89841749Y-71302038D01*
X89899601Y-71011199D01*
X89899601Y-69288599D01*
X89841749Y-68997760D01*
X89677002Y-68751198D01*
X88945004Y-68019200D01*
X91960578Y-68019200D01*
X93410181Y-69468803D01*
M02*
