G04 #@! TF.FileFunction,Legend,Top*
%FSLAX46Y46*%
G04 Gerber Fmt 4.6, Leading zero omitted, Abs format (unit mm)*
G04 Created by KiCad (PCBNEW 4.0.5) date 06/13/17 16:15:45*
%MOMM*%
%LPD*%
G01*
G04 APERTURE LIST*
%ADD10C,0.100000*%
%ADD11C,0.120000*%
%ADD12C,0.381000*%
%ADD13C,0.150000*%
%ADD14C,0.304800*%
G04 APERTURE END LIST*
D10*
D11*
X27933000Y-67246800D02*
X27933000Y-64426800D01*
X27933000Y-64426800D02*
X22613000Y-64426800D01*
X22613000Y-64426800D02*
X22613000Y-67246800D01*
X22613000Y-67246800D02*
X27933000Y-67246800D01*
X29073000Y-65836800D02*
X27933000Y-65836800D01*
X21473000Y-65836800D02*
X22613000Y-65836800D01*
X27093000Y-67246800D02*
X27093000Y-64426800D01*
X34207621Y-74313407D02*
G75*
G02X32883200Y-75109200I-1324421J704207D01*
G01*
X32909385Y-75108502D02*
G75*
G02X34207200Y-72905200I-26185J1499302D01*
G01*
X38093200Y-73609200D02*
G75*
G03X38093200Y-73609200I-5210000J0D01*
G01*
D12*
X97358200Y-80873600D02*
X97358200Y-37693600D01*
X97358200Y-37693600D02*
X110058200Y-37693600D01*
X110058200Y-37693600D02*
X110058200Y-80873600D01*
X110058200Y-80873600D02*
X97358200Y-80873600D01*
X104978200Y-80873600D02*
X104978200Y-79603600D01*
X104978200Y-79603600D02*
X102438200Y-79603600D01*
X102438200Y-79603600D02*
X102438200Y-80873600D01*
D13*
X82552540Y-70307200D02*
X19052540Y-70307200D01*
X83052920Y-55808880D02*
X83052920Y-69809360D01*
X19052540Y-55308500D02*
X82552540Y-55308500D01*
X18552160Y-69809360D02*
X18552160Y-55808880D01*
X18554700Y-69809360D02*
G75*
G03X19052540Y-70307200I497840J0D01*
G01*
X19052540Y-55308500D02*
G75*
G03X18552160Y-55808880I0J-500380D01*
G01*
X83052920Y-55808880D02*
G75*
G03X82552540Y-55308500I-500380J0D01*
G01*
X82552540Y-70309740D02*
G75*
G03X83052920Y-69809360I0J500380D01*
G01*
X87353140Y-75407520D02*
X14152880Y-75407520D01*
X14152880Y-75407520D02*
X14152880Y-50007520D01*
X14152880Y-50007520D02*
X87353140Y-50007520D01*
X87353140Y-50007520D02*
X87353140Y-75407520D01*
X15753080Y-78308200D02*
G75*
G03X15753080Y-78308200I-2499360J0D01*
G01*
X15753080Y-47307500D02*
G75*
G03X15753080Y-47307500I-2499360J0D01*
G01*
X90754200Y-47307500D02*
G75*
G03X90754200Y-47307500I-2501900J0D01*
G01*
X90751660Y-78308200D02*
G75*
G03X90751660Y-78308200I-2499360J0D01*
G01*
X90754200Y-80807560D02*
X10754360Y-80807560D01*
X10754360Y-80807560D02*
X10754360Y-44808140D01*
X10754360Y-44808140D02*
X90754200Y-44808140D01*
X90754200Y-44808140D02*
X90754200Y-80807560D01*
D11*
X61954600Y-22098600D02*
X95474600Y-22098600D01*
X95474600Y-22098600D02*
X95474600Y-31698600D01*
X95474600Y-31698600D02*
X61954600Y-31698600D01*
X61954600Y-31698600D02*
X61954600Y-22098600D01*
X29519400Y-40944800D02*
G75*
G03X29519400Y-40944800I-6340000J0D01*
G01*
X23179400Y-47244800D02*
X23179400Y-34644800D01*
X23139400Y-47244800D02*
X23139400Y-34644800D01*
X23099400Y-47244800D02*
X23099400Y-34644800D01*
X23059400Y-47243800D02*
X23059400Y-34645800D01*
X23019400Y-47242800D02*
X23019400Y-34646800D01*
X22979400Y-47241800D02*
X22979400Y-34647800D01*
X22939400Y-47240800D02*
X22939400Y-34648800D01*
X22899400Y-47238800D02*
X22899400Y-34650800D01*
X22859400Y-47236800D02*
X22859400Y-34652800D01*
X22819400Y-47234800D02*
X22819400Y-34654800D01*
X22779400Y-47232800D02*
X22779400Y-34656800D01*
X22739400Y-47229800D02*
X22739400Y-34659800D01*
X22699400Y-47226800D02*
X22699400Y-34662800D01*
X22659400Y-47223800D02*
X22659400Y-34665800D01*
X22619400Y-47220800D02*
X22619400Y-34668800D01*
X22579400Y-47216800D02*
X22579400Y-34672800D01*
X22539400Y-47212800D02*
X22539400Y-34676800D01*
X22499400Y-47208800D02*
X22499400Y-34680800D01*
X22458400Y-47203800D02*
X22458400Y-34685800D01*
X22418400Y-47199800D02*
X22418400Y-34689800D01*
X22378400Y-47194800D02*
X22378400Y-34694800D01*
X22338400Y-47189800D02*
X22338400Y-34699800D01*
X22298400Y-47183800D02*
X22298400Y-34705800D01*
X22258400Y-47177800D02*
X22258400Y-34711800D01*
X22218400Y-47171800D02*
X22218400Y-34717800D01*
X22178400Y-47165800D02*
X22178400Y-34723800D01*
X22138400Y-47159800D02*
X22138400Y-34729800D01*
X22098400Y-47152800D02*
X22098400Y-34736800D01*
X22058400Y-47145800D02*
X22058400Y-42324800D01*
X22058400Y-39564800D02*
X22058400Y-34743800D01*
X22018400Y-47137800D02*
X22018400Y-42324800D01*
X22018400Y-39564800D02*
X22018400Y-34751800D01*
X21978400Y-47130800D02*
X21978400Y-42324800D01*
X21978400Y-39564800D02*
X21978400Y-34758800D01*
X21938400Y-47122800D02*
X21938400Y-42324800D01*
X21938400Y-39564800D02*
X21938400Y-34766800D01*
X21898400Y-47114800D02*
X21898400Y-42324800D01*
X21898400Y-39564800D02*
X21898400Y-34774800D01*
X21858400Y-47106800D02*
X21858400Y-42324800D01*
X21858400Y-39564800D02*
X21858400Y-34782800D01*
X21818400Y-47097800D02*
X21818400Y-42324800D01*
X21818400Y-39564800D02*
X21818400Y-34791800D01*
X21778400Y-47088800D02*
X21778400Y-42324800D01*
X21778400Y-39564800D02*
X21778400Y-34800800D01*
X21738400Y-47079800D02*
X21738400Y-42324800D01*
X21738400Y-39564800D02*
X21738400Y-34809800D01*
X21698400Y-47069800D02*
X21698400Y-42324800D01*
X21698400Y-39564800D02*
X21698400Y-34819800D01*
X21658400Y-47060800D02*
X21658400Y-42324800D01*
X21658400Y-39564800D02*
X21658400Y-34828800D01*
X21618400Y-47050800D02*
X21618400Y-42324800D01*
X21618400Y-39564800D02*
X21618400Y-34838800D01*
X21578400Y-47039800D02*
X21578400Y-42324800D01*
X21578400Y-39564800D02*
X21578400Y-34849800D01*
X21538400Y-47029800D02*
X21538400Y-42324800D01*
X21538400Y-39564800D02*
X21538400Y-34859800D01*
X21498400Y-47018800D02*
X21498400Y-42324800D01*
X21498400Y-39564800D02*
X21498400Y-34870800D01*
X21458400Y-47007800D02*
X21458400Y-42324800D01*
X21458400Y-39564800D02*
X21458400Y-34881800D01*
X21418400Y-46995800D02*
X21418400Y-42324800D01*
X21418400Y-39564800D02*
X21418400Y-34893800D01*
X21378400Y-46984800D02*
X21378400Y-42324800D01*
X21378400Y-39564800D02*
X21378400Y-34904800D01*
X21338400Y-46972800D02*
X21338400Y-42324800D01*
X21338400Y-39564800D02*
X21338400Y-34916800D01*
X21298400Y-46959800D02*
X21298400Y-42324800D01*
X21298400Y-39564800D02*
X21298400Y-34929800D01*
X21258400Y-46947800D02*
X21258400Y-42324800D01*
X21258400Y-39564800D02*
X21258400Y-34941800D01*
X21218400Y-46934800D02*
X21218400Y-42324800D01*
X21218400Y-39564800D02*
X21218400Y-34954800D01*
X21178400Y-46921800D02*
X21178400Y-42324800D01*
X21178400Y-39564800D02*
X21178400Y-34967800D01*
X21138400Y-46907800D02*
X21138400Y-42324800D01*
X21138400Y-39564800D02*
X21138400Y-34981800D01*
X21098400Y-46894800D02*
X21098400Y-42324800D01*
X21098400Y-39564800D02*
X21098400Y-34994800D01*
X21058400Y-46880800D02*
X21058400Y-42324800D01*
X21058400Y-39564800D02*
X21058400Y-35008800D01*
X21018400Y-46865800D02*
X21018400Y-42324800D01*
X21018400Y-39564800D02*
X21018400Y-35023800D01*
X20978400Y-46851800D02*
X20978400Y-42324800D01*
X20978400Y-39564800D02*
X20978400Y-35037800D01*
X20938400Y-46836800D02*
X20938400Y-42324800D01*
X20938400Y-39564800D02*
X20938400Y-35052800D01*
X20898400Y-46820800D02*
X20898400Y-42324800D01*
X20898400Y-39564800D02*
X20898400Y-35068800D01*
X20858400Y-46805800D02*
X20858400Y-42324800D01*
X20858400Y-39564800D02*
X20858400Y-35083800D01*
X20818400Y-46789800D02*
X20818400Y-42324800D01*
X20818400Y-39564800D02*
X20818400Y-35099800D01*
X20778400Y-46773800D02*
X20778400Y-42324800D01*
X20778400Y-39564800D02*
X20778400Y-35115800D01*
X20738400Y-46756800D02*
X20738400Y-42324800D01*
X20738400Y-39564800D02*
X20738400Y-35132800D01*
X20698400Y-46739800D02*
X20698400Y-42324800D01*
X20698400Y-39564800D02*
X20698400Y-35149800D01*
X20658400Y-46722800D02*
X20658400Y-42324800D01*
X20658400Y-39564800D02*
X20658400Y-35166800D01*
X20618400Y-46705800D02*
X20618400Y-42324800D01*
X20618400Y-39564800D02*
X20618400Y-35183800D01*
X20578400Y-46687800D02*
X20578400Y-42324800D01*
X20578400Y-39564800D02*
X20578400Y-35201800D01*
X20538400Y-46669800D02*
X20538400Y-42324800D01*
X20538400Y-39564800D02*
X20538400Y-35219800D01*
X20498400Y-46650800D02*
X20498400Y-42324800D01*
X20498400Y-39564800D02*
X20498400Y-35238800D01*
X20458400Y-46631800D02*
X20458400Y-42324800D01*
X20458400Y-39564800D02*
X20458400Y-35257800D01*
X20418400Y-46612800D02*
X20418400Y-42324800D01*
X20418400Y-39564800D02*
X20418400Y-35276800D01*
X20378400Y-46593800D02*
X20378400Y-42324800D01*
X20378400Y-39564800D02*
X20378400Y-35295800D01*
X20338400Y-46573800D02*
X20338400Y-42324800D01*
X20338400Y-39564800D02*
X20338400Y-35315800D01*
X20298400Y-46553800D02*
X20298400Y-42324800D01*
X20298400Y-39564800D02*
X20298400Y-35335800D01*
X20258400Y-46532800D02*
X20258400Y-42324800D01*
X20258400Y-39564800D02*
X20258400Y-35356800D01*
X20218400Y-46511800D02*
X20218400Y-42324800D01*
X20218400Y-39564800D02*
X20218400Y-35377800D01*
X20178400Y-46490800D02*
X20178400Y-42324800D01*
X20178400Y-39564800D02*
X20178400Y-35398800D01*
X20138400Y-46468800D02*
X20138400Y-42324800D01*
X20138400Y-39564800D02*
X20138400Y-35420800D01*
X20098400Y-46446800D02*
X20098400Y-42324800D01*
X20098400Y-39564800D02*
X20098400Y-35442800D01*
X20058400Y-46424800D02*
X20058400Y-42324800D01*
X20058400Y-39564800D02*
X20058400Y-35464800D01*
X20018400Y-46401800D02*
X20018400Y-42324800D01*
X20018400Y-39564800D02*
X20018400Y-35487800D01*
X19978400Y-46378800D02*
X19978400Y-42324800D01*
X19978400Y-39564800D02*
X19978400Y-35510800D01*
X19938400Y-46354800D02*
X19938400Y-42324800D01*
X19938400Y-39564800D02*
X19938400Y-35534800D01*
X19898400Y-46330800D02*
X19898400Y-42324800D01*
X19898400Y-39564800D02*
X19898400Y-35558800D01*
X19858400Y-46306800D02*
X19858400Y-42324800D01*
X19858400Y-39564800D02*
X19858400Y-35582800D01*
X19818400Y-46281800D02*
X19818400Y-42324800D01*
X19818400Y-39564800D02*
X19818400Y-35607800D01*
X19778400Y-46256800D02*
X19778400Y-42324800D01*
X19778400Y-39564800D02*
X19778400Y-35632800D01*
X19738400Y-46230800D02*
X19738400Y-42324800D01*
X19738400Y-39564800D02*
X19738400Y-35658800D01*
X19698400Y-46204800D02*
X19698400Y-42324800D01*
X19698400Y-39564800D02*
X19698400Y-35684800D01*
X19658400Y-46178800D02*
X19658400Y-42324800D01*
X19658400Y-39564800D02*
X19658400Y-35710800D01*
X19618400Y-46151800D02*
X19618400Y-42324800D01*
X19618400Y-39564800D02*
X19618400Y-35737800D01*
X19578400Y-46123800D02*
X19578400Y-42324800D01*
X19578400Y-39564800D02*
X19578400Y-35765800D01*
X19538400Y-46095800D02*
X19538400Y-42324800D01*
X19538400Y-39564800D02*
X19538400Y-35793800D01*
X19498400Y-46067800D02*
X19498400Y-42324800D01*
X19498400Y-39564800D02*
X19498400Y-35821800D01*
X19458400Y-46038800D02*
X19458400Y-42324800D01*
X19458400Y-39564800D02*
X19458400Y-35850800D01*
X19418400Y-46009800D02*
X19418400Y-42324800D01*
X19418400Y-39564800D02*
X19418400Y-35879800D01*
X19378400Y-45979800D02*
X19378400Y-42324800D01*
X19378400Y-39564800D02*
X19378400Y-35909800D01*
X19338400Y-45949800D02*
X19338400Y-42324800D01*
X19338400Y-39564800D02*
X19338400Y-35939800D01*
X19298400Y-45919800D02*
X19298400Y-35969800D01*
X19258400Y-45887800D02*
X19258400Y-36001800D01*
X19218400Y-45856800D02*
X19218400Y-36032800D01*
X19178400Y-45823800D02*
X19178400Y-36065800D01*
X19138400Y-45791800D02*
X19138400Y-36097800D01*
X19098400Y-45757800D02*
X19098400Y-36131800D01*
X19058400Y-45723800D02*
X19058400Y-36165800D01*
X19018400Y-45689800D02*
X19018400Y-36199800D01*
X18978400Y-45654800D02*
X18978400Y-36234800D01*
X18938400Y-45618800D02*
X18938400Y-36270800D01*
X18898400Y-45582800D02*
X18898400Y-36306800D01*
X18858400Y-45545800D02*
X18858400Y-36343800D01*
X18818400Y-45507800D02*
X18818400Y-36381800D01*
X18778400Y-45469800D02*
X18778400Y-36419800D01*
X18738400Y-45430800D02*
X18738400Y-36458800D01*
X18698400Y-45391800D02*
X18698400Y-36497800D01*
X18658400Y-45350800D02*
X18658400Y-36538800D01*
X18618400Y-45309800D02*
X18618400Y-36579800D01*
X18578400Y-45267800D02*
X18578400Y-36621800D01*
X18538400Y-45225800D02*
X18538400Y-36663800D01*
X18498400Y-45182800D02*
X18498400Y-36706800D01*
X18458400Y-45137800D02*
X18458400Y-36751800D01*
X18418400Y-45092800D02*
X18418400Y-36796800D01*
X18378400Y-45046800D02*
X18378400Y-36842800D01*
X18338400Y-45000800D02*
X18338400Y-36888800D01*
X18298400Y-44952800D02*
X18298400Y-36936800D01*
X18258400Y-44903800D02*
X18258400Y-36985800D01*
X18218400Y-44853800D02*
X18218400Y-37035800D01*
X18178400Y-44803800D02*
X18178400Y-37085800D01*
X18138400Y-44751800D02*
X18138400Y-37137800D01*
X18098400Y-44698800D02*
X18098400Y-37190800D01*
X18058400Y-44644800D02*
X18058400Y-37244800D01*
X18018400Y-44588800D02*
X18018400Y-37300800D01*
X17978400Y-44532800D02*
X17978400Y-37356800D01*
X17938400Y-44474800D02*
X17938400Y-37414800D01*
X17898400Y-44414800D02*
X17898400Y-37474800D01*
X17858400Y-44353800D02*
X17858400Y-37535800D01*
X17818400Y-44291800D02*
X17818400Y-37597800D01*
X17778400Y-44226800D02*
X17778400Y-37662800D01*
X17738400Y-44161800D02*
X17738400Y-37727800D01*
X17698400Y-44093800D02*
X17698400Y-37795800D01*
X17658400Y-44023800D02*
X17658400Y-37865800D01*
X17618400Y-43951800D02*
X17618400Y-37937800D01*
X17578400Y-43877800D02*
X17578400Y-38011800D01*
X17538400Y-43800800D02*
X17538400Y-38088800D01*
X17498400Y-43721800D02*
X17498400Y-38167800D01*
X17458400Y-43639800D02*
X17458400Y-38249800D01*
X17418400Y-43554800D02*
X17418400Y-38334800D01*
X17378400Y-43465800D02*
X17378400Y-38423800D01*
X17338400Y-43372800D02*
X17338400Y-38516800D01*
X17298400Y-43275800D02*
X17298400Y-38613800D01*
X17258400Y-43174800D02*
X17258400Y-38714800D01*
X17218400Y-43066800D02*
X17218400Y-38822800D01*
X17178400Y-42953800D02*
X17178400Y-38935800D01*
X17138400Y-42832800D02*
X17138400Y-39056800D01*
X17098400Y-42701800D02*
X17098400Y-39187800D01*
X17058400Y-42560800D02*
X17058400Y-39328800D01*
X17018400Y-42404800D02*
X17018400Y-39484800D01*
X16978400Y-42229800D02*
X16978400Y-39659800D01*
X16938400Y-42026800D02*
X16938400Y-39862800D01*
X16898400Y-41775800D02*
X16898400Y-40113800D01*
X16858400Y-41408800D02*
X16858400Y-40480800D01*
X28879400Y-40944800D02*
X27079400Y-40944800D01*
X27979400Y-41844800D02*
X27979400Y-40044800D01*
X24758263Y-55914600D02*
G75*
G03X19963964Y-55916000I-2396863J-981400D01*
G01*
X24758263Y-57877400D02*
G75*
G02X19963964Y-57876000I-2396863J981400D01*
G01*
X24758263Y-57877400D02*
G75*
G03X24758836Y-55916000I-2396863J981400D01*
G01*
X22361400Y-54346000D02*
X22361400Y-59446000D01*
X22401400Y-54346000D02*
X22401400Y-55916000D01*
X22401400Y-57876000D02*
X22401400Y-59446000D01*
X22441400Y-54347000D02*
X22441400Y-55916000D01*
X22441400Y-57876000D02*
X22441400Y-59445000D01*
X22481400Y-54348000D02*
X22481400Y-55916000D01*
X22481400Y-57876000D02*
X22481400Y-59444000D01*
X22521400Y-54350000D02*
X22521400Y-55916000D01*
X22521400Y-57876000D02*
X22521400Y-59442000D01*
X22561400Y-54353000D02*
X22561400Y-55916000D01*
X22561400Y-57876000D02*
X22561400Y-59439000D01*
X22601400Y-54357000D02*
X22601400Y-55916000D01*
X22601400Y-57876000D02*
X22601400Y-59435000D01*
X22641400Y-54361000D02*
X22641400Y-55916000D01*
X22641400Y-57876000D02*
X22641400Y-59431000D01*
X22681400Y-54365000D02*
X22681400Y-55916000D01*
X22681400Y-57876000D02*
X22681400Y-59427000D01*
X22721400Y-54371000D02*
X22721400Y-55916000D01*
X22721400Y-57876000D02*
X22721400Y-59421000D01*
X22761400Y-54377000D02*
X22761400Y-55916000D01*
X22761400Y-57876000D02*
X22761400Y-59415000D01*
X22801400Y-54383000D02*
X22801400Y-55916000D01*
X22801400Y-57876000D02*
X22801400Y-59409000D01*
X22841400Y-54390000D02*
X22841400Y-55916000D01*
X22841400Y-57876000D02*
X22841400Y-59402000D01*
X22881400Y-54398000D02*
X22881400Y-55916000D01*
X22881400Y-57876000D02*
X22881400Y-59394000D01*
X22921400Y-54407000D02*
X22921400Y-55916000D01*
X22921400Y-57876000D02*
X22921400Y-59385000D01*
X22961400Y-54416000D02*
X22961400Y-55916000D01*
X22961400Y-57876000D02*
X22961400Y-59376000D01*
X23001400Y-54426000D02*
X23001400Y-55916000D01*
X23001400Y-57876000D02*
X23001400Y-59366000D01*
X23041400Y-54436000D02*
X23041400Y-55916000D01*
X23041400Y-57876000D02*
X23041400Y-59356000D01*
X23082400Y-54448000D02*
X23082400Y-55916000D01*
X23082400Y-57876000D02*
X23082400Y-59344000D01*
X23122400Y-54460000D02*
X23122400Y-55916000D01*
X23122400Y-57876000D02*
X23122400Y-59332000D01*
X23162400Y-54472000D02*
X23162400Y-55916000D01*
X23162400Y-57876000D02*
X23162400Y-59320000D01*
X23202400Y-54486000D02*
X23202400Y-55916000D01*
X23202400Y-57876000D02*
X23202400Y-59306000D01*
X23242400Y-54500000D02*
X23242400Y-55916000D01*
X23242400Y-57876000D02*
X23242400Y-59292000D01*
X23282400Y-54514000D02*
X23282400Y-55916000D01*
X23282400Y-57876000D02*
X23282400Y-59278000D01*
X23322400Y-54530000D02*
X23322400Y-55916000D01*
X23322400Y-57876000D02*
X23322400Y-59262000D01*
X23362400Y-54546000D02*
X23362400Y-55916000D01*
X23362400Y-57876000D02*
X23362400Y-59246000D01*
X23402400Y-54563000D02*
X23402400Y-55916000D01*
X23402400Y-57876000D02*
X23402400Y-59229000D01*
X23442400Y-54581000D02*
X23442400Y-55916000D01*
X23442400Y-57876000D02*
X23442400Y-59211000D01*
X23482400Y-54600000D02*
X23482400Y-55916000D01*
X23482400Y-57876000D02*
X23482400Y-59192000D01*
X23522400Y-54620000D02*
X23522400Y-55916000D01*
X23522400Y-57876000D02*
X23522400Y-59172000D01*
X23562400Y-54640000D02*
X23562400Y-55916000D01*
X23562400Y-57876000D02*
X23562400Y-59152000D01*
X23602400Y-54662000D02*
X23602400Y-55916000D01*
X23602400Y-57876000D02*
X23602400Y-59130000D01*
X23642400Y-54684000D02*
X23642400Y-55916000D01*
X23642400Y-57876000D02*
X23642400Y-59108000D01*
X23682400Y-54707000D02*
X23682400Y-55916000D01*
X23682400Y-57876000D02*
X23682400Y-59085000D01*
X23722400Y-54731000D02*
X23722400Y-55916000D01*
X23722400Y-57876000D02*
X23722400Y-59061000D01*
X23762400Y-54756000D02*
X23762400Y-55916000D01*
X23762400Y-57876000D02*
X23762400Y-59036000D01*
X23802400Y-54783000D02*
X23802400Y-55916000D01*
X23802400Y-57876000D02*
X23802400Y-59009000D01*
X23842400Y-54810000D02*
X23842400Y-55916000D01*
X23842400Y-57876000D02*
X23842400Y-58982000D01*
X23882400Y-54838000D02*
X23882400Y-55916000D01*
X23882400Y-57876000D02*
X23882400Y-58954000D01*
X23922400Y-54868000D02*
X23922400Y-55916000D01*
X23922400Y-57876000D02*
X23922400Y-58924000D01*
X23962400Y-54899000D02*
X23962400Y-55916000D01*
X23962400Y-57876000D02*
X23962400Y-58893000D01*
X24002400Y-54931000D02*
X24002400Y-55916000D01*
X24002400Y-57876000D02*
X24002400Y-58861000D01*
X24042400Y-54964000D02*
X24042400Y-55916000D01*
X24042400Y-57876000D02*
X24042400Y-58828000D01*
X24082400Y-54999000D02*
X24082400Y-55916000D01*
X24082400Y-57876000D02*
X24082400Y-58793000D01*
X24122400Y-55035000D02*
X24122400Y-55916000D01*
X24122400Y-57876000D02*
X24122400Y-58757000D01*
X24162400Y-55073000D02*
X24162400Y-55916000D01*
X24162400Y-57876000D02*
X24162400Y-58719000D01*
X24202400Y-55113000D02*
X24202400Y-55916000D01*
X24202400Y-57876000D02*
X24202400Y-58679000D01*
X24242400Y-55154000D02*
X24242400Y-55916000D01*
X24242400Y-57876000D02*
X24242400Y-58638000D01*
X24282400Y-55197000D02*
X24282400Y-55916000D01*
X24282400Y-57876000D02*
X24282400Y-58595000D01*
X24322400Y-55242000D02*
X24322400Y-55916000D01*
X24322400Y-57876000D02*
X24322400Y-58550000D01*
X24362400Y-55290000D02*
X24362400Y-58502000D01*
X24402400Y-55340000D02*
X24402400Y-58452000D01*
X24442400Y-55392000D02*
X24442400Y-58400000D01*
X24482400Y-55448000D02*
X24482400Y-58344000D01*
X24522400Y-55506000D02*
X24522400Y-58286000D01*
X24562400Y-55569000D02*
X24562400Y-58223000D01*
X24602400Y-55635000D02*
X24602400Y-58157000D01*
X24642400Y-55707000D02*
X24642400Y-58085000D01*
X24682400Y-55784000D02*
X24682400Y-58008000D01*
X24722400Y-55868000D02*
X24722400Y-57924000D01*
X24762400Y-55962000D02*
X24762400Y-57830000D01*
X24802400Y-56067000D02*
X24802400Y-57725000D01*
X24842400Y-56189000D02*
X24842400Y-57603000D01*
X24882400Y-56337000D02*
X24882400Y-57455000D01*
X24922400Y-56542000D02*
X24922400Y-57250000D01*
X19161400Y-56896000D02*
X20361400Y-56896000D01*
X19761400Y-56246000D02*
X19761400Y-57546000D01*
D13*
X22481600Y-25694200D02*
X22481600Y-25294200D01*
X25981600Y-26794200D02*
X18981600Y-26794200D01*
X25981600Y-25694200D02*
X18981600Y-25694200D01*
X25981600Y-32894200D02*
X25981600Y-25294200D01*
X18981600Y-25294200D02*
X18981600Y-32894200D01*
X18981600Y-32894200D02*
X25981600Y-32894200D01*
X51818600Y-22112800D02*
X51818600Y-21712800D01*
X48318600Y-22112800D02*
X48318600Y-21712800D01*
X44818600Y-22112800D02*
X44818600Y-21712800D01*
X55318600Y-23212800D02*
X41318600Y-23212800D01*
X55318600Y-22112800D02*
X41318600Y-22112800D01*
X55318600Y-29312800D02*
X55318600Y-21712800D01*
X41318600Y-21712800D02*
X41318600Y-29312800D01*
X41318600Y-29312800D02*
X55318600Y-29312800D01*
X30134560Y-61813440D02*
X31435040Y-61813440D01*
X30134560Y-54315360D02*
X31435040Y-54315360D01*
X31435040Y-54315360D02*
X31435040Y-61813440D01*
X26832560Y-54315360D02*
X28133040Y-54315360D01*
X26832560Y-54315360D02*
X26832560Y-61813440D01*
X26832560Y-61813440D02*
X28133040Y-61813440D01*
D11*
X131039600Y-66551000D02*
X131039600Y-68881000D01*
X116049600Y-66551000D02*
X116049600Y-68671000D01*
X131039600Y-66551000D02*
X116049600Y-66551000D01*
X131039600Y-80641000D02*
X116049600Y-80641000D01*
X131039600Y-71841000D02*
X131039600Y-80641000D01*
X116049600Y-72041000D02*
X116049600Y-80641000D01*
X84277200Y-61468000D02*
X84277200Y-53848000D01*
X63957200Y-53848000D02*
X63957200Y-61468000D01*
X63957200Y-55118000D02*
X84277200Y-55118000D01*
X84277200Y-61468000D02*
X63957200Y-61468000D01*
X84277200Y-53848000D02*
X63957200Y-53848000D01*
X53564800Y-41315000D02*
X53564800Y-31075000D01*
X58205800Y-41315000D02*
X58205800Y-31075000D01*
X53564800Y-41315000D02*
X58205800Y-41315000D01*
X53564800Y-31075000D02*
X58205800Y-31075000D01*
X55074800Y-41315000D02*
X55074800Y-31075000D01*
X53564800Y-38045000D02*
X55074800Y-38045000D01*
X53564800Y-34344000D02*
X55074800Y-34344000D01*
X45944800Y-41289600D02*
X45944800Y-31049600D01*
X50585800Y-41289600D02*
X50585800Y-31049600D01*
X45944800Y-41289600D02*
X50585800Y-41289600D01*
X45944800Y-31049600D02*
X50585800Y-31049600D01*
X47454800Y-41289600D02*
X47454800Y-31049600D01*
X45944800Y-38019600D02*
X47454800Y-38019600D01*
X45944800Y-34318600D02*
X47454800Y-34318600D01*
X38401000Y-41391200D02*
X38401000Y-31151200D01*
X43042000Y-41391200D02*
X43042000Y-31151200D01*
X38401000Y-41391200D02*
X43042000Y-41391200D01*
X38401000Y-31151200D02*
X43042000Y-31151200D01*
X39911000Y-41391200D02*
X39911000Y-31151200D01*
X38401000Y-38121200D02*
X39911000Y-38121200D01*
X38401000Y-34420200D02*
X39911000Y-34420200D01*
X53124800Y-64871800D02*
X59244800Y-64871800D01*
X59244800Y-64871800D02*
X59244800Y-47751800D01*
X59244800Y-47751800D02*
X53124800Y-47751800D01*
X53124800Y-47751800D02*
X53124800Y-64871800D01*
X56184800Y-67631800D02*
X56184800Y-64871800D01*
X56184800Y-44991800D02*
X56184800Y-47751800D01*
X45276200Y-65049600D02*
X51396200Y-65049600D01*
X51396200Y-65049600D02*
X51396200Y-47929600D01*
X51396200Y-47929600D02*
X45276200Y-47929600D01*
X45276200Y-47929600D02*
X45276200Y-65049600D01*
X48336200Y-67809600D02*
X48336200Y-65049600D01*
X48336200Y-45169600D02*
X48336200Y-47929600D01*
X37681600Y-65049600D02*
X43801600Y-65049600D01*
X43801600Y-65049600D02*
X43801600Y-47929600D01*
X43801600Y-47929600D02*
X37681600Y-47929600D01*
X37681600Y-47929600D02*
X37681600Y-65049600D01*
X40741600Y-67809600D02*
X40741600Y-65049600D01*
X40741600Y-45169600D02*
X40741600Y-47929600D01*
X88348807Y-71180779D02*
G75*
G02X89144600Y-72505200I-704207J-1324421D01*
G01*
X89143902Y-72479015D02*
G75*
G02X86940600Y-71181200I-1499302J-26185D01*
G01*
X92854600Y-72505200D02*
G75*
G03X92854600Y-72505200I-5210000J0D01*
G01*
X29178400Y-52810400D02*
X18937400Y-52810400D01*
X29178400Y-48169400D02*
X18937400Y-48169400D01*
X29178400Y-52810400D02*
X29178400Y-48169400D01*
X18937400Y-52810400D02*
X18937400Y-48169400D01*
X29178400Y-51300400D02*
X18937400Y-51300400D01*
X25907400Y-52810400D02*
X25907400Y-51300400D01*
X22207400Y-52810400D02*
X22207400Y-51300400D01*
D13*
X24534905Y-68699181D02*
X24534905Y-67699181D01*
X24773000Y-67699181D01*
X24915858Y-67746800D01*
X25011096Y-67842038D01*
X25058715Y-67937276D01*
X25106334Y-68127752D01*
X25106334Y-68270610D01*
X25058715Y-68461086D01*
X25011096Y-68556324D01*
X24915858Y-68651562D01*
X24773000Y-68699181D01*
X24534905Y-68699181D01*
X26058715Y-68699181D02*
X25487286Y-68699181D01*
X25773000Y-68699181D02*
X25773000Y-67699181D01*
X25677762Y-67842038D01*
X25582524Y-67937276D01*
X25487286Y-67984895D01*
X32286962Y-67661581D02*
X31953628Y-67185390D01*
X31715533Y-67661581D02*
X31715533Y-66661581D01*
X32096486Y-66661581D01*
X32191724Y-66709200D01*
X32239343Y-66756819D01*
X32286962Y-66852057D01*
X32286962Y-66994914D01*
X32239343Y-67090152D01*
X32191724Y-67137771D01*
X32096486Y-67185390D01*
X31715533Y-67185390D01*
X32572676Y-66661581D02*
X32906009Y-67661581D01*
X33239343Y-66661581D01*
X33525057Y-66756819D02*
X33572676Y-66709200D01*
X33667914Y-66661581D01*
X33906010Y-66661581D01*
X34001248Y-66709200D01*
X34048867Y-66756819D01*
X34096486Y-66852057D01*
X34096486Y-66947295D01*
X34048867Y-67090152D01*
X33477438Y-67661581D01*
X34096486Y-67661581D01*
D14*
X98924533Y-73338267D02*
X100363867Y-73338267D01*
X100533200Y-73253600D01*
X100617867Y-73168933D01*
X100702533Y-72999600D01*
X100702533Y-72660933D01*
X100617867Y-72491600D01*
X100533200Y-72406933D01*
X100363867Y-72322267D01*
X98924533Y-72322267D01*
X98924533Y-70628933D02*
X98924533Y-71475600D01*
X99771200Y-71560266D01*
X99686533Y-71475600D01*
X99601867Y-71306266D01*
X99601867Y-70882933D01*
X99686533Y-70713600D01*
X99771200Y-70628933D01*
X99940533Y-70544266D01*
X100363867Y-70544266D01*
X100533200Y-70628933D01*
X100617867Y-70713600D01*
X100702533Y-70882933D01*
X100702533Y-71306266D01*
X100617867Y-71475600D01*
X100533200Y-71560266D01*
X107687533Y-65972269D02*
X106756200Y-65972269D01*
X106586867Y-66056935D01*
X106502200Y-66226269D01*
X106502200Y-66564935D01*
X106586867Y-66734269D01*
X107602867Y-65972269D02*
X107687533Y-66141602D01*
X107687533Y-66564935D01*
X107602867Y-66734269D01*
X107433533Y-66818935D01*
X107264200Y-66818935D01*
X107094867Y-66734269D01*
X107010200Y-66564935D01*
X107010200Y-66141602D01*
X106925533Y-65972269D01*
X107687533Y-65125602D02*
X106502200Y-65125602D01*
X106840867Y-65125602D02*
X106671533Y-65040935D01*
X106586867Y-64956268D01*
X106502200Y-64786935D01*
X106502200Y-64617602D01*
X107687533Y-63262935D02*
X105909533Y-63262935D01*
X107602867Y-63262935D02*
X107687533Y-63432268D01*
X107687533Y-63770935D01*
X107602867Y-63940268D01*
X107518200Y-64024935D01*
X107348867Y-64109601D01*
X106840867Y-64109601D01*
X106671533Y-64024935D01*
X106586867Y-63940268D01*
X106502200Y-63770935D01*
X106502200Y-63432268D01*
X106586867Y-63262935D01*
X106502200Y-61654268D02*
X107687533Y-61654268D01*
X106502200Y-62416268D02*
X107433533Y-62416268D01*
X107602867Y-62331601D01*
X107687533Y-62162268D01*
X107687533Y-61908268D01*
X107602867Y-61738934D01*
X107518200Y-61654268D01*
X107687533Y-60807601D02*
X106502200Y-60807601D01*
X105909533Y-60807601D02*
X105994200Y-60892267D01*
X106078867Y-60807601D01*
X105994200Y-60722934D01*
X105909533Y-60807601D01*
X106078867Y-60807601D01*
X106502200Y-59960934D02*
X107687533Y-59960934D01*
X106671533Y-59960934D02*
X106586867Y-59876267D01*
X106502200Y-59706934D01*
X106502200Y-59452934D01*
X106586867Y-59283600D01*
X106756200Y-59198934D01*
X107687533Y-59198934D01*
X107687533Y-58098267D02*
X107602867Y-58267600D01*
X107518200Y-58352267D01*
X107348867Y-58436933D01*
X106840867Y-58436933D01*
X106671533Y-58352267D01*
X106586867Y-58267600D01*
X106502200Y-58098267D01*
X106502200Y-57844267D01*
X106586867Y-57674933D01*
X106671533Y-57590267D01*
X106840867Y-57505600D01*
X107348867Y-57505600D01*
X107518200Y-57590267D01*
X107602867Y-57674933D01*
X107687533Y-57844267D01*
X107687533Y-58098267D01*
X107856867Y-57166933D02*
X107856867Y-55812266D01*
X107687533Y-55388933D02*
X106502200Y-55388933D01*
X106671533Y-55388933D02*
X106586867Y-55304266D01*
X106502200Y-55134933D01*
X106502200Y-54880933D01*
X106586867Y-54711599D01*
X106756200Y-54626933D01*
X107687533Y-54626933D01*
X106756200Y-54626933D02*
X106586867Y-54542266D01*
X106502200Y-54372933D01*
X106502200Y-54118933D01*
X106586867Y-53949599D01*
X106756200Y-53864933D01*
X107687533Y-53864933D01*
X107687533Y-53018266D02*
X106502200Y-53018266D01*
X105909533Y-53018266D02*
X105994200Y-53102932D01*
X106078867Y-53018266D01*
X105994200Y-52933599D01*
X105909533Y-53018266D01*
X106078867Y-53018266D01*
X106502200Y-52171599D02*
X107687533Y-52171599D01*
X106671533Y-52171599D02*
X106586867Y-52086932D01*
X106502200Y-51917599D01*
X106502200Y-51663599D01*
X106586867Y-51494265D01*
X106756200Y-51409599D01*
X107687533Y-51409599D01*
X107687533Y-50562932D02*
X106502200Y-50562932D01*
X105909533Y-50562932D02*
X105994200Y-50647598D01*
X106078867Y-50562932D01*
X105994200Y-50478265D01*
X105909533Y-50562932D01*
X106078867Y-50562932D01*
D13*
X84538654Y-82359761D02*
X84538654Y-81359761D01*
X84776749Y-81359761D01*
X84919607Y-81407380D01*
X85014845Y-81502618D01*
X85062464Y-81597856D01*
X85110083Y-81788332D01*
X85110083Y-81931190D01*
X85062464Y-82121666D01*
X85014845Y-82216904D01*
X84919607Y-82312142D01*
X84776749Y-82359761D01*
X84538654Y-82359761D01*
X85491035Y-82312142D02*
X85633892Y-82359761D01*
X85871988Y-82359761D01*
X85967226Y-82312142D01*
X86014845Y-82264523D01*
X86062464Y-82169285D01*
X86062464Y-82074047D01*
X86014845Y-81978809D01*
X85967226Y-81931190D01*
X85871988Y-81883570D01*
X85681511Y-81835951D01*
X85586273Y-81788332D01*
X85538654Y-81740713D01*
X85491035Y-81645475D01*
X85491035Y-81550237D01*
X85538654Y-81454999D01*
X85586273Y-81407380D01*
X85681511Y-81359761D01*
X85919607Y-81359761D01*
X86062464Y-81407380D01*
X87014845Y-82359761D02*
X86443416Y-82359761D01*
X86729130Y-82359761D02*
X86729130Y-81359761D01*
X86633892Y-81502618D01*
X86538654Y-81597856D01*
X86443416Y-81645475D01*
X77976505Y-21000981D02*
X77976505Y-20000981D01*
X78357458Y-20000981D01*
X78452696Y-20048600D01*
X78500315Y-20096219D01*
X78547934Y-20191457D01*
X78547934Y-20334314D01*
X78500315Y-20429552D01*
X78452696Y-20477171D01*
X78357458Y-20524790D01*
X77976505Y-20524790D01*
X78928886Y-20096219D02*
X78976505Y-20048600D01*
X79071743Y-20000981D01*
X79309839Y-20000981D01*
X79405077Y-20048600D01*
X79452696Y-20096219D01*
X79500315Y-20191457D01*
X79500315Y-20286695D01*
X79452696Y-20429552D01*
X78881267Y-21000981D01*
X79500315Y-21000981D01*
D11*
X67590315Y-30340981D02*
X67018886Y-30340981D01*
X67304600Y-30340981D02*
X67304600Y-29340981D01*
X67209362Y-29483838D01*
X67114124Y-29579076D01*
X67018886Y-29626695D01*
D13*
X23012734Y-48611943D02*
X22965115Y-48659562D01*
X22822258Y-48707181D01*
X22727020Y-48707181D01*
X22584162Y-48659562D01*
X22488924Y-48564324D01*
X22441305Y-48469086D01*
X22393686Y-48278610D01*
X22393686Y-48135752D01*
X22441305Y-47945276D01*
X22488924Y-47850038D01*
X22584162Y-47754800D01*
X22727020Y-47707181D01*
X22822258Y-47707181D01*
X22965115Y-47754800D01*
X23012734Y-47802419D01*
X23965115Y-48707181D02*
X23393686Y-48707181D01*
X23679400Y-48707181D02*
X23679400Y-47707181D01*
X23584162Y-47850038D01*
X23488924Y-47945276D01*
X23393686Y-47992895D01*
X22194734Y-53693143D02*
X22147115Y-53740762D01*
X22004258Y-53788381D01*
X21909020Y-53788381D01*
X21766162Y-53740762D01*
X21670924Y-53645524D01*
X21623305Y-53550286D01*
X21575686Y-53359810D01*
X21575686Y-53216952D01*
X21623305Y-53026476D01*
X21670924Y-52931238D01*
X21766162Y-52836000D01*
X21909020Y-52788381D01*
X22004258Y-52788381D01*
X22147115Y-52836000D01*
X22194734Y-52883619D01*
X22575686Y-52883619D02*
X22623305Y-52836000D01*
X22718543Y-52788381D01*
X22956639Y-52788381D01*
X23051877Y-52836000D01*
X23099496Y-52883619D01*
X23147115Y-52978857D01*
X23147115Y-53074095D01*
X23099496Y-53216952D01*
X22528067Y-53788381D01*
X23147115Y-53788381D01*
X22148267Y-33546581D02*
X22148267Y-34260867D01*
X22100647Y-34403724D01*
X22005409Y-34498962D01*
X21862552Y-34546581D01*
X21767314Y-34546581D01*
X23148267Y-34546581D02*
X22576838Y-34546581D01*
X22862552Y-34546581D02*
X22862552Y-33546581D01*
X22767314Y-33689438D01*
X22672076Y-33784676D01*
X22576838Y-33832295D01*
X47985267Y-29965181D02*
X47985267Y-30679467D01*
X47937647Y-30822324D01*
X47842409Y-30917562D01*
X47699552Y-30965181D01*
X47604314Y-30965181D01*
X48413838Y-30060419D02*
X48461457Y-30012800D01*
X48556695Y-29965181D01*
X48794791Y-29965181D01*
X48890029Y-30012800D01*
X48937648Y-30060419D01*
X48985267Y-30155657D01*
X48985267Y-30250895D01*
X48937648Y-30393752D01*
X48366219Y-30965181D01*
X48985267Y-30965181D01*
X25285961Y-58180266D02*
X25285961Y-58656457D01*
X24285961Y-58656457D01*
X25285961Y-57323123D02*
X25285961Y-57894552D01*
X25285961Y-57608838D02*
X24285961Y-57608838D01*
X24428818Y-57704076D01*
X24524056Y-57799314D01*
X24571675Y-57894552D01*
X119251505Y-65793381D02*
X119251505Y-64793381D01*
X119632458Y-64793381D01*
X119727696Y-64841000D01*
X119775315Y-64888619D01*
X119822934Y-64983857D01*
X119822934Y-65126714D01*
X119775315Y-65221952D01*
X119727696Y-65269571D01*
X119632458Y-65317190D01*
X119251505Y-65317190D01*
X120775315Y-65793381D02*
X120203886Y-65793381D01*
X120489600Y-65793381D02*
X120489600Y-64793381D01*
X120394362Y-64936238D01*
X120299124Y-65031476D01*
X120203886Y-65079095D01*
X70970533Y-62243714D02*
X70970533Y-63243714D01*
X70970533Y-62291333D02*
X71065771Y-62243714D01*
X71256248Y-62243714D01*
X71351486Y-62291333D01*
X71399105Y-62338952D01*
X71446724Y-62434190D01*
X71446724Y-62719905D01*
X71399105Y-62815143D01*
X71351486Y-62862762D01*
X71256248Y-62910381D01*
X71065771Y-62910381D01*
X70970533Y-62862762D01*
X72018152Y-62910381D02*
X71922914Y-62862762D01*
X71875295Y-62815143D01*
X71827676Y-62719905D01*
X71827676Y-62434190D01*
X71875295Y-62338952D01*
X71922914Y-62291333D01*
X72018152Y-62243714D01*
X72161010Y-62243714D01*
X72256248Y-62291333D01*
X72303867Y-62338952D01*
X72351486Y-62434190D01*
X72351486Y-62719905D01*
X72303867Y-62815143D01*
X72256248Y-62862762D01*
X72161010Y-62910381D01*
X72018152Y-62910381D01*
X73208629Y-62243714D02*
X73208629Y-63053238D01*
X73161010Y-63148476D01*
X73113391Y-63196095D01*
X73018152Y-63243714D01*
X72875295Y-63243714D01*
X72780057Y-63196095D01*
X73208629Y-62862762D02*
X73113391Y-62910381D01*
X72922914Y-62910381D01*
X72827676Y-62862762D01*
X72780057Y-62815143D01*
X72732438Y-62719905D01*
X72732438Y-62434190D01*
X72780057Y-62338952D01*
X72827676Y-62291333D01*
X72922914Y-62243714D01*
X73113391Y-62243714D01*
X73208629Y-62291333D01*
X74113391Y-62910381D02*
X74113391Y-62386571D01*
X74065772Y-62291333D01*
X73970534Y-62243714D01*
X73780057Y-62243714D01*
X73684819Y-62291333D01*
X74113391Y-62862762D02*
X74018153Y-62910381D01*
X73780057Y-62910381D01*
X73684819Y-62862762D01*
X73637200Y-62767524D01*
X73637200Y-62672286D01*
X73684819Y-62577048D01*
X73780057Y-62529429D01*
X74018153Y-62529429D01*
X74113391Y-62481810D01*
X75018153Y-62910381D02*
X75018153Y-62386571D01*
X74970534Y-62291333D01*
X74875296Y-62243714D01*
X74684819Y-62243714D01*
X74589581Y-62291333D01*
X75018153Y-62862762D02*
X74922915Y-62910381D01*
X74684819Y-62910381D01*
X74589581Y-62862762D01*
X74541962Y-62767524D01*
X74541962Y-62672286D01*
X74589581Y-62577048D01*
X74684819Y-62529429D01*
X74922915Y-62529429D01*
X75018153Y-62481810D01*
X75494343Y-62910381D02*
X75494343Y-62243714D01*
X75494343Y-62338952D02*
X75541962Y-62291333D01*
X75637200Y-62243714D01*
X75780058Y-62243714D01*
X75875296Y-62291333D01*
X75922915Y-62386571D01*
X75922915Y-62910381D01*
X75922915Y-62386571D02*
X75970534Y-62291333D01*
X76065772Y-62243714D01*
X76208629Y-62243714D01*
X76303867Y-62291333D01*
X76351486Y-62386571D01*
X76351486Y-62910381D01*
X77351486Y-62910381D02*
X76780057Y-62910381D01*
X77065771Y-62910381D02*
X77065771Y-61910381D01*
X76970533Y-62053238D01*
X76875295Y-62148476D01*
X76780057Y-62196095D01*
X53112419Y-36290238D02*
X53064800Y-36385476D01*
X52969562Y-36480714D01*
X52826705Y-36623571D01*
X52779086Y-36718810D01*
X52779086Y-36814048D01*
X53017181Y-36766429D02*
X52969562Y-36861667D01*
X52874324Y-36956905D01*
X52683848Y-37004524D01*
X52350514Y-37004524D01*
X52160038Y-36956905D01*
X52064800Y-36861667D01*
X52017181Y-36766429D01*
X52017181Y-36575952D01*
X52064800Y-36480714D01*
X52160038Y-36385476D01*
X52350514Y-36337857D01*
X52683848Y-36337857D01*
X52874324Y-36385476D01*
X52969562Y-36480714D01*
X53017181Y-36575952D01*
X53017181Y-36766429D01*
X53017181Y-35385476D02*
X53017181Y-35956905D01*
X53017181Y-35671191D02*
X52017181Y-35671191D01*
X52160038Y-35766429D01*
X52255276Y-35861667D01*
X52302895Y-35956905D01*
X45492419Y-36264838D02*
X45444800Y-36360076D01*
X45349562Y-36455314D01*
X45206705Y-36598171D01*
X45159086Y-36693410D01*
X45159086Y-36788648D01*
X45397181Y-36741029D02*
X45349562Y-36836267D01*
X45254324Y-36931505D01*
X45063848Y-36979124D01*
X44730514Y-36979124D01*
X44540038Y-36931505D01*
X44444800Y-36836267D01*
X44397181Y-36741029D01*
X44397181Y-36550552D01*
X44444800Y-36455314D01*
X44540038Y-36360076D01*
X44730514Y-36312457D01*
X45063848Y-36312457D01*
X45254324Y-36360076D01*
X45349562Y-36455314D01*
X45397181Y-36550552D01*
X45397181Y-36741029D01*
X44492419Y-35931505D02*
X44444800Y-35883886D01*
X44397181Y-35788648D01*
X44397181Y-35550552D01*
X44444800Y-35455314D01*
X44492419Y-35407695D01*
X44587657Y-35360076D01*
X44682895Y-35360076D01*
X44825752Y-35407695D01*
X45397181Y-35979124D01*
X45397181Y-35360076D01*
X37948619Y-36366438D02*
X37901000Y-36461676D01*
X37805762Y-36556914D01*
X37662905Y-36699771D01*
X37615286Y-36795010D01*
X37615286Y-36890248D01*
X37853381Y-36842629D02*
X37805762Y-36937867D01*
X37710524Y-37033105D01*
X37520048Y-37080724D01*
X37186714Y-37080724D01*
X36996238Y-37033105D01*
X36901000Y-36937867D01*
X36853381Y-36842629D01*
X36853381Y-36652152D01*
X36901000Y-36556914D01*
X36996238Y-36461676D01*
X37186714Y-36414057D01*
X37520048Y-36414057D01*
X37710524Y-36461676D01*
X37805762Y-36556914D01*
X37853381Y-36652152D01*
X37853381Y-36842629D01*
X36853381Y-36080724D02*
X36853381Y-35461676D01*
X37234333Y-35795010D01*
X37234333Y-35652152D01*
X37281952Y-35556914D01*
X37329571Y-35509295D01*
X37424810Y-35461676D01*
X37662905Y-35461676D01*
X37758143Y-35509295D01*
X37805762Y-35556914D01*
X37853381Y-35652152D01*
X37853381Y-35937867D01*
X37805762Y-36033105D01*
X37758143Y-36080724D01*
X52577181Y-56478466D02*
X52100990Y-56811800D01*
X52577181Y-57049895D02*
X51577181Y-57049895D01*
X51577181Y-56668942D01*
X51624800Y-56573704D01*
X51672419Y-56526085D01*
X51767657Y-56478466D01*
X51910514Y-56478466D01*
X52005752Y-56526085D01*
X52053371Y-56573704D01*
X52100990Y-56668942D01*
X52100990Y-57049895D01*
X52577181Y-55526085D02*
X52577181Y-56097514D01*
X52577181Y-55811800D02*
X51577181Y-55811800D01*
X51720038Y-55907038D01*
X51815276Y-56002276D01*
X51862895Y-56097514D01*
X44728581Y-56656266D02*
X44252390Y-56989600D01*
X44728581Y-57227695D02*
X43728581Y-57227695D01*
X43728581Y-56846742D01*
X43776200Y-56751504D01*
X43823819Y-56703885D01*
X43919057Y-56656266D01*
X44061914Y-56656266D01*
X44157152Y-56703885D01*
X44204771Y-56751504D01*
X44252390Y-56846742D01*
X44252390Y-57227695D01*
X43823819Y-56275314D02*
X43776200Y-56227695D01*
X43728581Y-56132457D01*
X43728581Y-55894361D01*
X43776200Y-55799123D01*
X43823819Y-55751504D01*
X43919057Y-55703885D01*
X44014295Y-55703885D01*
X44157152Y-55751504D01*
X44728581Y-56322933D01*
X44728581Y-55703885D01*
X37133981Y-56656266D02*
X36657790Y-56989600D01*
X37133981Y-57227695D02*
X36133981Y-57227695D01*
X36133981Y-56846742D01*
X36181600Y-56751504D01*
X36229219Y-56703885D01*
X36324457Y-56656266D01*
X36467314Y-56656266D01*
X36562552Y-56703885D01*
X36610171Y-56751504D01*
X36657790Y-56846742D01*
X36657790Y-57227695D01*
X36133981Y-56322933D02*
X36133981Y-55703885D01*
X36514933Y-56037219D01*
X36514933Y-55894361D01*
X36562552Y-55799123D01*
X36610171Y-55751504D01*
X36705410Y-55703885D01*
X36943505Y-55703885D01*
X37038743Y-55751504D01*
X37086362Y-55799123D01*
X37133981Y-55894361D01*
X37133981Y-56180076D01*
X37086362Y-56275314D01*
X37038743Y-56322933D01*
X81696981Y-73101438D02*
X81220790Y-73434772D01*
X81696981Y-73672867D02*
X80696981Y-73672867D01*
X80696981Y-73291914D01*
X80744600Y-73196676D01*
X80792219Y-73149057D01*
X80887457Y-73101438D01*
X81030314Y-73101438D01*
X81125552Y-73149057D01*
X81173171Y-73196676D01*
X81220790Y-73291914D01*
X81220790Y-73672867D01*
X80696981Y-72815724D02*
X81696981Y-72482391D01*
X80696981Y-72149057D01*
X81696981Y-71291914D02*
X81696981Y-71863343D01*
X81696981Y-71577629D02*
X80696981Y-71577629D01*
X80839838Y-71672867D01*
X80935076Y-71768105D01*
X80982695Y-71863343D01*
X23295495Y-53262781D02*
X23295495Y-54072305D01*
X23343114Y-54167543D01*
X23390733Y-54215162D01*
X23485971Y-54262781D01*
X23676448Y-54262781D01*
X23771686Y-54215162D01*
X23819305Y-54167543D01*
X23866924Y-54072305D01*
X23866924Y-53262781D01*
X24866924Y-54262781D02*
X24295495Y-54262781D01*
X24581209Y-54262781D02*
X24581209Y-53262781D01*
X24485971Y-53405638D01*
X24390733Y-53500876D01*
X24295495Y-53548495D01*
M02*
