G04 #@! TF.FileFunction,Copper,L1,Top,Mixed*
%FSLAX46Y46*%
G04 Gerber Fmt 4.6, Leading zero omitted, Abs format (unit mm)*
G04 Created by KiCad (PCBNEW 4.0.5) date 06/13/17 16:15:45*
%MOMM*%
%LPD*%
G01*
G04 APERTURE LIST*
%ADD10C,0.100000*%
%ADD11R,2.200000X2.200000*%
%ADD12O,2.200000X2.200000*%
%ADD13C,2.340000*%
%ADD14R,2.286000X1.574800*%
%ADD15O,2.286000X1.574800*%
%ADD16O,1.800000X2.600000*%
%ADD17R,1.727200X1.727200*%
%ADD18O,1.727200X1.727200*%
%ADD19R,2.400000X2.400000*%
%ADD20C,2.400000*%
%ADD21R,1.600000X1.600000*%
%ADD22C,1.600000*%
%ADD23C,1.899920*%
%ADD24C,1.500000*%
%ADD25C,3.000000*%
%ADD26R,3.000000X3.000000*%
%ADD27R,1.800000X1.800000*%
%ADD28O,1.800000X1.800000*%
%ADD29O,2.400000X2.400000*%
%ADD30R,1.350000X1.800000*%
%ADD31O,1.350000X1.800000*%
%ADD32C,1.000000*%
%ADD33C,0.250000*%
G04 APERTURE END LIST*
D10*
D11*
X30353000Y-65836800D03*
D12*
X20193000Y-65836800D03*
D13*
X30382200Y-71109200D03*
X35382200Y-73609200D03*
X30382200Y-76109200D03*
D14*
X111328200Y-77063600D03*
D15*
X111328200Y-74523600D03*
X111328200Y-71983600D03*
X111328200Y-69443600D03*
X111328200Y-66903600D03*
X111328200Y-64363600D03*
X111328200Y-61823600D03*
X111328200Y-59283600D03*
X111328200Y-56743600D03*
X111328200Y-54203600D03*
X111328200Y-51663600D03*
X111328200Y-49123600D03*
X111328200Y-46583600D03*
X111328200Y-44043600D03*
X111328200Y-41503600D03*
X96088200Y-41503600D03*
X96088200Y-44043600D03*
X96088200Y-49123600D03*
X96088200Y-51663600D03*
X96088200Y-54203600D03*
X96088200Y-56743600D03*
X96088200Y-59283600D03*
X96088200Y-61823600D03*
X96088200Y-64363600D03*
X96088200Y-66903600D03*
X96088200Y-69443600D03*
X96088200Y-71983600D03*
X96088200Y-74523600D03*
X96088200Y-77063600D03*
D16*
X82753200Y-78308200D03*
X80213200Y-78308200D03*
X77673200Y-78308200D03*
X75133200Y-78308200D03*
X72593200Y-78308200D03*
X70053200Y-78308200D03*
X67513200Y-78308200D03*
X64973200Y-78308200D03*
X62433200Y-78308200D03*
X59893200Y-78308200D03*
X57353200Y-78308200D03*
X54813200Y-78308200D03*
X52273200Y-78308200D03*
X49733200Y-78308200D03*
X47193200Y-78308200D03*
X44653200Y-78308200D03*
D17*
X67284600Y-28168600D03*
D18*
X67284600Y-25628600D03*
X69824600Y-28168600D03*
X69824600Y-25628600D03*
X72364600Y-28168600D03*
X72364600Y-25628600D03*
X74904600Y-28168600D03*
X74904600Y-25628600D03*
X77444600Y-28168600D03*
X77444600Y-25628600D03*
X79984600Y-28168600D03*
X79984600Y-25628600D03*
X82524600Y-28168600D03*
X82524600Y-25628600D03*
X85064600Y-28168600D03*
X85064600Y-25628600D03*
X87604600Y-28168600D03*
X87604600Y-25628600D03*
X90144600Y-28168600D03*
X90144600Y-25628600D03*
D19*
X25679400Y-40944800D03*
D20*
X20679400Y-40944800D03*
D21*
X21361400Y-56896000D03*
D22*
X23361400Y-56896000D03*
D20*
X20731600Y-29794200D03*
D19*
X24231600Y-29794200D03*
D20*
X46568600Y-26212800D03*
X43068600Y-26212800D03*
X50068600Y-26212800D03*
D19*
X53568600Y-26212800D03*
D23*
X29133800Y-55565040D03*
X29133800Y-60563760D03*
D24*
X127099600Y-67691000D03*
X124559600Y-67691000D03*
X122529600Y-67691000D03*
X119989600Y-67691000D03*
D25*
X130149600Y-70361000D03*
X116429600Y-70361000D03*
X76657200Y-57658000D03*
X71577200Y-57658000D03*
D26*
X81737200Y-57658000D03*
D25*
X66497200Y-57658000D03*
D27*
X56184800Y-38735000D03*
D28*
X56184800Y-36195000D03*
X56184800Y-33655000D03*
D27*
X48564800Y-38709600D03*
D28*
X48564800Y-36169600D03*
X48564800Y-33629600D03*
D27*
X41021000Y-38811200D03*
D28*
X41021000Y-36271200D03*
X41021000Y-33731200D03*
D20*
X56184800Y-69011800D03*
D29*
X56184800Y-43611800D03*
D20*
X48336200Y-69189600D03*
D29*
X48336200Y-43789600D03*
D20*
X40741600Y-69189600D03*
D29*
X40741600Y-43789600D03*
D13*
X85144600Y-75006200D03*
X87644600Y-70006200D03*
X90144600Y-75006200D03*
D30*
X27457400Y-50190400D03*
D31*
X25757400Y-50190400D03*
X24057400Y-50190400D03*
X22357400Y-50190400D03*
X20657400Y-50190400D03*
D32*
X24231600Y-29794200D02*
X24841200Y-29794200D01*
X41122600Y-36169600D02*
X40741600Y-35788600D01*
X48463200Y-36271200D02*
X48539400Y-36195000D01*
X64333200Y-78308200D02*
X62433200Y-78308200D01*
X20731600Y-40892600D02*
X20657400Y-40966800D01*
D33*
X30353000Y-65836800D02*
X30353000Y-65557400D01*
X80213200Y-78282971D02*
X80213200Y-78308200D01*
X96088200Y-61823600D02*
X97256600Y-61823600D01*
X96088200Y-56743600D02*
X96088200Y-56997600D01*
X96088200Y-54203600D02*
X96088200Y-54483000D01*
X96088200Y-51663600D02*
X96088200Y-51892200D01*
X111328200Y-74523600D02*
X110972600Y-74523600D01*
X111328200Y-71983600D02*
X111328200Y-71372385D01*
X111328200Y-69443600D02*
X110972600Y-69443600D01*
X110972600Y-66903600D02*
X111328200Y-66903600D01*
X111328200Y-56743600D02*
X110972600Y-56743600D01*
X111328200Y-54203600D02*
X111328200Y-53592385D01*
X111328200Y-51663600D02*
X110972600Y-51663600D01*
X110972600Y-46583600D02*
X111328200Y-46583600D01*
M02*
