M48
;DRILL file {KiCad 4.0.5} date 06/13/17 16:15:57
;FORMAT={-:-/ absolute / metric / decimal}
FMAT,2
METRIC,TZ
T1C0.800
T2C0.813
T3C0.899
T4C1.000
T5C1.016
T6C1.100
T7C1.200
T8C1.300
T9C1.520
T10C2.300
%
G90
G05
M71
T1
X21.361Y-56.896
X23.361Y-56.896
T2
X96.088Y-41.504
X96.088Y-44.044
X96.088Y-49.124
X96.088Y-51.664
X96.088Y-54.204
X96.088Y-56.744
X96.088Y-59.284
X96.088Y-61.824
X96.088Y-64.364
X96.088Y-66.904
X96.088Y-69.444
X96.088Y-71.984
X96.088Y-74.524
X96.088Y-77.064
X111.328Y-41.504
X111.328Y-44.044
X111.328Y-46.584
X111.328Y-49.124
X111.328Y-51.664
X111.328Y-54.204
X111.328Y-56.744
X111.328Y-59.284
X111.328Y-61.824
X111.328Y-64.364
X111.328Y-66.904
X111.328Y-69.444
X111.328Y-71.984
X111.328Y-74.524
X111.328Y-77.064
T3
X29.134Y-55.565
X29.134Y-60.564
T4
X20.657Y-50.19
X22.357Y-50.19
X24.057Y-50.19
X25.757Y-50.19
X27.457Y-50.19
X41.021Y-33.731
X41.021Y-36.271
X41.021Y-38.811
X48.565Y-33.63
X48.565Y-36.17
X48.565Y-38.71
X56.185Y-33.655
X56.185Y-36.195
X56.185Y-38.735
X119.99Y-67.691
X122.53Y-67.691
X124.56Y-67.691
X127.1Y-67.691
T5
X67.285Y-25.629
X67.285Y-28.169
X69.825Y-25.629
X69.825Y-28.169
X72.365Y-25.629
X72.365Y-28.169
X74.905Y-25.629
X74.905Y-28.169
X77.445Y-25.629
X77.445Y-28.169
X79.985Y-25.629
X79.985Y-28.169
X82.525Y-25.629
X82.525Y-28.169
X85.065Y-25.629
X85.065Y-28.169
X87.605Y-25.629
X87.605Y-28.169
X90.145Y-25.629
X90.145Y-28.169
T6
X20.193Y-65.837
X30.353Y-65.837
T7
X20.679Y-40.945
X20.732Y-29.794
X24.232Y-29.794
X25.679Y-40.945
X40.742Y-43.79
X40.742Y-69.19
X43.069Y-26.213
X44.653Y-78.308
X46.569Y-26.213
X47.193Y-78.308
X48.336Y-43.79
X48.336Y-69.19
X49.733Y-78.308
X50.069Y-26.213
X52.273Y-78.308
X53.569Y-26.213
X54.813Y-78.308
X56.185Y-43.612
X56.185Y-69.012
X57.353Y-78.308
X59.893Y-78.308
X62.433Y-78.308
X64.973Y-78.308
X67.513Y-78.308
X70.053Y-78.308
X72.593Y-78.308
X75.133Y-78.308
X77.673Y-78.308
X80.213Y-78.308
X82.753Y-78.308
T8
X30.382Y-71.109
X30.382Y-76.109
X35.382Y-73.609
X85.145Y-75.006
X87.645Y-70.006
X90.145Y-75.006
T9
X66.497Y-57.658
X71.577Y-57.658
X76.657Y-57.658
X81.737Y-57.658
T10
X116.43Y-70.361
X130.15Y-70.361
T0
M30
