G04 #@! TF.FileFunction,Copper,L2,Bot,Mixed*
%FSLAX46Y46*%
G04 Gerber Fmt 4.6, Leading zero omitted, Abs format (unit mm)*
G04 Created by KiCad (PCBNEW 4.0.5) date 07/20/17 14:16:25*
%MOMM*%
%LPD*%
G01*
G04 APERTURE LIST*
%ADD10C,0.100000*%
%ADD11C,0.300000*%
%ADD12O,1.800000X2.600000*%
%ADD13R,1.727200X1.727200*%
%ADD14O,1.727200X1.727200*%
%ADD15R,2.200000X2.200000*%
%ADD16O,2.200000X2.200000*%
%ADD17C,2.340000*%
%ADD18R,2.286000X1.574800*%
%ADD19O,2.286000X1.574800*%
%ADD20R,2.400000X2.400000*%
%ADD21C,2.400000*%
%ADD22R,1.600000X1.600000*%
%ADD23C,1.600000*%
%ADD24C,1.899920*%
%ADD25C,1.500000*%
%ADD26C,3.000000*%
%ADD27R,3.000000X3.000000*%
%ADD28R,1.800000X1.800000*%
%ADD29O,1.800000X1.800000*%
%ADD30O,2.400000X2.400000*%
%ADD31R,1.350000X1.800000*%
%ADD32O,1.350000X1.800000*%
%ADD33C,1.200000*%
%ADD34C,1.000000*%
%ADD35C,0.250000*%
%ADD36C,0.850000*%
%ADD37C,0.254000*%
G04 APERTURE END LIST*
D10*
D11*
X116988114Y-27162457D02*
X117488114Y-27162457D01*
X117488114Y-27948171D02*
X117488114Y-26448171D01*
X116773828Y-26448171D01*
X116202400Y-27948171D02*
X116202400Y-26948171D01*
X116202400Y-26448171D02*
X116273829Y-26519600D01*
X116202400Y-26591029D01*
X116130972Y-26519600D01*
X116202400Y-26448171D01*
X116202400Y-26591029D01*
X115559543Y-27876743D02*
X115416686Y-27948171D01*
X115130971Y-27948171D01*
X114988114Y-27876743D01*
X114916686Y-27733886D01*
X114916686Y-27662457D01*
X114988114Y-27519600D01*
X115130971Y-27448171D01*
X115345257Y-27448171D01*
X115488114Y-27376743D01*
X115559543Y-27233886D01*
X115559543Y-27162457D01*
X115488114Y-27019600D01*
X115345257Y-26948171D01*
X115130971Y-26948171D01*
X114988114Y-27019600D01*
X114273828Y-27948171D02*
X114273828Y-26448171D01*
X113630971Y-27948171D02*
X113630971Y-27162457D01*
X113702400Y-27019600D01*
X113845257Y-26948171D01*
X114059542Y-26948171D01*
X114202400Y-27019600D01*
X114273828Y-27091029D01*
X112345257Y-27876743D02*
X112488114Y-27948171D01*
X112773828Y-27948171D01*
X112916685Y-27876743D01*
X112988114Y-27733886D01*
X112988114Y-27162457D01*
X112916685Y-27019600D01*
X112773828Y-26948171D01*
X112488114Y-26948171D01*
X112345257Y-27019600D01*
X112273828Y-27162457D01*
X112273828Y-27305314D01*
X112988114Y-27448171D01*
X111630971Y-27948171D02*
X111630971Y-26948171D01*
X111630971Y-27233886D02*
X111559543Y-27091029D01*
X111488114Y-27019600D01*
X111345257Y-26948171D01*
X111202400Y-26948171D01*
X120488114Y-30426743D02*
X120630971Y-30498171D01*
X120916685Y-30498171D01*
X121059543Y-30426743D01*
X121130971Y-30355314D01*
X121202400Y-30212457D01*
X121202400Y-29783886D01*
X121130971Y-29641029D01*
X121059543Y-29569600D01*
X120916685Y-29498171D01*
X120630971Y-29498171D01*
X120488114Y-29569600D01*
X119630971Y-30498171D02*
X119773829Y-30426743D01*
X119845257Y-30355314D01*
X119916686Y-30212457D01*
X119916686Y-29783886D01*
X119845257Y-29641029D01*
X119773829Y-29569600D01*
X119630971Y-29498171D01*
X119416686Y-29498171D01*
X119273829Y-29569600D01*
X119202400Y-29641029D01*
X119130971Y-29783886D01*
X119130971Y-30212457D01*
X119202400Y-30355314D01*
X119273829Y-30426743D01*
X119416686Y-30498171D01*
X119630971Y-30498171D01*
X118488114Y-30498171D02*
X118488114Y-29498171D01*
X118488114Y-29783886D02*
X118416686Y-29641029D01*
X118345257Y-29569600D01*
X118202400Y-29498171D01*
X118059543Y-29498171D01*
X117559543Y-29498171D02*
X117559543Y-30998171D01*
X117559543Y-29569600D02*
X117416686Y-29498171D01*
X117130972Y-29498171D01*
X116988115Y-29569600D01*
X116916686Y-29641029D01*
X116845257Y-29783886D01*
X116845257Y-30212457D01*
X116916686Y-30355314D01*
X116988115Y-30426743D01*
X117130972Y-30498171D01*
X117416686Y-30498171D01*
X117559543Y-30426743D01*
X115559543Y-29498171D02*
X115559543Y-30498171D01*
X116202400Y-29498171D02*
X116202400Y-30283886D01*
X116130972Y-30426743D01*
X115988114Y-30498171D01*
X115773829Y-30498171D01*
X115630972Y-30426743D01*
X115559543Y-30355314D01*
X114845257Y-30498171D02*
X114845257Y-29498171D01*
X114845257Y-29783886D02*
X114773829Y-29641029D01*
X114702400Y-29569600D01*
X114559543Y-29498171D01*
X114416686Y-29498171D01*
X113273829Y-30498171D02*
X113273829Y-29712457D01*
X113345258Y-29569600D01*
X113488115Y-29498171D01*
X113773829Y-29498171D01*
X113916686Y-29569600D01*
X113273829Y-30426743D02*
X113416686Y-30498171D01*
X113773829Y-30498171D01*
X113916686Y-30426743D01*
X113988115Y-30283886D01*
X113988115Y-30141029D01*
X113916686Y-29998171D01*
X113773829Y-29926743D01*
X113416686Y-29926743D01*
X113273829Y-29855314D01*
X112773829Y-29498171D02*
X112202400Y-29498171D01*
X112559543Y-28998171D02*
X112559543Y-30283886D01*
X112488115Y-30426743D01*
X112345257Y-30498171D01*
X112202400Y-30498171D01*
X111702400Y-30498171D02*
X111702400Y-29498171D01*
X111702400Y-28998171D02*
X111773829Y-29069600D01*
X111702400Y-29141029D01*
X111630972Y-29069600D01*
X111702400Y-28998171D01*
X111702400Y-29141029D01*
X110773828Y-30498171D02*
X110916686Y-30426743D01*
X110988114Y-30355314D01*
X111059543Y-30212457D01*
X111059543Y-29783886D01*
X110988114Y-29641029D01*
X110916686Y-29569600D01*
X110773828Y-29498171D01*
X110559543Y-29498171D01*
X110416686Y-29569600D01*
X110345257Y-29641029D01*
X110273828Y-29783886D01*
X110273828Y-30212457D01*
X110345257Y-30355314D01*
X110416686Y-30426743D01*
X110559543Y-30498171D01*
X110773828Y-30498171D01*
X109630971Y-29498171D02*
X109630971Y-30498171D01*
X109630971Y-29641029D02*
X109559543Y-29569600D01*
X109416685Y-29498171D01*
X109202400Y-29498171D01*
X109059543Y-29569600D01*
X108988114Y-29712457D01*
X108988114Y-30498171D01*
X108345257Y-30426743D02*
X108202400Y-30498171D01*
X107916685Y-30498171D01*
X107773828Y-30426743D01*
X107702400Y-30283886D01*
X107702400Y-30212457D01*
X107773828Y-30069600D01*
X107916685Y-29998171D01*
X108130971Y-29998171D01*
X108273828Y-29926743D01*
X108345257Y-29783886D01*
X108345257Y-29712457D01*
X108273828Y-29569600D01*
X108130971Y-29498171D01*
X107916685Y-29498171D01*
X107773828Y-29569600D01*
X117023828Y-31691029D02*
X116952399Y-31619600D01*
X116809542Y-31548171D01*
X116452399Y-31548171D01*
X116309542Y-31619600D01*
X116238113Y-31691029D01*
X116166685Y-31833886D01*
X116166685Y-31976743D01*
X116238113Y-32191029D01*
X117095256Y-33048171D01*
X116166685Y-33048171D01*
X115238114Y-31548171D02*
X115095257Y-31548171D01*
X114952400Y-31619600D01*
X114880971Y-31691029D01*
X114809542Y-31833886D01*
X114738114Y-32119600D01*
X114738114Y-32476743D01*
X114809542Y-32762457D01*
X114880971Y-32905314D01*
X114952400Y-32976743D01*
X115095257Y-33048171D01*
X115238114Y-33048171D01*
X115380971Y-32976743D01*
X115452400Y-32905314D01*
X115523828Y-32762457D01*
X115595257Y-32476743D01*
X115595257Y-32119600D01*
X115523828Y-31833886D01*
X115452400Y-31691029D01*
X115380971Y-31619600D01*
X115238114Y-31548171D01*
X113309543Y-33048171D02*
X114166686Y-33048171D01*
X113738114Y-33048171D02*
X113738114Y-31548171D01*
X113880971Y-31762457D01*
X114023829Y-31905314D01*
X114166686Y-31976743D01*
X112809543Y-31548171D02*
X111809543Y-31548171D01*
X112452400Y-33048171D01*
D12*
X82753200Y-78308200D03*
X80213200Y-78308200D03*
X77673200Y-78308200D03*
X75133200Y-78308200D03*
X72593200Y-78308200D03*
X70053200Y-78308200D03*
X67513200Y-78308200D03*
X64973200Y-78308200D03*
X62433200Y-78308200D03*
X59893200Y-78308200D03*
X57353200Y-78308200D03*
X54813200Y-78308200D03*
X52273200Y-78308200D03*
X49733200Y-78308200D03*
X47193200Y-78308200D03*
X44653200Y-78308200D03*
D13*
X67284600Y-28168600D03*
D14*
X67284600Y-25628600D03*
X69824600Y-28168600D03*
X69824600Y-25628600D03*
X72364600Y-28168600D03*
X72364600Y-25628600D03*
X74904600Y-28168600D03*
X74904600Y-25628600D03*
X77444600Y-28168600D03*
X77444600Y-25628600D03*
X79984600Y-28168600D03*
X79984600Y-25628600D03*
X82524600Y-28168600D03*
X82524600Y-25628600D03*
X85064600Y-28168600D03*
X85064600Y-25628600D03*
X87604600Y-28168600D03*
X87604600Y-25628600D03*
X90144600Y-28168600D03*
X90144600Y-25628600D03*
D15*
X30353000Y-65836800D03*
D16*
X20193000Y-65836800D03*
D17*
X30382200Y-71109200D03*
X35382200Y-73609200D03*
X30382200Y-76109200D03*
D18*
X111328200Y-77063600D03*
D19*
X111328200Y-74523600D03*
X111328200Y-71983600D03*
X111328200Y-69443600D03*
X111328200Y-66903600D03*
X111328200Y-64363600D03*
X111328200Y-61823600D03*
X111328200Y-59283600D03*
X111328200Y-56743600D03*
X111328200Y-54203600D03*
X111328200Y-51663600D03*
X111328200Y-49123600D03*
X111328200Y-46583600D03*
X111328200Y-44043600D03*
X111328200Y-41503600D03*
X96088200Y-41503600D03*
X96088200Y-44043600D03*
X96088200Y-49123600D03*
X96088200Y-51663600D03*
X96088200Y-54203600D03*
X96088200Y-56743600D03*
X96088200Y-59283600D03*
X96088200Y-61823600D03*
X96088200Y-64363600D03*
X96088200Y-66903600D03*
X96088200Y-69443600D03*
X96088200Y-71983600D03*
X96088200Y-74523600D03*
X96088200Y-77063600D03*
D20*
X25679400Y-40944800D03*
D21*
X20679400Y-40944800D03*
D22*
X21361400Y-56896000D03*
D23*
X23361400Y-56896000D03*
D21*
X20731600Y-29794200D03*
D20*
X24231600Y-29794200D03*
D21*
X46568600Y-26212800D03*
X43068600Y-26212800D03*
X50068600Y-26212800D03*
D20*
X53568600Y-26212800D03*
D24*
X26634440Y-58064400D03*
X31633160Y-58064400D03*
D25*
X126650000Y-67750000D03*
X124110000Y-67750000D03*
X122080000Y-67750000D03*
X119540000Y-67750000D03*
D26*
X129700000Y-70420000D03*
X115980000Y-70420000D03*
X76657200Y-57658000D03*
X71577200Y-57658000D03*
D27*
X81737200Y-57658000D03*
D26*
X66497200Y-57658000D03*
D28*
X56184800Y-38735000D03*
D29*
X56184800Y-36195000D03*
X56184800Y-33655000D03*
D28*
X48564800Y-38709600D03*
D29*
X48564800Y-36169600D03*
X48564800Y-33629600D03*
D28*
X41021000Y-38811200D03*
D29*
X41021000Y-36271200D03*
X41021000Y-33731200D03*
D21*
X56184800Y-69011800D03*
D30*
X56184800Y-43611800D03*
D21*
X48336200Y-69189600D03*
D30*
X48336200Y-43789600D03*
D21*
X40741600Y-69189600D03*
D30*
X40741600Y-43789600D03*
D17*
X85144600Y-75006200D03*
X87644600Y-70006200D03*
X90144600Y-75006200D03*
D31*
X27457400Y-50190400D03*
D32*
X25757400Y-50190400D03*
X24057400Y-50190400D03*
X22357400Y-50190400D03*
X20657400Y-50190400D03*
D33*
X92570000Y-83950000D03*
X92560000Y-78060000D03*
D34*
X69824600Y-28168600D02*
X69700000Y-28293200D01*
X69700000Y-28293200D02*
X69700000Y-28900000D01*
X69700000Y-28900000D02*
X67317198Y-31282802D01*
X43068600Y-24515744D02*
X43068600Y-26212800D01*
X67317198Y-31282802D02*
X64912402Y-31282802D01*
X64912402Y-31282802D02*
X56388000Y-22758400D01*
X56388000Y-22758400D02*
X44825944Y-22758400D01*
X44825944Y-22758400D02*
X43068600Y-24515744D01*
X24231600Y-29794200D02*
X24620000Y-30182600D01*
X24620000Y-30182600D02*
X24620000Y-30210000D01*
X24620000Y-30210000D02*
X25670000Y-31260000D01*
X25670000Y-31260000D02*
X25670000Y-40935400D01*
X25670000Y-40935400D02*
X25679400Y-40944800D01*
X43068600Y-26212800D02*
X38211400Y-26212800D01*
X38211400Y-26212800D02*
X25679400Y-38744800D01*
X25679400Y-38744800D02*
X25679400Y-40944800D01*
X69824600Y-25628600D02*
X69824600Y-28168600D01*
X27457400Y-50190400D02*
X27457400Y-42722800D01*
X27457400Y-42722800D02*
X25679400Y-40944800D01*
X59893200Y-78308200D02*
X59893200Y-76008200D01*
X59893200Y-76008200D02*
X56699990Y-72814990D01*
X56699990Y-72814990D02*
X40026788Y-72814990D01*
X40026788Y-72814990D02*
X37150999Y-69939201D01*
X40259000Y-18059400D02*
X60922957Y-18045643D01*
X32466400Y-18059400D02*
X40259000Y-18059400D01*
X20731600Y-29794200D02*
X32466400Y-18059400D01*
X60922957Y-18045643D02*
X64973200Y-18059400D01*
X67284600Y-25628600D02*
X67284600Y-24407286D01*
X67284600Y-24407286D02*
X60922957Y-18045643D01*
X52654200Y-43891200D02*
X50190400Y-46355000D01*
X50190400Y-46355000D02*
X44907200Y-46355000D01*
X52654200Y-37185600D02*
X52654200Y-43891200D01*
X56184800Y-33655000D02*
X52654200Y-37185600D01*
X43002200Y-48260000D02*
X34746990Y-48260000D01*
X34746990Y-48260000D02*
X29983199Y-43496209D01*
X44907200Y-46355000D02*
X43002200Y-48260000D01*
X44907200Y-36014408D02*
X44907200Y-46355000D01*
X48564800Y-33629600D02*
X47292008Y-33629600D01*
X47292008Y-33629600D02*
X44907200Y-36014408D01*
X41021000Y-33731200D02*
X39748208Y-33731200D01*
X39748208Y-33731200D02*
X29983199Y-43496209D01*
X29983199Y-43496209D02*
X29983199Y-62006997D01*
X29983199Y-62006997D02*
X37150999Y-69174797D01*
X37150999Y-69174797D02*
X37150999Y-69939201D01*
X30382200Y-71109200D02*
X31552199Y-72279199D01*
X31552199Y-72885428D02*
X36974971Y-78308200D01*
X31552199Y-72279199D02*
X31552199Y-72885428D01*
X30382200Y-71109200D02*
X31552199Y-69939201D01*
X31552199Y-69939201D02*
X37150999Y-69939201D01*
X37150999Y-69939201D02*
X40304031Y-66786169D01*
X20193000Y-65836800D02*
X25465400Y-71109200D01*
X25465400Y-71109200D02*
X30382200Y-71109200D01*
X71755000Y-74980800D02*
X72593200Y-75819000D01*
X72593200Y-75819000D02*
X72593200Y-78308200D01*
X68540600Y-74980800D02*
X71755000Y-74980800D01*
X67513200Y-78308200D02*
X67513200Y-76008200D01*
X67513200Y-76008200D02*
X68540600Y-74980800D01*
X96088200Y-49123600D02*
X71775598Y-49123600D01*
X71775598Y-49123600D02*
X68697201Y-52201997D01*
X68697201Y-52201997D02*
X68697201Y-58861599D01*
X68697201Y-58861599D02*
X60772631Y-66786169D01*
X60772631Y-66786169D02*
X40304031Y-66786169D01*
X111328200Y-44043600D02*
X113471200Y-44043600D01*
X113471200Y-44043600D02*
X116429600Y-47002000D01*
X116429600Y-47002000D02*
X116429600Y-68239680D01*
X116429600Y-68239680D02*
X116429600Y-70361000D01*
X125552200Y-18059400D02*
X64973200Y-18059400D01*
X130403600Y-22910800D02*
X125552200Y-18059400D01*
X130403600Y-58756340D02*
X130403600Y-22910800D01*
X122529600Y-67691000D02*
X122529600Y-66630340D01*
X122529600Y-66630340D02*
X130403600Y-58756340D01*
X122529600Y-67691000D02*
X119859600Y-70361000D01*
X119859600Y-70361000D02*
X116429600Y-70361000D01*
X127099600Y-67691000D02*
X127479600Y-67691000D01*
X127479600Y-67691000D02*
X130149600Y-70361000D01*
X127099600Y-67691000D02*
X124559600Y-67691000D01*
X122529600Y-67691000D02*
X124559600Y-67691000D01*
X67284600Y-28168600D02*
X67284600Y-25628600D01*
X90144600Y-75006200D02*
X86842600Y-78308200D01*
X86842600Y-78308200D02*
X82753200Y-78308200D01*
X67513200Y-78308200D02*
X67513200Y-78185445D01*
X72593200Y-78185445D02*
X72593200Y-78308200D01*
X64973200Y-78308200D02*
X67513200Y-78308200D01*
X62433200Y-78308200D02*
X64973200Y-78308200D01*
X59893200Y-78308200D02*
X62433200Y-78308200D01*
X59893200Y-77908200D02*
X59893200Y-78308200D01*
X44653200Y-78308200D02*
X36974971Y-78308200D01*
X23361400Y-56896000D02*
X23361400Y-62668400D01*
X23361400Y-62668400D02*
X20193000Y-65836800D01*
X24057400Y-50190400D02*
X24057400Y-56200000D01*
X24057400Y-56200000D02*
X23361400Y-56896000D01*
X20657400Y-50190400D02*
X20657400Y-46812200D01*
X24057400Y-50190400D02*
X24057400Y-48290400D01*
X20657400Y-46812200D02*
X20657400Y-40966800D01*
X22579200Y-46812200D02*
X20657400Y-46812200D01*
X24057400Y-48290400D02*
X22579200Y-46812200D01*
X20657400Y-40966800D02*
X20679400Y-40944800D01*
X20731600Y-29794200D02*
X20731600Y-40892600D01*
X20731600Y-40892600D02*
X20679400Y-40944800D01*
D35*
X22357400Y-50190400D02*
X22300000Y-50247800D01*
X22300000Y-50247800D02*
X22300000Y-54290000D01*
X22300000Y-54290000D02*
X21380000Y-55210000D01*
X21380000Y-55210000D02*
X21380000Y-56877400D01*
X21380000Y-56877400D02*
X21361400Y-56896000D01*
X25757400Y-52188640D02*
X26634440Y-53065680D01*
X26634440Y-53065680D02*
X26634440Y-58064400D01*
X26974800Y-57724040D02*
X26974800Y-61108600D01*
X26974800Y-61108600D02*
X30353000Y-64486800D01*
X30353000Y-64486800D02*
X30353000Y-65836800D01*
X25757400Y-50190400D02*
X25757400Y-52188640D01*
X92510000Y-82633270D02*
X108796730Y-82633270D01*
X108796730Y-82633270D02*
X113360000Y-78070000D01*
X113360000Y-78070000D02*
X113360000Y-50799800D01*
X113360000Y-50799800D02*
X111683800Y-49123600D01*
X111683800Y-49123600D02*
X111328200Y-49123600D01*
X36906270Y-82633270D02*
X92510000Y-82633270D01*
X92570000Y-82693270D02*
X92510000Y-82633270D01*
X92570000Y-83950000D02*
X92570000Y-82693270D01*
X92520000Y-75168998D02*
X92520000Y-78020000D01*
X92520000Y-78020000D02*
X92560000Y-78060000D01*
X85144600Y-75006200D02*
X86639601Y-73511199D01*
X86639601Y-73511199D02*
X90862201Y-73511199D01*
X90862201Y-73511199D02*
X92520000Y-75168998D01*
X30382200Y-76109200D02*
X36906270Y-82633270D01*
X85144600Y-75006200D02*
X83974601Y-76176199D01*
X83974601Y-76176199D02*
X81945201Y-76176199D01*
X81945201Y-76176199D02*
X80213200Y-77908200D01*
X80213200Y-77908200D02*
X80213200Y-78308200D01*
X87644600Y-70006200D02*
X85575200Y-70006200D01*
X85575200Y-70006200D02*
X77673200Y-77908200D01*
X77673200Y-77908200D02*
X77673200Y-78308200D01*
X96088200Y-64363600D02*
X97481200Y-64363600D01*
X97481200Y-64363600D02*
X98526600Y-65409000D01*
X98526600Y-65409000D02*
X98526600Y-77774800D01*
X98526600Y-77774800D02*
X96368190Y-79933210D01*
X76358210Y-79933210D02*
X75133200Y-78708200D01*
X96368190Y-79933210D02*
X76358210Y-79933210D01*
X75133200Y-78708200D02*
X75133200Y-78308200D01*
X96088200Y-61823600D02*
X96443800Y-61823600D01*
X96443800Y-61823600D02*
X98976610Y-64356410D01*
X98976610Y-64356410D02*
X98976609Y-77961201D01*
X70053200Y-78708200D02*
X70053200Y-78308200D01*
X98976609Y-77961201D02*
X96554590Y-80383220D01*
X96554590Y-80383220D02*
X71728220Y-80383220D01*
X71728220Y-80383220D02*
X70053200Y-78708200D01*
X96088200Y-59283600D02*
X97481200Y-59283600D01*
X97481200Y-59283600D02*
X99426619Y-61229019D01*
X99426619Y-61229019D02*
X99426618Y-78147602D01*
X99426618Y-78147602D02*
X96740990Y-80833230D01*
X96740990Y-80833230D02*
X59478230Y-80833230D01*
X59478230Y-80833230D02*
X57353200Y-78708200D01*
X57353200Y-78708200D02*
X57353200Y-78308200D01*
X96088200Y-56743600D02*
X97481200Y-56743600D01*
X97481200Y-56743600D02*
X99876627Y-59139027D01*
X99876627Y-59139027D02*
X99876627Y-78334003D01*
X96927390Y-81283240D02*
X57388240Y-81283240D01*
X99876627Y-78334003D02*
X96927390Y-81283240D01*
X57388240Y-81283240D02*
X54813200Y-78708200D01*
X54813200Y-78708200D02*
X54813200Y-78308200D01*
X96088200Y-54203600D02*
X96443800Y-54203600D01*
X96443800Y-54203600D02*
X100326637Y-58086437D01*
X100326637Y-58086437D02*
X100326636Y-78520404D01*
X100326636Y-78520404D02*
X97113790Y-81733250D01*
X97113790Y-81733250D02*
X55298250Y-81733250D01*
X55298250Y-81733250D02*
X52273200Y-78708200D01*
X52273200Y-78708200D02*
X52273200Y-78308200D01*
X96088200Y-51663600D02*
X97481200Y-51663600D01*
X100776646Y-54959047D02*
X100776645Y-78706805D01*
X97481200Y-51663600D02*
X100776646Y-54959047D01*
X97300190Y-82183260D02*
X53208260Y-82183260D01*
X100776645Y-78706805D02*
X97300190Y-82183260D01*
X53208260Y-82183260D02*
X49733200Y-78708200D01*
X49733200Y-78708200D02*
X49733200Y-78308200D01*
X35413000Y-73640000D02*
X42925000Y-73640000D01*
X35382200Y-73609200D02*
X35413000Y-73640000D01*
X42925000Y-73640000D02*
X47193200Y-77908200D01*
X47193200Y-77908200D02*
X47193200Y-78308200D01*
D34*
X41021000Y-36271200D02*
X42293792Y-36271200D01*
X42293792Y-36271200D02*
X46568600Y-31996392D01*
X46568600Y-31996392D02*
X46568600Y-27909856D01*
X46568600Y-27909856D02*
X46568600Y-26212800D01*
X48564800Y-36169600D02*
X50940000Y-33794400D01*
X50132800Y-26212800D02*
X50068600Y-26212800D01*
X50940000Y-33794400D02*
X50940000Y-27020000D01*
X50940000Y-27020000D02*
X50132800Y-26212800D01*
X48463200Y-36271200D02*
X48564800Y-36169600D01*
D36*
X92830000Y-23340000D02*
X93910000Y-23340000D01*
X93910000Y-23340000D02*
X111328200Y-40758200D01*
X111328200Y-40758200D02*
X111328200Y-41503600D01*
X92871599Y-23340000D02*
X74653200Y-23340000D01*
X74653200Y-23340000D02*
X72364600Y-25628600D01*
D34*
X111328200Y-41503600D02*
X114033600Y-41503600D01*
X114033600Y-41503600D02*
X119540000Y-47010000D01*
X119540000Y-47010000D02*
X119540000Y-66689340D01*
D35*
X119540000Y-66689340D02*
X119540000Y-67750000D01*
D36*
X66497200Y-57658000D02*
X44206160Y-57658000D01*
X44206160Y-57658000D02*
X43824160Y-58040000D01*
X43824160Y-58040000D02*
X31700000Y-58040000D01*
X38776640Y-58040000D02*
X31657560Y-58040000D01*
X31657560Y-58040000D02*
X31633160Y-58064400D01*
X66497200Y-57658000D02*
X66497200Y-34036000D01*
X66497200Y-34036000D02*
X72364600Y-28168600D01*
X72364600Y-25628600D02*
X72364600Y-26849914D01*
X72364600Y-26849914D02*
X72364600Y-28168600D01*
D35*
X96088200Y-44043600D02*
X94695200Y-44043600D01*
X94695200Y-44043600D02*
X94644400Y-43992800D01*
X94644400Y-43992800D02*
X78511400Y-43992800D01*
X78511400Y-43992800D02*
X74904600Y-40386000D01*
X74904600Y-40386000D02*
X74904600Y-28168600D01*
X111328200Y-74523600D02*
X110972600Y-74523600D01*
X110972600Y-74523600D02*
X104140000Y-67691000D01*
X104140000Y-67691000D02*
X104140000Y-47626615D01*
X104140000Y-47626615D02*
X96619985Y-40106600D01*
X96619985Y-40106600D02*
X78526600Y-40106600D01*
X78526600Y-40106600D02*
X77444600Y-39024600D01*
X77444600Y-39024600D02*
X77444600Y-28168600D01*
X77444600Y-28168600D02*
X77444600Y-25628600D01*
X111328200Y-71983600D02*
X110972600Y-71983600D01*
X110972600Y-71983600D02*
X104590010Y-65601010D01*
X104590010Y-65601010D02*
X104590009Y-47440214D01*
X104590009Y-47440214D02*
X96799195Y-39649400D01*
X96799195Y-39649400D02*
X81999400Y-39649400D01*
X81999400Y-39649400D02*
X79984600Y-37634600D01*
X79984600Y-37634600D02*
X79984600Y-28168600D01*
X79984600Y-25628600D02*
X81260000Y-26904000D01*
X81260000Y-26904000D02*
X81260000Y-35575798D01*
X81260000Y-35575798D02*
X84883592Y-39199390D01*
X84883592Y-39199390D02*
X96985596Y-39199391D01*
X96985596Y-39199391D02*
X105105200Y-47318995D01*
X105105200Y-47318995D02*
X105105200Y-63576200D01*
X105105200Y-63576200D02*
X110972600Y-69443600D01*
X110972600Y-69443600D02*
X111328200Y-69443600D01*
X86639400Y-38430200D02*
X82524600Y-34315400D01*
X82524600Y-34315400D02*
X82524600Y-28168600D01*
X96852815Y-38430200D02*
X86639400Y-38430200D01*
X111328200Y-66903600D02*
X109935200Y-66903600D01*
X109935200Y-66903600D02*
X105555210Y-62523610D01*
X105555210Y-62523610D02*
X105555209Y-47132594D01*
X105555209Y-47132594D02*
X96852815Y-38430200D01*
X111328200Y-66903600D02*
X110972600Y-66903600D01*
X111328200Y-77063600D02*
X104292400Y-77063600D01*
X104292400Y-77063600D02*
X101226655Y-73997855D01*
X101226655Y-73997855D02*
X101226655Y-54744655D01*
X101226655Y-54744655D02*
X96852000Y-50370000D01*
X96852000Y-50370000D02*
X78865200Y-50370000D01*
X78865200Y-50370000D02*
X78333600Y-50901600D01*
X78333600Y-50901600D02*
X71577200Y-57658000D01*
X111328200Y-77063600D02*
X111328200Y-76452385D01*
X96088200Y-77063600D02*
X97481200Y-77063600D01*
X84520000Y-55010000D02*
X79305200Y-55010000D01*
X97481200Y-77063600D02*
X98076590Y-76468210D01*
X98076590Y-76468210D02*
X98076590Y-66636590D01*
X98076590Y-66636590D02*
X97060000Y-65620000D01*
X97060000Y-65620000D02*
X95130000Y-65620000D01*
X95130000Y-65620000D02*
X84520000Y-55010000D01*
X79305200Y-55010000D02*
X76657200Y-57658000D01*
X95732600Y-77063600D02*
X96088200Y-77063600D01*
X86487000Y-57658000D02*
X81737200Y-57658000D01*
X96088200Y-66903600D02*
X95732600Y-66903600D01*
X95732600Y-66903600D02*
X86487000Y-57658000D01*
X56184800Y-38735000D02*
X56184800Y-39885000D01*
X56184800Y-39885000D02*
X56184800Y-43611800D01*
X48564800Y-38709600D02*
X48564800Y-43561000D01*
X48564800Y-43561000D02*
X48336200Y-43789600D01*
X41021000Y-38811200D02*
X41021000Y-43510200D01*
X41021000Y-43510200D02*
X40741600Y-43789600D01*
X64770000Y-66243200D02*
X62001400Y-69011800D01*
X62001400Y-69011800D02*
X56184800Y-69011800D01*
X92532200Y-66243200D02*
X64770000Y-66243200D01*
X95732600Y-69443600D02*
X92532200Y-66243200D01*
X95732600Y-69443600D02*
X96088200Y-69443600D01*
X92378390Y-66725800D02*
X64923810Y-66725800D01*
X64923810Y-66725800D02*
X61112809Y-70536801D01*
X61112809Y-70536801D02*
X49683401Y-70536801D01*
X49683401Y-70536801D02*
X49536199Y-70389599D01*
X49536199Y-70389599D02*
X48336200Y-69189600D01*
X94620190Y-68967600D02*
X92378390Y-66725800D01*
X95732600Y-71983600D02*
X94620190Y-70871190D01*
X94620190Y-70871190D02*
X94620190Y-68967600D01*
X95732600Y-71983600D02*
X96088200Y-71983600D01*
X65026820Y-67259200D02*
X61299209Y-70986811D01*
X61299209Y-70986811D02*
X42538811Y-70986811D01*
X42538811Y-70986811D02*
X41941599Y-70389599D01*
X41941599Y-70389599D02*
X40741600Y-69189600D01*
X94170181Y-69154001D02*
X92275380Y-67259200D01*
X92275380Y-67259200D02*
X65026820Y-67259200D01*
X95732600Y-74523600D02*
X94170181Y-72961181D01*
X94170181Y-72961181D02*
X94170181Y-69154001D01*
X95732600Y-74523600D02*
X96088200Y-74523600D01*
X82524600Y-25628600D02*
X83800000Y-26904000D01*
X83800000Y-26904000D02*
X83800000Y-34498600D01*
X83800000Y-34498600D02*
X87281590Y-37980190D01*
X87281590Y-37980190D02*
X97039216Y-37980191D01*
X110972600Y-64363600D02*
X111328200Y-64363600D01*
X97039216Y-37980191D02*
X106070400Y-47011375D01*
X106070400Y-47011375D02*
X106070400Y-59461400D01*
X106070400Y-59461400D02*
X110972600Y-64363600D01*
X88950800Y-37134800D02*
X85064600Y-33248600D01*
X85064600Y-33248600D02*
X85064600Y-28168600D01*
X96830235Y-37134800D02*
X88950800Y-37134800D01*
X111328200Y-61823600D02*
X109935200Y-61823600D01*
X109935200Y-61823600D02*
X106520410Y-58408810D01*
X106520410Y-58408810D02*
X106520409Y-46824974D01*
X106520409Y-46824974D02*
X96830235Y-37134800D01*
X85064600Y-25628600D02*
X86330000Y-26894000D01*
X86330000Y-26894000D02*
X86330000Y-33548800D01*
X86330000Y-33548800D02*
X89433400Y-36652200D01*
X89433400Y-36652200D02*
X96984045Y-36652200D01*
X96984045Y-36652200D02*
X107061000Y-46729155D01*
X107061000Y-55372000D02*
X110972600Y-59283600D01*
X107061000Y-46729155D02*
X107061000Y-55372000D01*
X110972600Y-59283600D02*
X111328200Y-59283600D01*
X90449400Y-35991800D02*
X87604600Y-33147000D01*
X87604600Y-33147000D02*
X87604600Y-28168600D01*
X96960055Y-35991800D02*
X90449400Y-35991800D01*
X111328200Y-56743600D02*
X110972600Y-56743600D01*
X110972600Y-56743600D02*
X107511010Y-53282010D01*
X107511010Y-53282010D02*
X107511009Y-46542754D01*
X107511009Y-46542754D02*
X96960055Y-35991800D01*
X87604600Y-25628600D02*
X88870000Y-26894000D01*
X88870000Y-26894000D02*
X88870000Y-33775990D01*
X88870000Y-33775990D02*
X90635800Y-35541790D01*
X108026200Y-46421535D02*
X108026200Y-53160790D01*
X90635800Y-35541790D02*
X97146456Y-35541791D01*
X109069010Y-54203600D02*
X111328200Y-54203600D01*
X97146456Y-35541791D02*
X108026200Y-46421535D01*
X108026200Y-53160790D02*
X109069010Y-54203600D01*
X111328200Y-54203600D02*
X110972600Y-54203600D01*
X90144600Y-28168600D02*
X91008199Y-29032199D01*
X91008199Y-29032199D02*
X91622199Y-29032199D01*
X91622199Y-29032199D02*
X109860190Y-47270190D01*
X109860190Y-50551190D02*
X110972600Y-51663600D01*
X109860190Y-47270190D02*
X109860190Y-50551190D01*
X110972600Y-51663600D02*
X111328200Y-51663600D01*
X90144600Y-25628600D02*
X111099600Y-46583600D01*
X111099600Y-46583600D02*
X111328200Y-46583600D01*
X111328200Y-46583600D02*
X110972600Y-46583600D01*
D34*
X53568600Y-26212800D02*
X53568600Y-26228600D01*
X53568600Y-26228600D02*
X58090000Y-30750000D01*
X58090000Y-30750000D02*
X58090000Y-34289800D01*
X58090000Y-34289800D02*
X56184800Y-36195000D01*
X56159400Y-36169600D02*
X56184800Y-36195000D01*
D35*
X96088200Y-41503600D02*
X77413600Y-41503600D01*
X77413600Y-41503600D02*
X76170000Y-40260000D01*
X76170000Y-40260000D02*
X76170000Y-26894000D01*
X76170000Y-26894000D02*
X75768199Y-26492199D01*
X75768199Y-26492199D02*
X74904600Y-25628600D01*
D37*
G36*
X131090600Y-68849792D02*
X131034364Y-68906028D01*
X130874582Y-68587261D01*
X130083813Y-68277277D01*
X129234613Y-68293503D01*
X128525418Y-68587261D01*
X128365635Y-68906030D01*
X129700000Y-70240395D01*
X129714143Y-70226253D01*
X129893748Y-70405858D01*
X129879605Y-70420000D01*
X129893748Y-70434143D01*
X129714143Y-70613748D01*
X129700000Y-70599605D01*
X128365635Y-71933970D01*
X128525418Y-72252739D01*
X129316187Y-72562723D01*
X130165387Y-72546497D01*
X130874582Y-72252739D01*
X131034364Y-71933972D01*
X131090600Y-71990208D01*
X131090600Y-86412000D01*
X14553000Y-86412000D01*
X14553000Y-75367636D01*
X22736637Y-75133148D01*
X22785741Y-75121731D01*
X22826534Y-75092110D01*
X22852588Y-75048951D01*
X22859799Y-74999057D01*
X22847030Y-74950288D01*
X22816293Y-74910329D01*
X22772431Y-74885476D01*
X22729363Y-74879252D01*
X14553000Y-75113532D01*
X14553000Y-72384686D01*
X29286320Y-72384686D01*
X29405786Y-72669184D01*
X30077090Y-72924094D01*
X30794846Y-72902704D01*
X31358614Y-72669184D01*
X31478080Y-72384686D01*
X30382200Y-71288805D01*
X29286320Y-72384686D01*
X14553000Y-72384686D01*
X14553000Y-70804090D01*
X28567306Y-70804090D01*
X28588696Y-71521846D01*
X28822216Y-72085614D01*
X29106714Y-72205080D01*
X30202595Y-71109200D01*
X30561805Y-71109200D01*
X31657686Y-72205080D01*
X31942184Y-72085614D01*
X32197094Y-71414310D01*
X32175704Y-70696554D01*
X31942184Y-70132786D01*
X31657686Y-70013320D01*
X30561805Y-71109200D01*
X30202595Y-71109200D01*
X29106714Y-70013320D01*
X28822216Y-70132786D01*
X28567306Y-70804090D01*
X14553000Y-70804090D01*
X14553000Y-69833714D01*
X29286320Y-69833714D01*
X30382200Y-70929595D01*
X31478080Y-69833714D01*
X31358614Y-69549216D01*
X30687310Y-69294306D01*
X29969554Y-69315696D01*
X29405786Y-69549216D01*
X29286320Y-69833714D01*
X14553000Y-69833714D01*
X14553000Y-66232922D01*
X18503825Y-66232922D01*
X18718466Y-66751132D01*
X19180608Y-67245812D01*
X19796877Y-67525983D01*
X20066000Y-67408404D01*
X20066000Y-65963800D01*
X20320000Y-65963800D01*
X20320000Y-67408404D01*
X20589123Y-67525983D01*
X21205392Y-67245812D01*
X21667534Y-66751132D01*
X21882175Y-66232922D01*
X21764125Y-65963800D01*
X20320000Y-65963800D01*
X20066000Y-65963800D01*
X18621875Y-65963800D01*
X18503825Y-66232922D01*
X14553000Y-66232922D01*
X14553000Y-65440678D01*
X18503825Y-65440678D01*
X18621875Y-65709800D01*
X20066000Y-65709800D01*
X20066000Y-64265196D01*
X20320000Y-64265196D01*
X20320000Y-65709800D01*
X21764125Y-65709800D01*
X21882175Y-65440678D01*
X21667534Y-64922468D01*
X21205392Y-64427788D01*
X20589123Y-64147617D01*
X20320000Y-64265196D01*
X20066000Y-64265196D01*
X19796877Y-64147617D01*
X19180608Y-64427788D01*
X18718466Y-64922468D01*
X18503825Y-65440678D01*
X14553000Y-65440678D01*
X14553000Y-56096000D01*
X19913960Y-56096000D01*
X19913960Y-57696000D01*
X19958238Y-57931317D01*
X20097310Y-58147441D01*
X20309510Y-58292431D01*
X20561400Y-58343440D01*
X22161400Y-58343440D01*
X22396717Y-58299162D01*
X22612841Y-58160090D01*
X22617377Y-58153452D01*
X23144623Y-58342965D01*
X23714854Y-58315778D01*
X24115405Y-58149864D01*
X24189539Y-57903745D01*
X23361400Y-57075605D01*
X23347258Y-57089748D01*
X23167653Y-56910143D01*
X23181795Y-56896000D01*
X23541005Y-56896000D01*
X24369145Y-57724139D01*
X24615264Y-57650005D01*
X24808365Y-57112777D01*
X24781178Y-56542546D01*
X24615264Y-56141995D01*
X24369145Y-56067861D01*
X23541005Y-56896000D01*
X23181795Y-56896000D01*
X23167653Y-56881858D01*
X23347258Y-56702252D01*
X23361400Y-56716395D01*
X24189539Y-55888255D01*
X24115405Y-55642136D01*
X23578177Y-55449035D01*
X23007946Y-55476222D01*
X22616453Y-55638384D01*
X22413290Y-55499569D01*
X22207006Y-55457796D01*
X22837401Y-54827401D01*
X23002148Y-54580840D01*
X23023678Y-54472599D01*
X23060000Y-54290000D01*
X23060000Y-51521260D01*
X23207554Y-51422668D01*
X23655190Y-51670929D01*
X23728000Y-51683310D01*
X23930400Y-51559624D01*
X23930400Y-50317400D01*
X23910400Y-50317400D01*
X23910400Y-50063400D01*
X23930400Y-50063400D01*
X23930400Y-48821176D01*
X23728000Y-48697490D01*
X23655190Y-48709871D01*
X23207554Y-48958132D01*
X22858715Y-48725046D01*
X22357400Y-48625328D01*
X21856085Y-48725046D01*
X21507246Y-48958132D01*
X21059610Y-48709871D01*
X20986800Y-48697490D01*
X20784400Y-48821176D01*
X20784400Y-50063400D01*
X20804400Y-50063400D01*
X20804400Y-50317400D01*
X20784400Y-50317400D01*
X20784400Y-51559624D01*
X20986800Y-51683310D01*
X21059610Y-51670929D01*
X21507246Y-51422668D01*
X21540000Y-51444553D01*
X21540000Y-53975198D01*
X20842599Y-54672599D01*
X20677852Y-54919161D01*
X20620000Y-55210000D01*
X20620000Y-55448560D01*
X20561400Y-55448560D01*
X20326083Y-55492838D01*
X20109959Y-55631910D01*
X19964969Y-55844110D01*
X19913960Y-56096000D01*
X14553000Y-56096000D01*
X14553000Y-50524276D01*
X19343523Y-50524276D01*
X19485201Y-51018787D01*
X19805336Y-51421438D01*
X20255190Y-51670929D01*
X20328000Y-51683310D01*
X20530400Y-51559624D01*
X20530400Y-50317400D01*
X19501417Y-50317400D01*
X19343523Y-50524276D01*
X14553000Y-50524276D01*
X14553000Y-49856524D01*
X19343523Y-49856524D01*
X19501417Y-50063400D01*
X20530400Y-50063400D01*
X20530400Y-48821176D01*
X20328000Y-48697490D01*
X20255190Y-48709871D01*
X19805336Y-48959362D01*
X19485201Y-49362013D01*
X19343523Y-49856524D01*
X14553000Y-49856524D01*
X14553000Y-42241975D01*
X19561830Y-42241975D01*
X19684965Y-42529588D01*
X20367134Y-42789507D01*
X21096843Y-42768586D01*
X21673835Y-42529588D01*
X21796970Y-42241975D01*
X20679400Y-41124405D01*
X19561830Y-42241975D01*
X14553000Y-42241975D01*
X14553000Y-40632534D01*
X18834693Y-40632534D01*
X18855614Y-41362243D01*
X19094612Y-41939235D01*
X19382225Y-42062370D01*
X20499795Y-40944800D01*
X20859005Y-40944800D01*
X21976575Y-42062370D01*
X22264188Y-41939235D01*
X22524107Y-41257066D01*
X22503186Y-40527357D01*
X22264188Y-39950365D01*
X21976575Y-39827230D01*
X20859005Y-40944800D01*
X20499795Y-40944800D01*
X19382225Y-39827230D01*
X19094612Y-39950365D01*
X18834693Y-40632534D01*
X14553000Y-40632534D01*
X14553000Y-39647625D01*
X19561830Y-39647625D01*
X20679400Y-40765195D01*
X21796970Y-39647625D01*
X21673835Y-39360012D01*
X20991666Y-39100093D01*
X20261957Y-39121014D01*
X19684965Y-39360012D01*
X19561830Y-39647625D01*
X14553000Y-39647625D01*
X14553000Y-31091375D01*
X19614030Y-31091375D01*
X19737165Y-31378988D01*
X20419334Y-31638907D01*
X21149043Y-31617986D01*
X21726035Y-31378988D01*
X21849170Y-31091375D01*
X20731600Y-29973805D01*
X19614030Y-31091375D01*
X14553000Y-31091375D01*
X14553000Y-29481934D01*
X18886893Y-29481934D01*
X18907814Y-30211643D01*
X19146812Y-30788635D01*
X19434425Y-30911770D01*
X20551995Y-29794200D01*
X20911205Y-29794200D01*
X22028775Y-30911770D01*
X22316388Y-30788635D01*
X22384160Y-30610764D01*
X22384160Y-30994200D01*
X22428438Y-31229517D01*
X22567510Y-31445641D01*
X22779710Y-31590631D01*
X23031600Y-31641640D01*
X24446508Y-31641640D01*
X24535000Y-31730132D01*
X24535000Y-39097360D01*
X24479400Y-39097360D01*
X24244083Y-39141638D01*
X24027959Y-39280710D01*
X23882969Y-39492910D01*
X23831960Y-39744800D01*
X23831960Y-42144800D01*
X23876238Y-42380117D01*
X24015310Y-42596241D01*
X24227510Y-42741231D01*
X24479400Y-42792240D01*
X25921708Y-42792240D01*
X26322400Y-43192932D01*
X26322400Y-48767599D01*
X26258715Y-48725046D01*
X25757400Y-48625328D01*
X25256085Y-48725046D01*
X24907246Y-48958132D01*
X24459610Y-48709871D01*
X24386800Y-48697490D01*
X24184400Y-48821176D01*
X24184400Y-50063400D01*
X24204400Y-50063400D01*
X24204400Y-50317400D01*
X24184400Y-50317400D01*
X24184400Y-51559624D01*
X24386800Y-51683310D01*
X24459610Y-51670929D01*
X24907246Y-51422668D01*
X24997400Y-51482907D01*
X24997400Y-52188640D01*
X25055252Y-52479479D01*
X25219999Y-52726041D01*
X25874440Y-53380482D01*
X25874440Y-56663497D01*
X25737805Y-56719953D01*
X25291560Y-57165420D01*
X25049756Y-57747749D01*
X25049206Y-58378285D01*
X25289993Y-58961035D01*
X25735460Y-59407280D01*
X26214800Y-59606319D01*
X26214800Y-61108600D01*
X26272652Y-61399439D01*
X26437399Y-61646001D01*
X28961311Y-64169913D01*
X28801559Y-64272710D01*
X28656569Y-64484910D01*
X28605560Y-64736800D01*
X28605560Y-66936800D01*
X28649838Y-67172117D01*
X28788910Y-67388241D01*
X29001110Y-67533231D01*
X29253000Y-67584240D01*
X31453000Y-67584240D01*
X31688317Y-67539962D01*
X31904441Y-67400890D01*
X32049431Y-67188690D01*
X32100440Y-66936800D01*
X32100440Y-64736800D01*
X32056162Y-64501483D01*
X31917090Y-64285359D01*
X31704890Y-64140369D01*
X31453000Y-64089360D01*
X30983920Y-64089360D01*
X30890401Y-63949399D01*
X27734800Y-60793798D01*
X27734800Y-59205477D01*
X27977320Y-58963380D01*
X28219124Y-58381051D01*
X28219674Y-57750515D01*
X27978887Y-57167765D01*
X27533420Y-56721520D01*
X27394440Y-56663810D01*
X27394440Y-53065680D01*
X27336588Y-52774841D01*
X27171841Y-52528279D01*
X26517400Y-51873838D01*
X26517400Y-51677873D01*
X26530510Y-51686831D01*
X26782400Y-51737840D01*
X28132400Y-51737840D01*
X28367717Y-51693562D01*
X28583841Y-51554490D01*
X28728831Y-51342290D01*
X28779840Y-51090400D01*
X28779840Y-49290400D01*
X28735562Y-49055083D01*
X28596490Y-48838959D01*
X28592400Y-48836164D01*
X28592400Y-42722800D01*
X28506003Y-42288454D01*
X28259966Y-41920234D01*
X27526840Y-41187108D01*
X27526840Y-39744800D01*
X27482562Y-39509483D01*
X27343490Y-39293359D01*
X27131290Y-39148369D01*
X26923119Y-39106213D01*
X32662874Y-33366458D01*
X39529954Y-33366458D01*
X39650003Y-33604200D01*
X40894000Y-33604200D01*
X40894000Y-32360822D01*
X41148000Y-32360822D01*
X41148000Y-33604200D01*
X42391997Y-33604200D01*
X42512046Y-33366458D01*
X42258966Y-32823624D01*
X41817417Y-32418960D01*
X41385740Y-32240164D01*
X41148000Y-32360822D01*
X40894000Y-32360822D01*
X40656260Y-32240164D01*
X40224583Y-32418960D01*
X39783034Y-32823624D01*
X39529954Y-33366458D01*
X32662874Y-33366458D01*
X38681532Y-27347800D01*
X41608800Y-27347800D01*
X42027799Y-27767530D01*
X42701995Y-28047481D01*
X43432003Y-28048118D01*
X44106686Y-27769345D01*
X44623330Y-27253601D01*
X44818735Y-26783015D01*
X45012055Y-27250886D01*
X45433600Y-27673167D01*
X45433600Y-31526259D01*
X41925212Y-35034647D01*
X41868418Y-34996699D01*
X42258966Y-34638776D01*
X42512046Y-34095942D01*
X42391997Y-33858200D01*
X41148000Y-33858200D01*
X41148000Y-33878200D01*
X40894000Y-33878200D01*
X40894000Y-33858200D01*
X39650003Y-33858200D01*
X39529954Y-34095942D01*
X39783034Y-34638776D01*
X40173582Y-34996699D01*
X39935591Y-35155719D01*
X39602845Y-35653709D01*
X39486000Y-36241128D01*
X39486000Y-36301272D01*
X39602845Y-36888691D01*
X39883837Y-37309226D01*
X39669559Y-37447110D01*
X39524569Y-37659310D01*
X39473560Y-37911200D01*
X39473560Y-39711200D01*
X39517838Y-39946517D01*
X39656910Y-40162641D01*
X39869110Y-40307631D01*
X40121000Y-40358640D01*
X40261000Y-40358640D01*
X40261000Y-42014247D01*
X40039376Y-42058331D01*
X39444059Y-42456109D01*
X39046281Y-43051426D01*
X38906600Y-43753650D01*
X38906600Y-43825550D01*
X39046281Y-44527774D01*
X39444059Y-45123091D01*
X40039376Y-45520869D01*
X40741600Y-45660550D01*
X41443824Y-45520869D01*
X42039141Y-45123091D01*
X42436919Y-44527774D01*
X42576600Y-43825550D01*
X42576600Y-43753650D01*
X42436919Y-43051426D01*
X42039141Y-42456109D01*
X41781000Y-42283625D01*
X41781000Y-40358640D01*
X41921000Y-40358640D01*
X42156317Y-40314362D01*
X42372441Y-40175290D01*
X42517431Y-39963090D01*
X42568440Y-39711200D01*
X42568440Y-37911200D01*
X42524162Y-37675883D01*
X42385090Y-37459759D01*
X42303792Y-37404211D01*
X42728138Y-37319803D01*
X43096358Y-37073766D01*
X47220916Y-32949209D01*
X47073754Y-33264858D01*
X47193803Y-33502600D01*
X48437800Y-33502600D01*
X48437800Y-32259222D01*
X48200060Y-32138564D01*
X47768383Y-32317360D01*
X47573812Y-32495678D01*
X47617203Y-32430738D01*
X47634703Y-32342760D01*
X47703600Y-31996392D01*
X47703600Y-27672600D01*
X48123330Y-27253601D01*
X48318735Y-26783015D01*
X48512055Y-27250886D01*
X49027799Y-27767530D01*
X49701995Y-28047481D01*
X49805000Y-28047571D01*
X49805000Y-32726816D01*
X49802766Y-32722024D01*
X49361217Y-32317360D01*
X48929540Y-32138564D01*
X48691800Y-32259222D01*
X48691800Y-33502600D01*
X48711800Y-33502600D01*
X48711800Y-33756600D01*
X48691800Y-33756600D01*
X48691800Y-33776600D01*
X48437800Y-33776600D01*
X48437800Y-33756600D01*
X47193803Y-33756600D01*
X47073754Y-33994342D01*
X47326834Y-34537176D01*
X47717382Y-34895099D01*
X47479391Y-35054119D01*
X47146645Y-35552109D01*
X47029800Y-36139528D01*
X47029800Y-36199672D01*
X47146645Y-36787091D01*
X47427637Y-37207626D01*
X47213359Y-37345510D01*
X47068369Y-37557710D01*
X47017360Y-37809600D01*
X47017360Y-39609600D01*
X47061638Y-39844917D01*
X47200710Y-40061041D01*
X47412910Y-40206031D01*
X47664800Y-40257040D01*
X47804800Y-40257040D01*
X47804800Y-42024352D01*
X47633976Y-42058331D01*
X47038659Y-42456109D01*
X46640881Y-43051426D01*
X46501200Y-43753650D01*
X46501200Y-43825550D01*
X46640881Y-44527774D01*
X47038659Y-45123091D01*
X47633976Y-45520869D01*
X48336200Y-45660550D01*
X49038424Y-45520869D01*
X49633741Y-45123091D01*
X50031519Y-44527774D01*
X50171200Y-43825550D01*
X50171200Y-43753650D01*
X50031519Y-43051426D01*
X49633741Y-42456109D01*
X49324800Y-42249681D01*
X49324800Y-40257040D01*
X49464800Y-40257040D01*
X49700117Y-40212762D01*
X49916241Y-40073690D01*
X50061231Y-39861490D01*
X50112240Y-39609600D01*
X50112240Y-37809600D01*
X50067962Y-37574283D01*
X49928890Y-37358159D01*
X49716690Y-37213169D01*
X49700456Y-37209881D01*
X49982955Y-36787091D01*
X50089853Y-36249679D01*
X51742566Y-34596966D01*
X51904510Y-34354600D01*
X51988603Y-34228746D01*
X52075000Y-33794400D01*
X52075000Y-33290258D01*
X54693754Y-33290258D01*
X54813803Y-33528000D01*
X56057800Y-33528000D01*
X56057800Y-32284622D01*
X55820060Y-32163964D01*
X55388383Y-32342760D01*
X54946834Y-32747424D01*
X54693754Y-33290258D01*
X52075000Y-33290258D01*
X52075000Y-27980732D01*
X52116710Y-28009231D01*
X52368600Y-28060240D01*
X53795108Y-28060240D01*
X56955000Y-31220132D01*
X56955000Y-32331901D01*
X56549540Y-32163964D01*
X56311800Y-32284622D01*
X56311800Y-33528000D01*
X56331800Y-33528000D01*
X56331800Y-33782000D01*
X56311800Y-33782000D01*
X56311800Y-33802000D01*
X56057800Y-33802000D01*
X56057800Y-33782000D01*
X54813803Y-33782000D01*
X54693754Y-34019742D01*
X54946834Y-34562576D01*
X55337382Y-34920499D01*
X55099391Y-35079519D01*
X54766645Y-35577509D01*
X54649800Y-36164928D01*
X54649800Y-36225072D01*
X54766645Y-36812491D01*
X55047637Y-37233026D01*
X54833359Y-37370910D01*
X54688369Y-37583110D01*
X54637360Y-37835000D01*
X54637360Y-39635000D01*
X54681638Y-39870317D01*
X54820710Y-40086441D01*
X55032910Y-40231431D01*
X55284800Y-40282440D01*
X55424800Y-40282440D01*
X55424800Y-41919136D01*
X54887259Y-42278309D01*
X54489481Y-42873626D01*
X54349800Y-43575850D01*
X54349800Y-43647750D01*
X54489481Y-44349974D01*
X54887259Y-44945291D01*
X55482576Y-45343069D01*
X56184800Y-45482750D01*
X56887024Y-45343069D01*
X57482341Y-44945291D01*
X57880119Y-44349974D01*
X58019800Y-43647750D01*
X58019800Y-43575850D01*
X57880119Y-42873626D01*
X57482341Y-42278309D01*
X56944800Y-41919136D01*
X56944800Y-40282440D01*
X57084800Y-40282440D01*
X57320117Y-40238162D01*
X57536241Y-40099090D01*
X57681231Y-39886890D01*
X57732240Y-39635000D01*
X57732240Y-37835000D01*
X57687962Y-37599683D01*
X57548890Y-37383559D01*
X57336690Y-37238569D01*
X57320456Y-37235281D01*
X57602955Y-36812491D01*
X57709853Y-36275079D01*
X58892566Y-35092366D01*
X59138604Y-34724145D01*
X59225000Y-34289800D01*
X59225000Y-30750000D01*
X59138603Y-30315654D01*
X58892566Y-29947434D01*
X55416040Y-26470908D01*
X55416040Y-25012800D01*
X55371762Y-24777483D01*
X55232690Y-24561359D01*
X55020490Y-24416369D01*
X54768600Y-24365360D01*
X52368600Y-24365360D01*
X52133283Y-24409638D01*
X51917159Y-24548710D01*
X51772169Y-24760910D01*
X51721160Y-25012800D01*
X51721160Y-25407088D01*
X51625145Y-25174714D01*
X51109401Y-24658070D01*
X50435205Y-24378119D01*
X49705197Y-24377482D01*
X49030514Y-24656255D01*
X48513870Y-25171999D01*
X48318465Y-25642585D01*
X48125145Y-25174714D01*
X47609401Y-24658070D01*
X46935205Y-24378119D01*
X46205197Y-24377482D01*
X45530514Y-24656255D01*
X45013870Y-25171999D01*
X44818465Y-25642585D01*
X44625145Y-25174714D01*
X44320220Y-24869256D01*
X45296076Y-23893400D01*
X55917868Y-23893400D01*
X64109836Y-32085368D01*
X64478056Y-32331405D01*
X64912402Y-32417802D01*
X66616332Y-32417802D01*
X65747667Y-33286467D01*
X65517888Y-33630355D01*
X65517888Y-33630356D01*
X65437200Y-34036000D01*
X65437200Y-55785910D01*
X65289400Y-55846980D01*
X64688291Y-56447041D01*
X64625607Y-56598000D01*
X44206160Y-56598000D01*
X43800516Y-56678688D01*
X43456627Y-56908467D01*
X43385094Y-56980000D01*
X32790169Y-56980000D01*
X32532140Y-56721520D01*
X31949811Y-56479716D01*
X31319275Y-56479166D01*
X30736525Y-56719953D01*
X30290280Y-57165420D01*
X30048476Y-57747749D01*
X30047926Y-58378285D01*
X30288713Y-58961035D01*
X30734180Y-59407280D01*
X31316509Y-59649084D01*
X31947045Y-59649634D01*
X32529795Y-59408847D01*
X32839181Y-59100000D01*
X43824160Y-59100000D01*
X44229805Y-59019312D01*
X44573693Y-58789533D01*
X44645226Y-58718000D01*
X64625110Y-58718000D01*
X64686180Y-58865800D01*
X65286241Y-59466909D01*
X66070659Y-59792628D01*
X66920015Y-59793370D01*
X67705000Y-59469020D01*
X68306109Y-58868959D01*
X68631828Y-58084541D01*
X68632570Y-57235185D01*
X68308220Y-56450200D01*
X67708159Y-55849091D01*
X67557200Y-55786407D01*
X67557200Y-48776540D01*
X94353190Y-48776540D01*
X94475348Y-48996600D01*
X95961200Y-48996600D01*
X95961200Y-47701200D01*
X96215200Y-47701200D01*
X96215200Y-48996600D01*
X97701052Y-48996600D01*
X97823210Y-48776540D01*
X97806527Y-48696604D01*
X97539391Y-48207614D01*
X97105462Y-47858075D01*
X96570800Y-47701200D01*
X96215200Y-47701200D01*
X95961200Y-47701200D01*
X95605600Y-47701200D01*
X95070938Y-47858075D01*
X94637009Y-48207614D01*
X94369873Y-48696604D01*
X94353190Y-48776540D01*
X67557200Y-48776540D01*
X67557200Y-34475066D01*
X72365066Y-29667200D01*
X72393959Y-29667200D01*
X72967448Y-29553126D01*
X73453629Y-29228270D01*
X73634600Y-28957428D01*
X73815571Y-29228270D01*
X74144600Y-29448120D01*
X74144600Y-40386000D01*
X74202452Y-40676839D01*
X74367199Y-40923401D01*
X77973999Y-44530201D01*
X78220560Y-44694948D01*
X78268814Y-44704546D01*
X78511400Y-44752800D01*
X94439813Y-44752800D01*
X94502080Y-44765186D01*
X94691978Y-45049389D01*
X95153438Y-45357726D01*
X95697767Y-45466000D01*
X96478633Y-45466000D01*
X97022962Y-45357726D01*
X97484422Y-45049389D01*
X97792759Y-44587929D01*
X97901033Y-44043600D01*
X97792759Y-43499271D01*
X97484422Y-43037811D01*
X97089001Y-42773600D01*
X97484422Y-42509389D01*
X97670094Y-42231511D01*
X103380000Y-47941417D01*
X103380000Y-67691000D01*
X103437852Y-67981839D01*
X103602599Y-68228401D01*
X109578817Y-74204619D01*
X109515367Y-74523600D01*
X109623641Y-75067929D01*
X109931978Y-75529389D01*
X110103660Y-75644103D01*
X109949883Y-75673038D01*
X109733759Y-75812110D01*
X109588769Y-76024310D01*
X109537760Y-76276200D01*
X109537760Y-76303600D01*
X104607202Y-76303600D01*
X101986655Y-73683053D01*
X101986655Y-54744655D01*
X101938401Y-54502069D01*
X101928803Y-54453815D01*
X101764056Y-54207254D01*
X97559528Y-50002726D01*
X97806527Y-49550596D01*
X97823210Y-49470660D01*
X97701052Y-49250600D01*
X96215200Y-49250600D01*
X96215200Y-49270600D01*
X95961200Y-49270600D01*
X95961200Y-49250600D01*
X94475348Y-49250600D01*
X94353190Y-49470660D01*
X94369873Y-49550596D01*
X94402325Y-49610000D01*
X78865200Y-49610000D01*
X78574361Y-49667852D01*
X78327799Y-49832599D01*
X72451217Y-55709181D01*
X72003741Y-55523372D01*
X71154385Y-55522630D01*
X70369400Y-55846980D01*
X69768291Y-56447041D01*
X69442572Y-57231459D01*
X69441830Y-58080815D01*
X69766180Y-58865800D01*
X70366241Y-59466909D01*
X71150659Y-59792628D01*
X72000015Y-59793370D01*
X72785000Y-59469020D01*
X73386109Y-58868959D01*
X73711828Y-58084541D01*
X73712570Y-57235185D01*
X73526102Y-56783900D01*
X79180002Y-51130000D01*
X94381507Y-51130000D01*
X94275367Y-51663600D01*
X94383641Y-52207929D01*
X94691978Y-52669389D01*
X95087399Y-52933600D01*
X94691978Y-53197811D01*
X94383641Y-53659271D01*
X94275367Y-54203600D01*
X94383641Y-54747929D01*
X94691978Y-55209389D01*
X95087399Y-55473600D01*
X94691978Y-55737811D01*
X94383641Y-56199271D01*
X94275367Y-56743600D01*
X94383641Y-57287929D01*
X94691978Y-57749389D01*
X95087399Y-58013600D01*
X94691978Y-58277811D01*
X94383641Y-58739271D01*
X94275367Y-59283600D01*
X94383641Y-59827929D01*
X94691978Y-60289389D01*
X95087399Y-60553600D01*
X94691978Y-60817811D01*
X94383641Y-61279271D01*
X94275367Y-61823600D01*
X94383641Y-62367929D01*
X94691978Y-62829389D01*
X95087399Y-63093600D01*
X94691978Y-63357811D01*
X94391825Y-63807023D01*
X85057401Y-54472599D01*
X84810839Y-54307852D01*
X84520000Y-54250000D01*
X79305200Y-54250000D01*
X79014361Y-54307852D01*
X78767799Y-54472599D01*
X77531217Y-55709181D01*
X77083741Y-55523372D01*
X76234385Y-55522630D01*
X75449400Y-55846980D01*
X74848291Y-56447041D01*
X74522572Y-57231459D01*
X74521830Y-58080815D01*
X74846180Y-58865800D01*
X75446241Y-59466909D01*
X76230659Y-59792628D01*
X77080015Y-59793370D01*
X77865000Y-59469020D01*
X78466109Y-58868959D01*
X78791828Y-58084541D01*
X78792570Y-57235185D01*
X78606102Y-56783900D01*
X79620002Y-55770000D01*
X79733769Y-55770000D01*
X79640769Y-55906110D01*
X79589760Y-56158000D01*
X79589760Y-59158000D01*
X79634038Y-59393317D01*
X79773110Y-59609441D01*
X79985310Y-59754431D01*
X80237200Y-59805440D01*
X83237200Y-59805440D01*
X83472517Y-59761162D01*
X83688641Y-59622090D01*
X83833631Y-59409890D01*
X83884640Y-59158000D01*
X83884640Y-58418000D01*
X86172198Y-58418000D01*
X94338817Y-66584619D01*
X94275367Y-66903600D01*
X94277345Y-66913543D01*
X93069601Y-65705799D01*
X92823039Y-65541052D01*
X92532200Y-65483200D01*
X64770000Y-65483200D01*
X64479161Y-65541052D01*
X64232599Y-65705799D01*
X61686598Y-68251800D01*
X57856248Y-68251800D01*
X57741345Y-67973714D01*
X57225601Y-67457070D01*
X56551405Y-67177119D01*
X55821397Y-67176482D01*
X55146714Y-67455255D01*
X54630070Y-67970999D01*
X54350119Y-68645195D01*
X54349482Y-69375203D01*
X54515419Y-69776801D01*
X50079281Y-69776801D01*
X50170881Y-69556205D01*
X50171518Y-68826197D01*
X49892745Y-68151514D01*
X49377001Y-67634870D01*
X48702805Y-67354919D01*
X47972797Y-67354282D01*
X47298114Y-67633055D01*
X46781470Y-68148799D01*
X46501519Y-68822995D01*
X46500882Y-69553003D01*
X46779293Y-70226811D01*
X42853613Y-70226811D01*
X42460893Y-69834091D01*
X42576281Y-69556205D01*
X42576918Y-68826197D01*
X42298145Y-68151514D01*
X41782401Y-67634870D01*
X41108205Y-67354919D01*
X40378197Y-67354282D01*
X39703514Y-67633055D01*
X39186870Y-68148799D01*
X38906919Y-68822995D01*
X38906282Y-69553003D01*
X39185055Y-70227686D01*
X39700799Y-70744330D01*
X40374995Y-71024281D01*
X41105003Y-71024918D01*
X41386007Y-70908809D01*
X42001410Y-71524212D01*
X42247971Y-71688959D01*
X42538811Y-71746811D01*
X61299209Y-71746811D01*
X61590048Y-71688959D01*
X61836610Y-71524212D01*
X65341622Y-68019200D01*
X91960578Y-68019200D01*
X93410181Y-69468803D01*
X93410181Y-72961181D01*
X93468033Y-73252020D01*
X93632780Y-73498582D01*
X94338817Y-74204619D01*
X94275367Y-74523600D01*
X94383641Y-75067929D01*
X94691978Y-75529389D01*
X95087399Y-75793600D01*
X94691978Y-76057811D01*
X94383641Y-76519271D01*
X94275367Y-77063600D01*
X94383641Y-77607929D01*
X94691978Y-78069389D01*
X95153438Y-78377726D01*
X95697767Y-78486000D01*
X96478633Y-78486000D01*
X96805645Y-78420953D01*
X96053388Y-79173210D01*
X93099850Y-79173210D01*
X93258657Y-79107592D01*
X93606371Y-78760485D01*
X93794785Y-78306734D01*
X93795214Y-77815421D01*
X93607592Y-77361343D01*
X93280000Y-77033178D01*
X93280000Y-75168998D01*
X93222148Y-74878159D01*
X93057401Y-74631597D01*
X91399602Y-72973798D01*
X91153040Y-72809051D01*
X90862201Y-72751199D01*
X86639601Y-72751199D01*
X86348762Y-72809051D01*
X86102200Y-72973798D01*
X85766138Y-73309860D01*
X85505212Y-73201514D01*
X84787138Y-73200887D01*
X84123485Y-73475103D01*
X83615288Y-73982415D01*
X83339914Y-74645588D01*
X83339287Y-75363662D01*
X83360995Y-75416199D01*
X81945201Y-75416199D01*
X81654361Y-75474051D01*
X81407800Y-75638798D01*
X80628666Y-76417932D01*
X80303041Y-76353161D01*
X85890002Y-70766200D01*
X86005612Y-70766200D01*
X86113503Y-71027315D01*
X86620815Y-71535512D01*
X87283988Y-71810886D01*
X88002062Y-71811513D01*
X88665715Y-71537297D01*
X89173912Y-71029985D01*
X89449286Y-70366812D01*
X89449913Y-69648738D01*
X89175697Y-68985085D01*
X88668385Y-68476888D01*
X88005212Y-68201514D01*
X87287138Y-68200887D01*
X86623485Y-68475103D01*
X86115288Y-68982415D01*
X86005755Y-69246200D01*
X85575200Y-69246200D01*
X85284361Y-69304052D01*
X85037799Y-69468799D01*
X78088666Y-76417932D01*
X77673200Y-76335291D01*
X77085781Y-76452136D01*
X76587791Y-76784882D01*
X76403200Y-77061142D01*
X76218609Y-76784882D01*
X75720619Y-76452136D01*
X75133200Y-76335291D01*
X74545781Y-76452136D01*
X74047791Y-76784882D01*
X73857008Y-77070410D01*
X73588806Y-76732988D01*
X73063286Y-76441444D01*
X72957940Y-76417164D01*
X72720200Y-76537822D01*
X72720200Y-78181200D01*
X72740200Y-78181200D01*
X72740200Y-78435200D01*
X72720200Y-78435200D01*
X72720200Y-78455200D01*
X72466200Y-78455200D01*
X72466200Y-78435200D01*
X72446200Y-78435200D01*
X72446200Y-78181200D01*
X72466200Y-78181200D01*
X72466200Y-76537822D01*
X72228460Y-76417164D01*
X72123114Y-76441444D01*
X71597594Y-76732988D01*
X71329392Y-77070410D01*
X71138609Y-76784882D01*
X70640619Y-76452136D01*
X70053200Y-76335291D01*
X69465781Y-76452136D01*
X68967791Y-76784882D01*
X68777008Y-77070410D01*
X68508806Y-76732988D01*
X67983286Y-76441444D01*
X67877940Y-76417164D01*
X67640200Y-76537822D01*
X67640200Y-78181200D01*
X67660200Y-78181200D01*
X67660200Y-78435200D01*
X67640200Y-78435200D01*
X67640200Y-78455200D01*
X67386200Y-78455200D01*
X67386200Y-78435200D01*
X65100200Y-78435200D01*
X65100200Y-78455200D01*
X64846200Y-78455200D01*
X64846200Y-78435200D01*
X62560200Y-78435200D01*
X62560200Y-78455200D01*
X62306200Y-78455200D01*
X62306200Y-78435200D01*
X60020200Y-78435200D01*
X60020200Y-78455200D01*
X59766200Y-78455200D01*
X59766200Y-78435200D01*
X59746200Y-78435200D01*
X59746200Y-78181200D01*
X59766200Y-78181200D01*
X59766200Y-76537822D01*
X60020200Y-76537822D01*
X60020200Y-78181200D01*
X62306200Y-78181200D01*
X62306200Y-76537822D01*
X62560200Y-76537822D01*
X62560200Y-78181200D01*
X64846200Y-78181200D01*
X64846200Y-76537822D01*
X65100200Y-76537822D01*
X65100200Y-78181200D01*
X67386200Y-78181200D01*
X67386200Y-76537822D01*
X67148460Y-76417164D01*
X67043114Y-76441444D01*
X66517594Y-76732988D01*
X66243200Y-77078200D01*
X65968806Y-76732988D01*
X65443286Y-76441444D01*
X65337940Y-76417164D01*
X65100200Y-76537822D01*
X64846200Y-76537822D01*
X64608460Y-76417164D01*
X64503114Y-76441444D01*
X63977594Y-76732988D01*
X63703200Y-77078200D01*
X63428806Y-76732988D01*
X62903286Y-76441444D01*
X62797940Y-76417164D01*
X62560200Y-76537822D01*
X62306200Y-76537822D01*
X62068460Y-76417164D01*
X61963114Y-76441444D01*
X61437594Y-76732988D01*
X61163200Y-77078200D01*
X60888806Y-76732988D01*
X60363286Y-76441444D01*
X60257940Y-76417164D01*
X60020200Y-76537822D01*
X59766200Y-76537822D01*
X59528460Y-76417164D01*
X59423114Y-76441444D01*
X58897594Y-76732988D01*
X58629392Y-77070410D01*
X58438609Y-76784882D01*
X57940619Y-76452136D01*
X57353200Y-76335291D01*
X56765781Y-76452136D01*
X56267791Y-76784882D01*
X56083200Y-77061142D01*
X55898609Y-76784882D01*
X55400619Y-76452136D01*
X54813200Y-76335291D01*
X54225781Y-76452136D01*
X53727791Y-76784882D01*
X53543200Y-77061142D01*
X53358609Y-76784882D01*
X52860619Y-76452136D01*
X52273200Y-76335291D01*
X51685781Y-76452136D01*
X51187791Y-76784882D01*
X51003200Y-77061142D01*
X50818609Y-76784882D01*
X50320619Y-76452136D01*
X49733200Y-76335291D01*
X49145781Y-76452136D01*
X48647791Y-76784882D01*
X48463200Y-77061142D01*
X48278609Y-76784882D01*
X47780619Y-76452136D01*
X47193200Y-76335291D01*
X46777734Y-76417932D01*
X43462401Y-73102599D01*
X43215839Y-72937852D01*
X42925000Y-72880000D01*
X37033914Y-72880000D01*
X36913297Y-72588085D01*
X36405985Y-72079888D01*
X35742812Y-71804514D01*
X35024738Y-71803887D01*
X34361085Y-72078103D01*
X33852888Y-72585415D01*
X33577514Y-73248588D01*
X33576887Y-73966662D01*
X33851103Y-74630315D01*
X34358415Y-75138512D01*
X35021588Y-75413886D01*
X35739662Y-75414513D01*
X36403315Y-75140297D01*
X36911512Y-74632985D01*
X37008256Y-74400000D01*
X42610198Y-74400000D01*
X44583398Y-76373200D01*
X44526198Y-76373200D01*
X44526198Y-76537821D01*
X44288460Y-76417164D01*
X44183114Y-76441444D01*
X43657594Y-76732988D01*
X43283646Y-77203448D01*
X43118200Y-77781200D01*
X43118200Y-78181200D01*
X44526200Y-78181200D01*
X44526200Y-78161200D01*
X44780200Y-78161200D01*
X44780200Y-78181200D01*
X44800200Y-78181200D01*
X44800200Y-78435200D01*
X44780200Y-78435200D01*
X44780200Y-80078578D01*
X45017940Y-80199236D01*
X45123286Y-80174956D01*
X45648806Y-79883412D01*
X45917008Y-79545990D01*
X46107791Y-79831518D01*
X46605781Y-80164264D01*
X47193200Y-80281109D01*
X47780619Y-80164264D01*
X48278609Y-79831518D01*
X48463200Y-79555258D01*
X48647791Y-79831518D01*
X49145781Y-80164264D01*
X49733200Y-80281109D01*
X50148666Y-80198468D01*
X51823468Y-81873270D01*
X37221072Y-81873270D01*
X33783002Y-78435200D01*
X43118200Y-78435200D01*
X43118200Y-78835200D01*
X43283646Y-79412952D01*
X43657594Y-79883412D01*
X44183114Y-80174956D01*
X44288460Y-80199236D01*
X44526200Y-80078578D01*
X44526200Y-78435200D01*
X43118200Y-78435200D01*
X33783002Y-78435200D01*
X32078540Y-76730738D01*
X32186886Y-76469812D01*
X32187513Y-75751738D01*
X31913297Y-75088085D01*
X31405985Y-74579888D01*
X30742812Y-74304514D01*
X30024738Y-74303887D01*
X29361085Y-74578103D01*
X28852888Y-75085415D01*
X28577514Y-75748588D01*
X28576887Y-76466662D01*
X28851103Y-77130315D01*
X29358415Y-77638512D01*
X30021588Y-77913886D01*
X30739662Y-77914513D01*
X31003638Y-77805440D01*
X36368869Y-83170671D01*
X36615430Y-83335418D01*
X36906270Y-83393270D01*
X91463937Y-83393270D01*
X91335215Y-83703266D01*
X91334786Y-84194579D01*
X91522408Y-84648657D01*
X91869515Y-84996371D01*
X92323266Y-85184785D01*
X92814579Y-85185214D01*
X93268657Y-84997592D01*
X93616371Y-84650485D01*
X93804785Y-84196734D01*
X93805214Y-83705421D01*
X93676235Y-83393270D01*
X108796730Y-83393270D01*
X109087569Y-83335418D01*
X109334131Y-83170671D01*
X113897401Y-78607401D01*
X114062148Y-78360840D01*
X114120000Y-78070000D01*
X114120000Y-71933970D01*
X114645635Y-71933970D01*
X114805418Y-72252739D01*
X115596187Y-72562723D01*
X116445387Y-72546497D01*
X117154582Y-72252739D01*
X117314365Y-71933970D01*
X115980000Y-70599605D01*
X114645635Y-71933970D01*
X114120000Y-71933970D01*
X114120000Y-71528768D01*
X114147261Y-71594582D01*
X114466030Y-71754365D01*
X115800395Y-70420000D01*
X116159605Y-70420000D01*
X117493970Y-71754365D01*
X117812739Y-71594582D01*
X118122723Y-70803813D01*
X118108056Y-70036187D01*
X127557277Y-70036187D01*
X127573503Y-70885387D01*
X127867261Y-71594582D01*
X128186030Y-71754365D01*
X129520395Y-70420000D01*
X128186030Y-69085635D01*
X127867261Y-69245418D01*
X127557277Y-70036187D01*
X118108056Y-70036187D01*
X118106497Y-69954613D01*
X117812739Y-69245418D01*
X117493970Y-69085635D01*
X116159605Y-70420000D01*
X115800395Y-70420000D01*
X114466030Y-69085635D01*
X114147261Y-69245418D01*
X114120000Y-69314961D01*
X114120000Y-68906030D01*
X114645635Y-68906030D01*
X115980000Y-70240395D01*
X117314365Y-68906030D01*
X117154582Y-68587261D01*
X116363813Y-68277277D01*
X115514613Y-68293503D01*
X114805418Y-68587261D01*
X114645635Y-68906030D01*
X114120000Y-68906030D01*
X114120000Y-50799800D01*
X114062148Y-50508961D01*
X113897401Y-50262399D01*
X113077583Y-49442581D01*
X113141033Y-49123600D01*
X113032759Y-48579271D01*
X112724422Y-48117811D01*
X112329001Y-47853600D01*
X112724422Y-47589389D01*
X113032759Y-47127929D01*
X113141033Y-46583600D01*
X113032759Y-46039271D01*
X112724422Y-45577811D01*
X112329370Y-45313846D01*
X112345462Y-45309125D01*
X112779391Y-44959586D01*
X113046527Y-44470596D01*
X113063210Y-44390660D01*
X112941052Y-44170600D01*
X111455200Y-44170600D01*
X111455200Y-44190600D01*
X111201200Y-44190600D01*
X111201200Y-44170600D01*
X111181200Y-44170600D01*
X111181200Y-43916600D01*
X111201200Y-43916600D01*
X111201200Y-43896600D01*
X111455200Y-43896600D01*
X111455200Y-43916600D01*
X112941052Y-43916600D01*
X113063210Y-43696540D01*
X113046527Y-43616604D01*
X112779391Y-43127614D01*
X112345462Y-42778075D01*
X112329370Y-42773354D01*
X112531044Y-42638600D01*
X113563468Y-42638600D01*
X118405000Y-47480133D01*
X118405000Y-66689340D01*
X118444283Y-66886828D01*
X118366539Y-66964436D01*
X118155241Y-67473298D01*
X118154760Y-68024285D01*
X118365169Y-68533515D01*
X118754436Y-68923461D01*
X119263298Y-69134759D01*
X119814285Y-69135240D01*
X120323515Y-68924831D01*
X120527183Y-68721517D01*
X121288088Y-68721517D01*
X121356077Y-68962460D01*
X121875171Y-69147201D01*
X122425448Y-69119230D01*
X122803923Y-68962460D01*
X122871912Y-68721517D01*
X123318088Y-68721517D01*
X123386077Y-68962460D01*
X123905171Y-69147201D01*
X124455448Y-69119230D01*
X124833923Y-68962460D01*
X124901912Y-68721517D01*
X125858088Y-68721517D01*
X125926077Y-68962460D01*
X126445171Y-69147201D01*
X126995448Y-69119230D01*
X127373923Y-68962460D01*
X127441912Y-68721517D01*
X126650000Y-67929605D01*
X125858088Y-68721517D01*
X124901912Y-68721517D01*
X124110000Y-67929605D01*
X123318088Y-68721517D01*
X122871912Y-68721517D01*
X122080000Y-67929605D01*
X121288088Y-68721517D01*
X120527183Y-68721517D01*
X120713461Y-68535564D01*
X120803377Y-68319021D01*
X120867540Y-68473923D01*
X121108483Y-68541912D01*
X121900395Y-67750000D01*
X122259605Y-67750000D01*
X122836737Y-68327132D01*
X122897540Y-68473923D01*
X123017330Y-68507725D01*
X123051517Y-68541912D01*
X123095000Y-68529642D01*
X123138483Y-68541912D01*
X123172670Y-68507725D01*
X123292460Y-68473923D01*
X123339971Y-68340424D01*
X123930395Y-67750000D01*
X124289605Y-67750000D01*
X125081517Y-68541912D01*
X125322460Y-68473923D01*
X125375642Y-68324489D01*
X125437540Y-68473923D01*
X125678483Y-68541912D01*
X126470395Y-67750000D01*
X126829605Y-67750000D01*
X127621517Y-68541912D01*
X127862460Y-68473923D01*
X128047201Y-67954829D01*
X128019230Y-67404552D01*
X127862460Y-67026077D01*
X127621517Y-66958088D01*
X126829605Y-67750000D01*
X126470395Y-67750000D01*
X125678483Y-66958088D01*
X125437540Y-67026077D01*
X125384358Y-67175511D01*
X125322460Y-67026077D01*
X125081517Y-66958088D01*
X124289605Y-67750000D01*
X123930395Y-67750000D01*
X123353263Y-67172868D01*
X123292460Y-67026077D01*
X123172670Y-66992275D01*
X123138483Y-66958088D01*
X123095000Y-66970358D01*
X123051517Y-66958088D01*
X123017330Y-66992275D01*
X122897540Y-67026077D01*
X122850029Y-67159576D01*
X122259605Y-67750000D01*
X121900395Y-67750000D01*
X121108483Y-66958088D01*
X120867540Y-67026077D01*
X120808268Y-67192621D01*
X120714831Y-66966485D01*
X120635650Y-66887166D01*
X120657268Y-66778483D01*
X121288088Y-66778483D01*
X122080000Y-67570395D01*
X122871912Y-66778483D01*
X123318088Y-66778483D01*
X124110000Y-67570395D01*
X124901912Y-66778483D01*
X125858088Y-66778483D01*
X126650000Y-67570395D01*
X127441912Y-66778483D01*
X127373923Y-66537540D01*
X126854829Y-66352799D01*
X126304552Y-66380770D01*
X125926077Y-66537540D01*
X125858088Y-66778483D01*
X124901912Y-66778483D01*
X124833923Y-66537540D01*
X124314829Y-66352799D01*
X123764552Y-66380770D01*
X123386077Y-66537540D01*
X123318088Y-66778483D01*
X122871912Y-66778483D01*
X122803923Y-66537540D01*
X122284829Y-66352799D01*
X121734552Y-66380770D01*
X121356077Y-66537540D01*
X121288088Y-66778483D01*
X120657268Y-66778483D01*
X120675000Y-66689340D01*
X120675000Y-47010000D01*
X120664843Y-46958936D01*
X120588604Y-46575655D01*
X120342567Y-46207434D01*
X114836166Y-40701034D01*
X114750810Y-40644001D01*
X114467946Y-40454997D01*
X114033600Y-40368600D01*
X112531044Y-40368600D01*
X112262962Y-40189474D01*
X112188670Y-40174696D01*
X112077733Y-40008667D01*
X97503666Y-25434600D01*
X106781686Y-25434600D01*
X106781686Y-34354600D01*
X122123115Y-34354600D01*
X122123115Y-25434600D01*
X106781686Y-25434600D01*
X97503666Y-25434600D01*
X94659533Y-22590467D01*
X94315645Y-22360688D01*
X93910000Y-22280000D01*
X74653200Y-22280000D01*
X74247555Y-22360688D01*
X73903667Y-22590467D01*
X72364134Y-24130000D01*
X72335241Y-24130000D01*
X71761752Y-24244074D01*
X71275571Y-24568930D01*
X71094600Y-24839772D01*
X70913629Y-24568930D01*
X70427448Y-24244074D01*
X69853959Y-24130000D01*
X69795241Y-24130000D01*
X69221752Y-24244074D01*
X68735571Y-24568930D01*
X68554608Y-24839761D01*
X68173090Y-24421779D01*
X67643627Y-24173632D01*
X67411600Y-24294131D01*
X67411600Y-25501600D01*
X67431600Y-25501600D01*
X67431600Y-25755600D01*
X67411600Y-25755600D01*
X67411600Y-28041600D01*
X67431600Y-28041600D01*
X67431600Y-28295600D01*
X67411600Y-28295600D01*
X67411600Y-28315600D01*
X67157600Y-28315600D01*
X67157600Y-28295600D01*
X65944750Y-28295600D01*
X65786000Y-28454350D01*
X65786000Y-29158510D01*
X65882673Y-29391899D01*
X66061302Y-29570527D01*
X66294691Y-29667200D01*
X66998850Y-29667200D01*
X67157598Y-29508452D01*
X67157598Y-29667200D01*
X67168070Y-29667200D01*
X66687468Y-30147802D01*
X65382534Y-30147802D01*
X62413422Y-27178690D01*
X65786000Y-27178690D01*
X65786000Y-27882850D01*
X65944750Y-28041600D01*
X67157600Y-28041600D01*
X67157600Y-25755600D01*
X65950783Y-25755600D01*
X65829642Y-25987626D01*
X66001912Y-26403547D01*
X66258720Y-26684900D01*
X66061302Y-26766673D01*
X65882673Y-26945301D01*
X65786000Y-27178690D01*
X62413422Y-27178690D01*
X60504306Y-25269574D01*
X65829642Y-25269574D01*
X65950783Y-25501600D01*
X67157600Y-25501600D01*
X67157600Y-24294131D01*
X66925573Y-24173632D01*
X66396110Y-24421779D01*
X66001912Y-24853653D01*
X65829642Y-25269574D01*
X60504306Y-25269574D01*
X57190566Y-21955834D01*
X56822346Y-21709797D01*
X56388000Y-21623400D01*
X44825944Y-21623400D01*
X44391598Y-21709797D01*
X44023378Y-21955834D01*
X42266034Y-23713178D01*
X42019997Y-24081398D01*
X41933600Y-24515744D01*
X41933600Y-24753000D01*
X41608233Y-25077800D01*
X38211400Y-25077800D01*
X37777054Y-25164197D01*
X37408834Y-25410234D01*
X26805000Y-36014068D01*
X26805000Y-31260000D01*
X26718603Y-30825654D01*
X26472566Y-30457434D01*
X26079040Y-30063908D01*
X26079040Y-28594200D01*
X26034762Y-28358883D01*
X25895690Y-28142759D01*
X25683490Y-27997769D01*
X25431600Y-27946760D01*
X23031600Y-27946760D01*
X22796283Y-27991038D01*
X22580159Y-28130110D01*
X22435169Y-28342310D01*
X22384160Y-28594200D01*
X22384160Y-28963381D01*
X22316388Y-28799765D01*
X22028775Y-28676630D01*
X20911205Y-29794200D01*
X20551995Y-29794200D01*
X19434425Y-28676630D01*
X19146812Y-28799765D01*
X18886893Y-29481934D01*
X14553000Y-29481934D01*
X14553000Y-28497025D01*
X19614030Y-28497025D01*
X20731600Y-29614595D01*
X21849170Y-28497025D01*
X21726035Y-28209412D01*
X21043866Y-27949493D01*
X20314157Y-27970414D01*
X19737165Y-28209412D01*
X19614030Y-28497025D01*
X14553000Y-28497025D01*
X14553000Y-17829600D01*
X131090600Y-17829600D01*
X131090600Y-68849792D01*
X131090600Y-68849792D01*
G37*
X131090600Y-68849792D02*
X131034364Y-68906028D01*
X130874582Y-68587261D01*
X130083813Y-68277277D01*
X129234613Y-68293503D01*
X128525418Y-68587261D01*
X128365635Y-68906030D01*
X129700000Y-70240395D01*
X129714143Y-70226253D01*
X129893748Y-70405858D01*
X129879605Y-70420000D01*
X129893748Y-70434143D01*
X129714143Y-70613748D01*
X129700000Y-70599605D01*
X128365635Y-71933970D01*
X128525418Y-72252739D01*
X129316187Y-72562723D01*
X130165387Y-72546497D01*
X130874582Y-72252739D01*
X131034364Y-71933972D01*
X131090600Y-71990208D01*
X131090600Y-86412000D01*
X14553000Y-86412000D01*
X14553000Y-75367636D01*
X22736637Y-75133148D01*
X22785741Y-75121731D01*
X22826534Y-75092110D01*
X22852588Y-75048951D01*
X22859799Y-74999057D01*
X22847030Y-74950288D01*
X22816293Y-74910329D01*
X22772431Y-74885476D01*
X22729363Y-74879252D01*
X14553000Y-75113532D01*
X14553000Y-72384686D01*
X29286320Y-72384686D01*
X29405786Y-72669184D01*
X30077090Y-72924094D01*
X30794846Y-72902704D01*
X31358614Y-72669184D01*
X31478080Y-72384686D01*
X30382200Y-71288805D01*
X29286320Y-72384686D01*
X14553000Y-72384686D01*
X14553000Y-70804090D01*
X28567306Y-70804090D01*
X28588696Y-71521846D01*
X28822216Y-72085614D01*
X29106714Y-72205080D01*
X30202595Y-71109200D01*
X30561805Y-71109200D01*
X31657686Y-72205080D01*
X31942184Y-72085614D01*
X32197094Y-71414310D01*
X32175704Y-70696554D01*
X31942184Y-70132786D01*
X31657686Y-70013320D01*
X30561805Y-71109200D01*
X30202595Y-71109200D01*
X29106714Y-70013320D01*
X28822216Y-70132786D01*
X28567306Y-70804090D01*
X14553000Y-70804090D01*
X14553000Y-69833714D01*
X29286320Y-69833714D01*
X30382200Y-70929595D01*
X31478080Y-69833714D01*
X31358614Y-69549216D01*
X30687310Y-69294306D01*
X29969554Y-69315696D01*
X29405786Y-69549216D01*
X29286320Y-69833714D01*
X14553000Y-69833714D01*
X14553000Y-66232922D01*
X18503825Y-66232922D01*
X18718466Y-66751132D01*
X19180608Y-67245812D01*
X19796877Y-67525983D01*
X20066000Y-67408404D01*
X20066000Y-65963800D01*
X20320000Y-65963800D01*
X20320000Y-67408404D01*
X20589123Y-67525983D01*
X21205392Y-67245812D01*
X21667534Y-66751132D01*
X21882175Y-66232922D01*
X21764125Y-65963800D01*
X20320000Y-65963800D01*
X20066000Y-65963800D01*
X18621875Y-65963800D01*
X18503825Y-66232922D01*
X14553000Y-66232922D01*
X14553000Y-65440678D01*
X18503825Y-65440678D01*
X18621875Y-65709800D01*
X20066000Y-65709800D01*
X20066000Y-64265196D01*
X20320000Y-64265196D01*
X20320000Y-65709800D01*
X21764125Y-65709800D01*
X21882175Y-65440678D01*
X21667534Y-64922468D01*
X21205392Y-64427788D01*
X20589123Y-64147617D01*
X20320000Y-64265196D01*
X20066000Y-64265196D01*
X19796877Y-64147617D01*
X19180608Y-64427788D01*
X18718466Y-64922468D01*
X18503825Y-65440678D01*
X14553000Y-65440678D01*
X14553000Y-56096000D01*
X19913960Y-56096000D01*
X19913960Y-57696000D01*
X19958238Y-57931317D01*
X20097310Y-58147441D01*
X20309510Y-58292431D01*
X20561400Y-58343440D01*
X22161400Y-58343440D01*
X22396717Y-58299162D01*
X22612841Y-58160090D01*
X22617377Y-58153452D01*
X23144623Y-58342965D01*
X23714854Y-58315778D01*
X24115405Y-58149864D01*
X24189539Y-57903745D01*
X23361400Y-57075605D01*
X23347258Y-57089748D01*
X23167653Y-56910143D01*
X23181795Y-56896000D01*
X23541005Y-56896000D01*
X24369145Y-57724139D01*
X24615264Y-57650005D01*
X24808365Y-57112777D01*
X24781178Y-56542546D01*
X24615264Y-56141995D01*
X24369145Y-56067861D01*
X23541005Y-56896000D01*
X23181795Y-56896000D01*
X23167653Y-56881858D01*
X23347258Y-56702252D01*
X23361400Y-56716395D01*
X24189539Y-55888255D01*
X24115405Y-55642136D01*
X23578177Y-55449035D01*
X23007946Y-55476222D01*
X22616453Y-55638384D01*
X22413290Y-55499569D01*
X22207006Y-55457796D01*
X22837401Y-54827401D01*
X23002148Y-54580840D01*
X23023678Y-54472599D01*
X23060000Y-54290000D01*
X23060000Y-51521260D01*
X23207554Y-51422668D01*
X23655190Y-51670929D01*
X23728000Y-51683310D01*
X23930400Y-51559624D01*
X23930400Y-50317400D01*
X23910400Y-50317400D01*
X23910400Y-50063400D01*
X23930400Y-50063400D01*
X23930400Y-48821176D01*
X23728000Y-48697490D01*
X23655190Y-48709871D01*
X23207554Y-48958132D01*
X22858715Y-48725046D01*
X22357400Y-48625328D01*
X21856085Y-48725046D01*
X21507246Y-48958132D01*
X21059610Y-48709871D01*
X20986800Y-48697490D01*
X20784400Y-48821176D01*
X20784400Y-50063400D01*
X20804400Y-50063400D01*
X20804400Y-50317400D01*
X20784400Y-50317400D01*
X20784400Y-51559624D01*
X20986800Y-51683310D01*
X21059610Y-51670929D01*
X21507246Y-51422668D01*
X21540000Y-51444553D01*
X21540000Y-53975198D01*
X20842599Y-54672599D01*
X20677852Y-54919161D01*
X20620000Y-55210000D01*
X20620000Y-55448560D01*
X20561400Y-55448560D01*
X20326083Y-55492838D01*
X20109959Y-55631910D01*
X19964969Y-55844110D01*
X19913960Y-56096000D01*
X14553000Y-56096000D01*
X14553000Y-50524276D01*
X19343523Y-50524276D01*
X19485201Y-51018787D01*
X19805336Y-51421438D01*
X20255190Y-51670929D01*
X20328000Y-51683310D01*
X20530400Y-51559624D01*
X20530400Y-50317400D01*
X19501417Y-50317400D01*
X19343523Y-50524276D01*
X14553000Y-50524276D01*
X14553000Y-49856524D01*
X19343523Y-49856524D01*
X19501417Y-50063400D01*
X20530400Y-50063400D01*
X20530400Y-48821176D01*
X20328000Y-48697490D01*
X20255190Y-48709871D01*
X19805336Y-48959362D01*
X19485201Y-49362013D01*
X19343523Y-49856524D01*
X14553000Y-49856524D01*
X14553000Y-42241975D01*
X19561830Y-42241975D01*
X19684965Y-42529588D01*
X20367134Y-42789507D01*
X21096843Y-42768586D01*
X21673835Y-42529588D01*
X21796970Y-42241975D01*
X20679400Y-41124405D01*
X19561830Y-42241975D01*
X14553000Y-42241975D01*
X14553000Y-40632534D01*
X18834693Y-40632534D01*
X18855614Y-41362243D01*
X19094612Y-41939235D01*
X19382225Y-42062370D01*
X20499795Y-40944800D01*
X20859005Y-40944800D01*
X21976575Y-42062370D01*
X22264188Y-41939235D01*
X22524107Y-41257066D01*
X22503186Y-40527357D01*
X22264188Y-39950365D01*
X21976575Y-39827230D01*
X20859005Y-40944800D01*
X20499795Y-40944800D01*
X19382225Y-39827230D01*
X19094612Y-39950365D01*
X18834693Y-40632534D01*
X14553000Y-40632534D01*
X14553000Y-39647625D01*
X19561830Y-39647625D01*
X20679400Y-40765195D01*
X21796970Y-39647625D01*
X21673835Y-39360012D01*
X20991666Y-39100093D01*
X20261957Y-39121014D01*
X19684965Y-39360012D01*
X19561830Y-39647625D01*
X14553000Y-39647625D01*
X14553000Y-31091375D01*
X19614030Y-31091375D01*
X19737165Y-31378988D01*
X20419334Y-31638907D01*
X21149043Y-31617986D01*
X21726035Y-31378988D01*
X21849170Y-31091375D01*
X20731600Y-29973805D01*
X19614030Y-31091375D01*
X14553000Y-31091375D01*
X14553000Y-29481934D01*
X18886893Y-29481934D01*
X18907814Y-30211643D01*
X19146812Y-30788635D01*
X19434425Y-30911770D01*
X20551995Y-29794200D01*
X20911205Y-29794200D01*
X22028775Y-30911770D01*
X22316388Y-30788635D01*
X22384160Y-30610764D01*
X22384160Y-30994200D01*
X22428438Y-31229517D01*
X22567510Y-31445641D01*
X22779710Y-31590631D01*
X23031600Y-31641640D01*
X24446508Y-31641640D01*
X24535000Y-31730132D01*
X24535000Y-39097360D01*
X24479400Y-39097360D01*
X24244083Y-39141638D01*
X24027959Y-39280710D01*
X23882969Y-39492910D01*
X23831960Y-39744800D01*
X23831960Y-42144800D01*
X23876238Y-42380117D01*
X24015310Y-42596241D01*
X24227510Y-42741231D01*
X24479400Y-42792240D01*
X25921708Y-42792240D01*
X26322400Y-43192932D01*
X26322400Y-48767599D01*
X26258715Y-48725046D01*
X25757400Y-48625328D01*
X25256085Y-48725046D01*
X24907246Y-48958132D01*
X24459610Y-48709871D01*
X24386800Y-48697490D01*
X24184400Y-48821176D01*
X24184400Y-50063400D01*
X24204400Y-50063400D01*
X24204400Y-50317400D01*
X24184400Y-50317400D01*
X24184400Y-51559624D01*
X24386800Y-51683310D01*
X24459610Y-51670929D01*
X24907246Y-51422668D01*
X24997400Y-51482907D01*
X24997400Y-52188640D01*
X25055252Y-52479479D01*
X25219999Y-52726041D01*
X25874440Y-53380482D01*
X25874440Y-56663497D01*
X25737805Y-56719953D01*
X25291560Y-57165420D01*
X25049756Y-57747749D01*
X25049206Y-58378285D01*
X25289993Y-58961035D01*
X25735460Y-59407280D01*
X26214800Y-59606319D01*
X26214800Y-61108600D01*
X26272652Y-61399439D01*
X26437399Y-61646001D01*
X28961311Y-64169913D01*
X28801559Y-64272710D01*
X28656569Y-64484910D01*
X28605560Y-64736800D01*
X28605560Y-66936800D01*
X28649838Y-67172117D01*
X28788910Y-67388241D01*
X29001110Y-67533231D01*
X29253000Y-67584240D01*
X31453000Y-67584240D01*
X31688317Y-67539962D01*
X31904441Y-67400890D01*
X32049431Y-67188690D01*
X32100440Y-66936800D01*
X32100440Y-64736800D01*
X32056162Y-64501483D01*
X31917090Y-64285359D01*
X31704890Y-64140369D01*
X31453000Y-64089360D01*
X30983920Y-64089360D01*
X30890401Y-63949399D01*
X27734800Y-60793798D01*
X27734800Y-59205477D01*
X27977320Y-58963380D01*
X28219124Y-58381051D01*
X28219674Y-57750515D01*
X27978887Y-57167765D01*
X27533420Y-56721520D01*
X27394440Y-56663810D01*
X27394440Y-53065680D01*
X27336588Y-52774841D01*
X27171841Y-52528279D01*
X26517400Y-51873838D01*
X26517400Y-51677873D01*
X26530510Y-51686831D01*
X26782400Y-51737840D01*
X28132400Y-51737840D01*
X28367717Y-51693562D01*
X28583841Y-51554490D01*
X28728831Y-51342290D01*
X28779840Y-51090400D01*
X28779840Y-49290400D01*
X28735562Y-49055083D01*
X28596490Y-48838959D01*
X28592400Y-48836164D01*
X28592400Y-42722800D01*
X28506003Y-42288454D01*
X28259966Y-41920234D01*
X27526840Y-41187108D01*
X27526840Y-39744800D01*
X27482562Y-39509483D01*
X27343490Y-39293359D01*
X27131290Y-39148369D01*
X26923119Y-39106213D01*
X32662874Y-33366458D01*
X39529954Y-33366458D01*
X39650003Y-33604200D01*
X40894000Y-33604200D01*
X40894000Y-32360822D01*
X41148000Y-32360822D01*
X41148000Y-33604200D01*
X42391997Y-33604200D01*
X42512046Y-33366458D01*
X42258966Y-32823624D01*
X41817417Y-32418960D01*
X41385740Y-32240164D01*
X41148000Y-32360822D01*
X40894000Y-32360822D01*
X40656260Y-32240164D01*
X40224583Y-32418960D01*
X39783034Y-32823624D01*
X39529954Y-33366458D01*
X32662874Y-33366458D01*
X38681532Y-27347800D01*
X41608800Y-27347800D01*
X42027799Y-27767530D01*
X42701995Y-28047481D01*
X43432003Y-28048118D01*
X44106686Y-27769345D01*
X44623330Y-27253601D01*
X44818735Y-26783015D01*
X45012055Y-27250886D01*
X45433600Y-27673167D01*
X45433600Y-31526259D01*
X41925212Y-35034647D01*
X41868418Y-34996699D01*
X42258966Y-34638776D01*
X42512046Y-34095942D01*
X42391997Y-33858200D01*
X41148000Y-33858200D01*
X41148000Y-33878200D01*
X40894000Y-33878200D01*
X40894000Y-33858200D01*
X39650003Y-33858200D01*
X39529954Y-34095942D01*
X39783034Y-34638776D01*
X40173582Y-34996699D01*
X39935591Y-35155719D01*
X39602845Y-35653709D01*
X39486000Y-36241128D01*
X39486000Y-36301272D01*
X39602845Y-36888691D01*
X39883837Y-37309226D01*
X39669559Y-37447110D01*
X39524569Y-37659310D01*
X39473560Y-37911200D01*
X39473560Y-39711200D01*
X39517838Y-39946517D01*
X39656910Y-40162641D01*
X39869110Y-40307631D01*
X40121000Y-40358640D01*
X40261000Y-40358640D01*
X40261000Y-42014247D01*
X40039376Y-42058331D01*
X39444059Y-42456109D01*
X39046281Y-43051426D01*
X38906600Y-43753650D01*
X38906600Y-43825550D01*
X39046281Y-44527774D01*
X39444059Y-45123091D01*
X40039376Y-45520869D01*
X40741600Y-45660550D01*
X41443824Y-45520869D01*
X42039141Y-45123091D01*
X42436919Y-44527774D01*
X42576600Y-43825550D01*
X42576600Y-43753650D01*
X42436919Y-43051426D01*
X42039141Y-42456109D01*
X41781000Y-42283625D01*
X41781000Y-40358640D01*
X41921000Y-40358640D01*
X42156317Y-40314362D01*
X42372441Y-40175290D01*
X42517431Y-39963090D01*
X42568440Y-39711200D01*
X42568440Y-37911200D01*
X42524162Y-37675883D01*
X42385090Y-37459759D01*
X42303792Y-37404211D01*
X42728138Y-37319803D01*
X43096358Y-37073766D01*
X47220916Y-32949209D01*
X47073754Y-33264858D01*
X47193803Y-33502600D01*
X48437800Y-33502600D01*
X48437800Y-32259222D01*
X48200060Y-32138564D01*
X47768383Y-32317360D01*
X47573812Y-32495678D01*
X47617203Y-32430738D01*
X47634703Y-32342760D01*
X47703600Y-31996392D01*
X47703600Y-27672600D01*
X48123330Y-27253601D01*
X48318735Y-26783015D01*
X48512055Y-27250886D01*
X49027799Y-27767530D01*
X49701995Y-28047481D01*
X49805000Y-28047571D01*
X49805000Y-32726816D01*
X49802766Y-32722024D01*
X49361217Y-32317360D01*
X48929540Y-32138564D01*
X48691800Y-32259222D01*
X48691800Y-33502600D01*
X48711800Y-33502600D01*
X48711800Y-33756600D01*
X48691800Y-33756600D01*
X48691800Y-33776600D01*
X48437800Y-33776600D01*
X48437800Y-33756600D01*
X47193803Y-33756600D01*
X47073754Y-33994342D01*
X47326834Y-34537176D01*
X47717382Y-34895099D01*
X47479391Y-35054119D01*
X47146645Y-35552109D01*
X47029800Y-36139528D01*
X47029800Y-36199672D01*
X47146645Y-36787091D01*
X47427637Y-37207626D01*
X47213359Y-37345510D01*
X47068369Y-37557710D01*
X47017360Y-37809600D01*
X47017360Y-39609600D01*
X47061638Y-39844917D01*
X47200710Y-40061041D01*
X47412910Y-40206031D01*
X47664800Y-40257040D01*
X47804800Y-40257040D01*
X47804800Y-42024352D01*
X47633976Y-42058331D01*
X47038659Y-42456109D01*
X46640881Y-43051426D01*
X46501200Y-43753650D01*
X46501200Y-43825550D01*
X46640881Y-44527774D01*
X47038659Y-45123091D01*
X47633976Y-45520869D01*
X48336200Y-45660550D01*
X49038424Y-45520869D01*
X49633741Y-45123091D01*
X50031519Y-44527774D01*
X50171200Y-43825550D01*
X50171200Y-43753650D01*
X50031519Y-43051426D01*
X49633741Y-42456109D01*
X49324800Y-42249681D01*
X49324800Y-40257040D01*
X49464800Y-40257040D01*
X49700117Y-40212762D01*
X49916241Y-40073690D01*
X50061231Y-39861490D01*
X50112240Y-39609600D01*
X50112240Y-37809600D01*
X50067962Y-37574283D01*
X49928890Y-37358159D01*
X49716690Y-37213169D01*
X49700456Y-37209881D01*
X49982955Y-36787091D01*
X50089853Y-36249679D01*
X51742566Y-34596966D01*
X51904510Y-34354600D01*
X51988603Y-34228746D01*
X52075000Y-33794400D01*
X52075000Y-33290258D01*
X54693754Y-33290258D01*
X54813803Y-33528000D01*
X56057800Y-33528000D01*
X56057800Y-32284622D01*
X55820060Y-32163964D01*
X55388383Y-32342760D01*
X54946834Y-32747424D01*
X54693754Y-33290258D01*
X52075000Y-33290258D01*
X52075000Y-27980732D01*
X52116710Y-28009231D01*
X52368600Y-28060240D01*
X53795108Y-28060240D01*
X56955000Y-31220132D01*
X56955000Y-32331901D01*
X56549540Y-32163964D01*
X56311800Y-32284622D01*
X56311800Y-33528000D01*
X56331800Y-33528000D01*
X56331800Y-33782000D01*
X56311800Y-33782000D01*
X56311800Y-33802000D01*
X56057800Y-33802000D01*
X56057800Y-33782000D01*
X54813803Y-33782000D01*
X54693754Y-34019742D01*
X54946834Y-34562576D01*
X55337382Y-34920499D01*
X55099391Y-35079519D01*
X54766645Y-35577509D01*
X54649800Y-36164928D01*
X54649800Y-36225072D01*
X54766645Y-36812491D01*
X55047637Y-37233026D01*
X54833359Y-37370910D01*
X54688369Y-37583110D01*
X54637360Y-37835000D01*
X54637360Y-39635000D01*
X54681638Y-39870317D01*
X54820710Y-40086441D01*
X55032910Y-40231431D01*
X55284800Y-40282440D01*
X55424800Y-40282440D01*
X55424800Y-41919136D01*
X54887259Y-42278309D01*
X54489481Y-42873626D01*
X54349800Y-43575850D01*
X54349800Y-43647750D01*
X54489481Y-44349974D01*
X54887259Y-44945291D01*
X55482576Y-45343069D01*
X56184800Y-45482750D01*
X56887024Y-45343069D01*
X57482341Y-44945291D01*
X57880119Y-44349974D01*
X58019800Y-43647750D01*
X58019800Y-43575850D01*
X57880119Y-42873626D01*
X57482341Y-42278309D01*
X56944800Y-41919136D01*
X56944800Y-40282440D01*
X57084800Y-40282440D01*
X57320117Y-40238162D01*
X57536241Y-40099090D01*
X57681231Y-39886890D01*
X57732240Y-39635000D01*
X57732240Y-37835000D01*
X57687962Y-37599683D01*
X57548890Y-37383559D01*
X57336690Y-37238569D01*
X57320456Y-37235281D01*
X57602955Y-36812491D01*
X57709853Y-36275079D01*
X58892566Y-35092366D01*
X59138604Y-34724145D01*
X59225000Y-34289800D01*
X59225000Y-30750000D01*
X59138603Y-30315654D01*
X58892566Y-29947434D01*
X55416040Y-26470908D01*
X55416040Y-25012800D01*
X55371762Y-24777483D01*
X55232690Y-24561359D01*
X55020490Y-24416369D01*
X54768600Y-24365360D01*
X52368600Y-24365360D01*
X52133283Y-24409638D01*
X51917159Y-24548710D01*
X51772169Y-24760910D01*
X51721160Y-25012800D01*
X51721160Y-25407088D01*
X51625145Y-25174714D01*
X51109401Y-24658070D01*
X50435205Y-24378119D01*
X49705197Y-24377482D01*
X49030514Y-24656255D01*
X48513870Y-25171999D01*
X48318465Y-25642585D01*
X48125145Y-25174714D01*
X47609401Y-24658070D01*
X46935205Y-24378119D01*
X46205197Y-24377482D01*
X45530514Y-24656255D01*
X45013870Y-25171999D01*
X44818465Y-25642585D01*
X44625145Y-25174714D01*
X44320220Y-24869256D01*
X45296076Y-23893400D01*
X55917868Y-23893400D01*
X64109836Y-32085368D01*
X64478056Y-32331405D01*
X64912402Y-32417802D01*
X66616332Y-32417802D01*
X65747667Y-33286467D01*
X65517888Y-33630355D01*
X65517888Y-33630356D01*
X65437200Y-34036000D01*
X65437200Y-55785910D01*
X65289400Y-55846980D01*
X64688291Y-56447041D01*
X64625607Y-56598000D01*
X44206160Y-56598000D01*
X43800516Y-56678688D01*
X43456627Y-56908467D01*
X43385094Y-56980000D01*
X32790169Y-56980000D01*
X32532140Y-56721520D01*
X31949811Y-56479716D01*
X31319275Y-56479166D01*
X30736525Y-56719953D01*
X30290280Y-57165420D01*
X30048476Y-57747749D01*
X30047926Y-58378285D01*
X30288713Y-58961035D01*
X30734180Y-59407280D01*
X31316509Y-59649084D01*
X31947045Y-59649634D01*
X32529795Y-59408847D01*
X32839181Y-59100000D01*
X43824160Y-59100000D01*
X44229805Y-59019312D01*
X44573693Y-58789533D01*
X44645226Y-58718000D01*
X64625110Y-58718000D01*
X64686180Y-58865800D01*
X65286241Y-59466909D01*
X66070659Y-59792628D01*
X66920015Y-59793370D01*
X67705000Y-59469020D01*
X68306109Y-58868959D01*
X68631828Y-58084541D01*
X68632570Y-57235185D01*
X68308220Y-56450200D01*
X67708159Y-55849091D01*
X67557200Y-55786407D01*
X67557200Y-48776540D01*
X94353190Y-48776540D01*
X94475348Y-48996600D01*
X95961200Y-48996600D01*
X95961200Y-47701200D01*
X96215200Y-47701200D01*
X96215200Y-48996600D01*
X97701052Y-48996600D01*
X97823210Y-48776540D01*
X97806527Y-48696604D01*
X97539391Y-48207614D01*
X97105462Y-47858075D01*
X96570800Y-47701200D01*
X96215200Y-47701200D01*
X95961200Y-47701200D01*
X95605600Y-47701200D01*
X95070938Y-47858075D01*
X94637009Y-48207614D01*
X94369873Y-48696604D01*
X94353190Y-48776540D01*
X67557200Y-48776540D01*
X67557200Y-34475066D01*
X72365066Y-29667200D01*
X72393959Y-29667200D01*
X72967448Y-29553126D01*
X73453629Y-29228270D01*
X73634600Y-28957428D01*
X73815571Y-29228270D01*
X74144600Y-29448120D01*
X74144600Y-40386000D01*
X74202452Y-40676839D01*
X74367199Y-40923401D01*
X77973999Y-44530201D01*
X78220560Y-44694948D01*
X78268814Y-44704546D01*
X78511400Y-44752800D01*
X94439813Y-44752800D01*
X94502080Y-44765186D01*
X94691978Y-45049389D01*
X95153438Y-45357726D01*
X95697767Y-45466000D01*
X96478633Y-45466000D01*
X97022962Y-45357726D01*
X97484422Y-45049389D01*
X97792759Y-44587929D01*
X97901033Y-44043600D01*
X97792759Y-43499271D01*
X97484422Y-43037811D01*
X97089001Y-42773600D01*
X97484422Y-42509389D01*
X97670094Y-42231511D01*
X103380000Y-47941417D01*
X103380000Y-67691000D01*
X103437852Y-67981839D01*
X103602599Y-68228401D01*
X109578817Y-74204619D01*
X109515367Y-74523600D01*
X109623641Y-75067929D01*
X109931978Y-75529389D01*
X110103660Y-75644103D01*
X109949883Y-75673038D01*
X109733759Y-75812110D01*
X109588769Y-76024310D01*
X109537760Y-76276200D01*
X109537760Y-76303600D01*
X104607202Y-76303600D01*
X101986655Y-73683053D01*
X101986655Y-54744655D01*
X101938401Y-54502069D01*
X101928803Y-54453815D01*
X101764056Y-54207254D01*
X97559528Y-50002726D01*
X97806527Y-49550596D01*
X97823210Y-49470660D01*
X97701052Y-49250600D01*
X96215200Y-49250600D01*
X96215200Y-49270600D01*
X95961200Y-49270600D01*
X95961200Y-49250600D01*
X94475348Y-49250600D01*
X94353190Y-49470660D01*
X94369873Y-49550596D01*
X94402325Y-49610000D01*
X78865200Y-49610000D01*
X78574361Y-49667852D01*
X78327799Y-49832599D01*
X72451217Y-55709181D01*
X72003741Y-55523372D01*
X71154385Y-55522630D01*
X70369400Y-55846980D01*
X69768291Y-56447041D01*
X69442572Y-57231459D01*
X69441830Y-58080815D01*
X69766180Y-58865800D01*
X70366241Y-59466909D01*
X71150659Y-59792628D01*
X72000015Y-59793370D01*
X72785000Y-59469020D01*
X73386109Y-58868959D01*
X73711828Y-58084541D01*
X73712570Y-57235185D01*
X73526102Y-56783900D01*
X79180002Y-51130000D01*
X94381507Y-51130000D01*
X94275367Y-51663600D01*
X94383641Y-52207929D01*
X94691978Y-52669389D01*
X95087399Y-52933600D01*
X94691978Y-53197811D01*
X94383641Y-53659271D01*
X94275367Y-54203600D01*
X94383641Y-54747929D01*
X94691978Y-55209389D01*
X95087399Y-55473600D01*
X94691978Y-55737811D01*
X94383641Y-56199271D01*
X94275367Y-56743600D01*
X94383641Y-57287929D01*
X94691978Y-57749389D01*
X95087399Y-58013600D01*
X94691978Y-58277811D01*
X94383641Y-58739271D01*
X94275367Y-59283600D01*
X94383641Y-59827929D01*
X94691978Y-60289389D01*
X95087399Y-60553600D01*
X94691978Y-60817811D01*
X94383641Y-61279271D01*
X94275367Y-61823600D01*
X94383641Y-62367929D01*
X94691978Y-62829389D01*
X95087399Y-63093600D01*
X94691978Y-63357811D01*
X94391825Y-63807023D01*
X85057401Y-54472599D01*
X84810839Y-54307852D01*
X84520000Y-54250000D01*
X79305200Y-54250000D01*
X79014361Y-54307852D01*
X78767799Y-54472599D01*
X77531217Y-55709181D01*
X77083741Y-55523372D01*
X76234385Y-55522630D01*
X75449400Y-55846980D01*
X74848291Y-56447041D01*
X74522572Y-57231459D01*
X74521830Y-58080815D01*
X74846180Y-58865800D01*
X75446241Y-59466909D01*
X76230659Y-59792628D01*
X77080015Y-59793370D01*
X77865000Y-59469020D01*
X78466109Y-58868959D01*
X78791828Y-58084541D01*
X78792570Y-57235185D01*
X78606102Y-56783900D01*
X79620002Y-55770000D01*
X79733769Y-55770000D01*
X79640769Y-55906110D01*
X79589760Y-56158000D01*
X79589760Y-59158000D01*
X79634038Y-59393317D01*
X79773110Y-59609441D01*
X79985310Y-59754431D01*
X80237200Y-59805440D01*
X83237200Y-59805440D01*
X83472517Y-59761162D01*
X83688641Y-59622090D01*
X83833631Y-59409890D01*
X83884640Y-59158000D01*
X83884640Y-58418000D01*
X86172198Y-58418000D01*
X94338817Y-66584619D01*
X94275367Y-66903600D01*
X94277345Y-66913543D01*
X93069601Y-65705799D01*
X92823039Y-65541052D01*
X92532200Y-65483200D01*
X64770000Y-65483200D01*
X64479161Y-65541052D01*
X64232599Y-65705799D01*
X61686598Y-68251800D01*
X57856248Y-68251800D01*
X57741345Y-67973714D01*
X57225601Y-67457070D01*
X56551405Y-67177119D01*
X55821397Y-67176482D01*
X55146714Y-67455255D01*
X54630070Y-67970999D01*
X54350119Y-68645195D01*
X54349482Y-69375203D01*
X54515419Y-69776801D01*
X50079281Y-69776801D01*
X50170881Y-69556205D01*
X50171518Y-68826197D01*
X49892745Y-68151514D01*
X49377001Y-67634870D01*
X48702805Y-67354919D01*
X47972797Y-67354282D01*
X47298114Y-67633055D01*
X46781470Y-68148799D01*
X46501519Y-68822995D01*
X46500882Y-69553003D01*
X46779293Y-70226811D01*
X42853613Y-70226811D01*
X42460893Y-69834091D01*
X42576281Y-69556205D01*
X42576918Y-68826197D01*
X42298145Y-68151514D01*
X41782401Y-67634870D01*
X41108205Y-67354919D01*
X40378197Y-67354282D01*
X39703514Y-67633055D01*
X39186870Y-68148799D01*
X38906919Y-68822995D01*
X38906282Y-69553003D01*
X39185055Y-70227686D01*
X39700799Y-70744330D01*
X40374995Y-71024281D01*
X41105003Y-71024918D01*
X41386007Y-70908809D01*
X42001410Y-71524212D01*
X42247971Y-71688959D01*
X42538811Y-71746811D01*
X61299209Y-71746811D01*
X61590048Y-71688959D01*
X61836610Y-71524212D01*
X65341622Y-68019200D01*
X91960578Y-68019200D01*
X93410181Y-69468803D01*
X93410181Y-72961181D01*
X93468033Y-73252020D01*
X93632780Y-73498582D01*
X94338817Y-74204619D01*
X94275367Y-74523600D01*
X94383641Y-75067929D01*
X94691978Y-75529389D01*
X95087399Y-75793600D01*
X94691978Y-76057811D01*
X94383641Y-76519271D01*
X94275367Y-77063600D01*
X94383641Y-77607929D01*
X94691978Y-78069389D01*
X95153438Y-78377726D01*
X95697767Y-78486000D01*
X96478633Y-78486000D01*
X96805645Y-78420953D01*
X96053388Y-79173210D01*
X93099850Y-79173210D01*
X93258657Y-79107592D01*
X93606371Y-78760485D01*
X93794785Y-78306734D01*
X93795214Y-77815421D01*
X93607592Y-77361343D01*
X93280000Y-77033178D01*
X93280000Y-75168998D01*
X93222148Y-74878159D01*
X93057401Y-74631597D01*
X91399602Y-72973798D01*
X91153040Y-72809051D01*
X90862201Y-72751199D01*
X86639601Y-72751199D01*
X86348762Y-72809051D01*
X86102200Y-72973798D01*
X85766138Y-73309860D01*
X85505212Y-73201514D01*
X84787138Y-73200887D01*
X84123485Y-73475103D01*
X83615288Y-73982415D01*
X83339914Y-74645588D01*
X83339287Y-75363662D01*
X83360995Y-75416199D01*
X81945201Y-75416199D01*
X81654361Y-75474051D01*
X81407800Y-75638798D01*
X80628666Y-76417932D01*
X80303041Y-76353161D01*
X85890002Y-70766200D01*
X86005612Y-70766200D01*
X86113503Y-71027315D01*
X86620815Y-71535512D01*
X87283988Y-71810886D01*
X88002062Y-71811513D01*
X88665715Y-71537297D01*
X89173912Y-71029985D01*
X89449286Y-70366812D01*
X89449913Y-69648738D01*
X89175697Y-68985085D01*
X88668385Y-68476888D01*
X88005212Y-68201514D01*
X87287138Y-68200887D01*
X86623485Y-68475103D01*
X86115288Y-68982415D01*
X86005755Y-69246200D01*
X85575200Y-69246200D01*
X85284361Y-69304052D01*
X85037799Y-69468799D01*
X78088666Y-76417932D01*
X77673200Y-76335291D01*
X77085781Y-76452136D01*
X76587791Y-76784882D01*
X76403200Y-77061142D01*
X76218609Y-76784882D01*
X75720619Y-76452136D01*
X75133200Y-76335291D01*
X74545781Y-76452136D01*
X74047791Y-76784882D01*
X73857008Y-77070410D01*
X73588806Y-76732988D01*
X73063286Y-76441444D01*
X72957940Y-76417164D01*
X72720200Y-76537822D01*
X72720200Y-78181200D01*
X72740200Y-78181200D01*
X72740200Y-78435200D01*
X72720200Y-78435200D01*
X72720200Y-78455200D01*
X72466200Y-78455200D01*
X72466200Y-78435200D01*
X72446200Y-78435200D01*
X72446200Y-78181200D01*
X72466200Y-78181200D01*
X72466200Y-76537822D01*
X72228460Y-76417164D01*
X72123114Y-76441444D01*
X71597594Y-76732988D01*
X71329392Y-77070410D01*
X71138609Y-76784882D01*
X70640619Y-76452136D01*
X70053200Y-76335291D01*
X69465781Y-76452136D01*
X68967791Y-76784882D01*
X68777008Y-77070410D01*
X68508806Y-76732988D01*
X67983286Y-76441444D01*
X67877940Y-76417164D01*
X67640200Y-76537822D01*
X67640200Y-78181200D01*
X67660200Y-78181200D01*
X67660200Y-78435200D01*
X67640200Y-78435200D01*
X67640200Y-78455200D01*
X67386200Y-78455200D01*
X67386200Y-78435200D01*
X65100200Y-78435200D01*
X65100200Y-78455200D01*
X64846200Y-78455200D01*
X64846200Y-78435200D01*
X62560200Y-78435200D01*
X62560200Y-78455200D01*
X62306200Y-78455200D01*
X62306200Y-78435200D01*
X60020200Y-78435200D01*
X60020200Y-78455200D01*
X59766200Y-78455200D01*
X59766200Y-78435200D01*
X59746200Y-78435200D01*
X59746200Y-78181200D01*
X59766200Y-78181200D01*
X59766200Y-76537822D01*
X60020200Y-76537822D01*
X60020200Y-78181200D01*
X62306200Y-78181200D01*
X62306200Y-76537822D01*
X62560200Y-76537822D01*
X62560200Y-78181200D01*
X64846200Y-78181200D01*
X64846200Y-76537822D01*
X65100200Y-76537822D01*
X65100200Y-78181200D01*
X67386200Y-78181200D01*
X67386200Y-76537822D01*
X67148460Y-76417164D01*
X67043114Y-76441444D01*
X66517594Y-76732988D01*
X66243200Y-77078200D01*
X65968806Y-76732988D01*
X65443286Y-76441444D01*
X65337940Y-76417164D01*
X65100200Y-76537822D01*
X64846200Y-76537822D01*
X64608460Y-76417164D01*
X64503114Y-76441444D01*
X63977594Y-76732988D01*
X63703200Y-77078200D01*
X63428806Y-76732988D01*
X62903286Y-76441444D01*
X62797940Y-76417164D01*
X62560200Y-76537822D01*
X62306200Y-76537822D01*
X62068460Y-76417164D01*
X61963114Y-76441444D01*
X61437594Y-76732988D01*
X61163200Y-77078200D01*
X60888806Y-76732988D01*
X60363286Y-76441444D01*
X60257940Y-76417164D01*
X60020200Y-76537822D01*
X59766200Y-76537822D01*
X59528460Y-76417164D01*
X59423114Y-76441444D01*
X58897594Y-76732988D01*
X58629392Y-77070410D01*
X58438609Y-76784882D01*
X57940619Y-76452136D01*
X57353200Y-76335291D01*
X56765781Y-76452136D01*
X56267791Y-76784882D01*
X56083200Y-77061142D01*
X55898609Y-76784882D01*
X55400619Y-76452136D01*
X54813200Y-76335291D01*
X54225781Y-76452136D01*
X53727791Y-76784882D01*
X53543200Y-77061142D01*
X53358609Y-76784882D01*
X52860619Y-76452136D01*
X52273200Y-76335291D01*
X51685781Y-76452136D01*
X51187791Y-76784882D01*
X51003200Y-77061142D01*
X50818609Y-76784882D01*
X50320619Y-76452136D01*
X49733200Y-76335291D01*
X49145781Y-76452136D01*
X48647791Y-76784882D01*
X48463200Y-77061142D01*
X48278609Y-76784882D01*
X47780619Y-76452136D01*
X47193200Y-76335291D01*
X46777734Y-76417932D01*
X43462401Y-73102599D01*
X43215839Y-72937852D01*
X42925000Y-72880000D01*
X37033914Y-72880000D01*
X36913297Y-72588085D01*
X36405985Y-72079888D01*
X35742812Y-71804514D01*
X35024738Y-71803887D01*
X34361085Y-72078103D01*
X33852888Y-72585415D01*
X33577514Y-73248588D01*
X33576887Y-73966662D01*
X33851103Y-74630315D01*
X34358415Y-75138512D01*
X35021588Y-75413886D01*
X35739662Y-75414513D01*
X36403315Y-75140297D01*
X36911512Y-74632985D01*
X37008256Y-74400000D01*
X42610198Y-74400000D01*
X44583398Y-76373200D01*
X44526198Y-76373200D01*
X44526198Y-76537821D01*
X44288460Y-76417164D01*
X44183114Y-76441444D01*
X43657594Y-76732988D01*
X43283646Y-77203448D01*
X43118200Y-77781200D01*
X43118200Y-78181200D01*
X44526200Y-78181200D01*
X44526200Y-78161200D01*
X44780200Y-78161200D01*
X44780200Y-78181200D01*
X44800200Y-78181200D01*
X44800200Y-78435200D01*
X44780200Y-78435200D01*
X44780200Y-80078578D01*
X45017940Y-80199236D01*
X45123286Y-80174956D01*
X45648806Y-79883412D01*
X45917008Y-79545990D01*
X46107791Y-79831518D01*
X46605781Y-80164264D01*
X47193200Y-80281109D01*
X47780619Y-80164264D01*
X48278609Y-79831518D01*
X48463200Y-79555258D01*
X48647791Y-79831518D01*
X49145781Y-80164264D01*
X49733200Y-80281109D01*
X50148666Y-80198468D01*
X51823468Y-81873270D01*
X37221072Y-81873270D01*
X33783002Y-78435200D01*
X43118200Y-78435200D01*
X43118200Y-78835200D01*
X43283646Y-79412952D01*
X43657594Y-79883412D01*
X44183114Y-80174956D01*
X44288460Y-80199236D01*
X44526200Y-80078578D01*
X44526200Y-78435200D01*
X43118200Y-78435200D01*
X33783002Y-78435200D01*
X32078540Y-76730738D01*
X32186886Y-76469812D01*
X32187513Y-75751738D01*
X31913297Y-75088085D01*
X31405985Y-74579888D01*
X30742812Y-74304514D01*
X30024738Y-74303887D01*
X29361085Y-74578103D01*
X28852888Y-75085415D01*
X28577514Y-75748588D01*
X28576887Y-76466662D01*
X28851103Y-77130315D01*
X29358415Y-77638512D01*
X30021588Y-77913886D01*
X30739662Y-77914513D01*
X31003638Y-77805440D01*
X36368869Y-83170671D01*
X36615430Y-83335418D01*
X36906270Y-83393270D01*
X91463937Y-83393270D01*
X91335215Y-83703266D01*
X91334786Y-84194579D01*
X91522408Y-84648657D01*
X91869515Y-84996371D01*
X92323266Y-85184785D01*
X92814579Y-85185214D01*
X93268657Y-84997592D01*
X93616371Y-84650485D01*
X93804785Y-84196734D01*
X93805214Y-83705421D01*
X93676235Y-83393270D01*
X108796730Y-83393270D01*
X109087569Y-83335418D01*
X109334131Y-83170671D01*
X113897401Y-78607401D01*
X114062148Y-78360840D01*
X114120000Y-78070000D01*
X114120000Y-71933970D01*
X114645635Y-71933970D01*
X114805418Y-72252739D01*
X115596187Y-72562723D01*
X116445387Y-72546497D01*
X117154582Y-72252739D01*
X117314365Y-71933970D01*
X115980000Y-70599605D01*
X114645635Y-71933970D01*
X114120000Y-71933970D01*
X114120000Y-71528768D01*
X114147261Y-71594582D01*
X114466030Y-71754365D01*
X115800395Y-70420000D01*
X116159605Y-70420000D01*
X117493970Y-71754365D01*
X117812739Y-71594582D01*
X118122723Y-70803813D01*
X118108056Y-70036187D01*
X127557277Y-70036187D01*
X127573503Y-70885387D01*
X127867261Y-71594582D01*
X128186030Y-71754365D01*
X129520395Y-70420000D01*
X128186030Y-69085635D01*
X127867261Y-69245418D01*
X127557277Y-70036187D01*
X118108056Y-70036187D01*
X118106497Y-69954613D01*
X117812739Y-69245418D01*
X117493970Y-69085635D01*
X116159605Y-70420000D01*
X115800395Y-70420000D01*
X114466030Y-69085635D01*
X114147261Y-69245418D01*
X114120000Y-69314961D01*
X114120000Y-68906030D01*
X114645635Y-68906030D01*
X115980000Y-70240395D01*
X117314365Y-68906030D01*
X117154582Y-68587261D01*
X116363813Y-68277277D01*
X115514613Y-68293503D01*
X114805418Y-68587261D01*
X114645635Y-68906030D01*
X114120000Y-68906030D01*
X114120000Y-50799800D01*
X114062148Y-50508961D01*
X113897401Y-50262399D01*
X113077583Y-49442581D01*
X113141033Y-49123600D01*
X113032759Y-48579271D01*
X112724422Y-48117811D01*
X112329001Y-47853600D01*
X112724422Y-47589389D01*
X113032759Y-47127929D01*
X113141033Y-46583600D01*
X113032759Y-46039271D01*
X112724422Y-45577811D01*
X112329370Y-45313846D01*
X112345462Y-45309125D01*
X112779391Y-44959586D01*
X113046527Y-44470596D01*
X113063210Y-44390660D01*
X112941052Y-44170600D01*
X111455200Y-44170600D01*
X111455200Y-44190600D01*
X111201200Y-44190600D01*
X111201200Y-44170600D01*
X111181200Y-44170600D01*
X111181200Y-43916600D01*
X111201200Y-43916600D01*
X111201200Y-43896600D01*
X111455200Y-43896600D01*
X111455200Y-43916600D01*
X112941052Y-43916600D01*
X113063210Y-43696540D01*
X113046527Y-43616604D01*
X112779391Y-43127614D01*
X112345462Y-42778075D01*
X112329370Y-42773354D01*
X112531044Y-42638600D01*
X113563468Y-42638600D01*
X118405000Y-47480133D01*
X118405000Y-66689340D01*
X118444283Y-66886828D01*
X118366539Y-66964436D01*
X118155241Y-67473298D01*
X118154760Y-68024285D01*
X118365169Y-68533515D01*
X118754436Y-68923461D01*
X119263298Y-69134759D01*
X119814285Y-69135240D01*
X120323515Y-68924831D01*
X120527183Y-68721517D01*
X121288088Y-68721517D01*
X121356077Y-68962460D01*
X121875171Y-69147201D01*
X122425448Y-69119230D01*
X122803923Y-68962460D01*
X122871912Y-68721517D01*
X123318088Y-68721517D01*
X123386077Y-68962460D01*
X123905171Y-69147201D01*
X124455448Y-69119230D01*
X124833923Y-68962460D01*
X124901912Y-68721517D01*
X125858088Y-68721517D01*
X125926077Y-68962460D01*
X126445171Y-69147201D01*
X126995448Y-69119230D01*
X127373923Y-68962460D01*
X127441912Y-68721517D01*
X126650000Y-67929605D01*
X125858088Y-68721517D01*
X124901912Y-68721517D01*
X124110000Y-67929605D01*
X123318088Y-68721517D01*
X122871912Y-68721517D01*
X122080000Y-67929605D01*
X121288088Y-68721517D01*
X120527183Y-68721517D01*
X120713461Y-68535564D01*
X120803377Y-68319021D01*
X120867540Y-68473923D01*
X121108483Y-68541912D01*
X121900395Y-67750000D01*
X122259605Y-67750000D01*
X122836737Y-68327132D01*
X122897540Y-68473923D01*
X123017330Y-68507725D01*
X123051517Y-68541912D01*
X123095000Y-68529642D01*
X123138483Y-68541912D01*
X123172670Y-68507725D01*
X123292460Y-68473923D01*
X123339971Y-68340424D01*
X123930395Y-67750000D01*
X124289605Y-67750000D01*
X125081517Y-68541912D01*
X125322460Y-68473923D01*
X125375642Y-68324489D01*
X125437540Y-68473923D01*
X125678483Y-68541912D01*
X126470395Y-67750000D01*
X126829605Y-67750000D01*
X127621517Y-68541912D01*
X127862460Y-68473923D01*
X128047201Y-67954829D01*
X128019230Y-67404552D01*
X127862460Y-67026077D01*
X127621517Y-66958088D01*
X126829605Y-67750000D01*
X126470395Y-67750000D01*
X125678483Y-66958088D01*
X125437540Y-67026077D01*
X125384358Y-67175511D01*
X125322460Y-67026077D01*
X125081517Y-66958088D01*
X124289605Y-67750000D01*
X123930395Y-67750000D01*
X123353263Y-67172868D01*
X123292460Y-67026077D01*
X123172670Y-66992275D01*
X123138483Y-66958088D01*
X123095000Y-66970358D01*
X123051517Y-66958088D01*
X123017330Y-66992275D01*
X122897540Y-67026077D01*
X122850029Y-67159576D01*
X122259605Y-67750000D01*
X121900395Y-67750000D01*
X121108483Y-66958088D01*
X120867540Y-67026077D01*
X120808268Y-67192621D01*
X120714831Y-66966485D01*
X120635650Y-66887166D01*
X120657268Y-66778483D01*
X121288088Y-66778483D01*
X122080000Y-67570395D01*
X122871912Y-66778483D01*
X123318088Y-66778483D01*
X124110000Y-67570395D01*
X124901912Y-66778483D01*
X125858088Y-66778483D01*
X126650000Y-67570395D01*
X127441912Y-66778483D01*
X127373923Y-66537540D01*
X126854829Y-66352799D01*
X126304552Y-66380770D01*
X125926077Y-66537540D01*
X125858088Y-66778483D01*
X124901912Y-66778483D01*
X124833923Y-66537540D01*
X124314829Y-66352799D01*
X123764552Y-66380770D01*
X123386077Y-66537540D01*
X123318088Y-66778483D01*
X122871912Y-66778483D01*
X122803923Y-66537540D01*
X122284829Y-66352799D01*
X121734552Y-66380770D01*
X121356077Y-66537540D01*
X121288088Y-66778483D01*
X120657268Y-66778483D01*
X120675000Y-66689340D01*
X120675000Y-47010000D01*
X120664843Y-46958936D01*
X120588604Y-46575655D01*
X120342567Y-46207434D01*
X114836166Y-40701034D01*
X114750810Y-40644001D01*
X114467946Y-40454997D01*
X114033600Y-40368600D01*
X112531044Y-40368600D01*
X112262962Y-40189474D01*
X112188670Y-40174696D01*
X112077733Y-40008667D01*
X97503666Y-25434600D01*
X106781686Y-25434600D01*
X106781686Y-34354600D01*
X122123115Y-34354600D01*
X122123115Y-25434600D01*
X106781686Y-25434600D01*
X97503666Y-25434600D01*
X94659533Y-22590467D01*
X94315645Y-22360688D01*
X93910000Y-22280000D01*
X74653200Y-22280000D01*
X74247555Y-22360688D01*
X73903667Y-22590467D01*
X72364134Y-24130000D01*
X72335241Y-24130000D01*
X71761752Y-24244074D01*
X71275571Y-24568930D01*
X71094600Y-24839772D01*
X70913629Y-24568930D01*
X70427448Y-24244074D01*
X69853959Y-24130000D01*
X69795241Y-24130000D01*
X69221752Y-24244074D01*
X68735571Y-24568930D01*
X68554608Y-24839761D01*
X68173090Y-24421779D01*
X67643627Y-24173632D01*
X67411600Y-24294131D01*
X67411600Y-25501600D01*
X67431600Y-25501600D01*
X67431600Y-25755600D01*
X67411600Y-25755600D01*
X67411600Y-28041600D01*
X67431600Y-28041600D01*
X67431600Y-28295600D01*
X67411600Y-28295600D01*
X67411600Y-28315600D01*
X67157600Y-28315600D01*
X67157600Y-28295600D01*
X65944750Y-28295600D01*
X65786000Y-28454350D01*
X65786000Y-29158510D01*
X65882673Y-29391899D01*
X66061302Y-29570527D01*
X66294691Y-29667200D01*
X66998850Y-29667200D01*
X67157598Y-29508452D01*
X67157598Y-29667200D01*
X67168070Y-29667200D01*
X66687468Y-30147802D01*
X65382534Y-30147802D01*
X62413422Y-27178690D01*
X65786000Y-27178690D01*
X65786000Y-27882850D01*
X65944750Y-28041600D01*
X67157600Y-28041600D01*
X67157600Y-25755600D01*
X65950783Y-25755600D01*
X65829642Y-25987626D01*
X66001912Y-26403547D01*
X66258720Y-26684900D01*
X66061302Y-26766673D01*
X65882673Y-26945301D01*
X65786000Y-27178690D01*
X62413422Y-27178690D01*
X60504306Y-25269574D01*
X65829642Y-25269574D01*
X65950783Y-25501600D01*
X67157600Y-25501600D01*
X67157600Y-24294131D01*
X66925573Y-24173632D01*
X66396110Y-24421779D01*
X66001912Y-24853653D01*
X65829642Y-25269574D01*
X60504306Y-25269574D01*
X57190566Y-21955834D01*
X56822346Y-21709797D01*
X56388000Y-21623400D01*
X44825944Y-21623400D01*
X44391598Y-21709797D01*
X44023378Y-21955834D01*
X42266034Y-23713178D01*
X42019997Y-24081398D01*
X41933600Y-24515744D01*
X41933600Y-24753000D01*
X41608233Y-25077800D01*
X38211400Y-25077800D01*
X37777054Y-25164197D01*
X37408834Y-25410234D01*
X26805000Y-36014068D01*
X26805000Y-31260000D01*
X26718603Y-30825654D01*
X26472566Y-30457434D01*
X26079040Y-30063908D01*
X26079040Y-28594200D01*
X26034762Y-28358883D01*
X25895690Y-28142759D01*
X25683490Y-27997769D01*
X25431600Y-27946760D01*
X23031600Y-27946760D01*
X22796283Y-27991038D01*
X22580159Y-28130110D01*
X22435169Y-28342310D01*
X22384160Y-28594200D01*
X22384160Y-28963381D01*
X22316388Y-28799765D01*
X22028775Y-28676630D01*
X20911205Y-29794200D01*
X20551995Y-29794200D01*
X19434425Y-28676630D01*
X19146812Y-28799765D01*
X18886893Y-29481934D01*
X14553000Y-29481934D01*
X14553000Y-28497025D01*
X19614030Y-28497025D01*
X20731600Y-29614595D01*
X21849170Y-28497025D01*
X21726035Y-28209412D01*
X21043866Y-27949493D01*
X20314157Y-27970414D01*
X19737165Y-28209412D01*
X19614030Y-28497025D01*
X14553000Y-28497025D01*
X14553000Y-17829600D01*
X131090600Y-17829600D01*
X131090600Y-68849792D01*
G36*
X88329706Y-74701090D02*
X88351096Y-75418846D01*
X88584616Y-75982614D01*
X88869114Y-76102080D01*
X89964995Y-75006200D01*
X89950852Y-74992058D01*
X90130458Y-74812452D01*
X90144600Y-74826595D01*
X90158742Y-74812452D01*
X90338348Y-74992058D01*
X90324205Y-75006200D01*
X91420086Y-76102080D01*
X91704584Y-75982614D01*
X91760000Y-75836676D01*
X91760000Y-77113574D01*
X91513629Y-77359515D01*
X91325215Y-77813266D01*
X91324786Y-78304579D01*
X91512408Y-78758657D01*
X91859515Y-79106371D01*
X92020481Y-79173210D01*
X84191407Y-79173210D01*
X84288200Y-78835200D01*
X84288200Y-78435200D01*
X82880200Y-78435200D01*
X82880200Y-78455200D01*
X82626200Y-78455200D01*
X82626200Y-78435200D01*
X82606200Y-78435200D01*
X82606200Y-78181200D01*
X82626200Y-78181200D01*
X82626200Y-78161200D01*
X82880200Y-78161200D01*
X82880200Y-78181200D01*
X84288200Y-78181200D01*
X84288200Y-77781200D01*
X84122754Y-77203448D01*
X83910330Y-76936199D01*
X83974601Y-76936199D01*
X84265440Y-76878347D01*
X84512002Y-76713600D01*
X84523062Y-76702540D01*
X84783988Y-76810886D01*
X85502062Y-76811513D01*
X86165715Y-76537297D01*
X86421771Y-76281686D01*
X89048720Y-76281686D01*
X89168186Y-76566184D01*
X89839490Y-76821094D01*
X90557246Y-76799704D01*
X91121014Y-76566184D01*
X91240480Y-76281686D01*
X90144600Y-75185805D01*
X89048720Y-76281686D01*
X86421771Y-76281686D01*
X86673912Y-76029985D01*
X86949286Y-75366812D01*
X86949913Y-74648738D01*
X86840840Y-74384762D01*
X86954403Y-74271199D01*
X88492946Y-74271199D01*
X88329706Y-74701090D01*
X88329706Y-74701090D01*
G37*
X88329706Y-74701090D02*
X88351096Y-75418846D01*
X88584616Y-75982614D01*
X88869114Y-76102080D01*
X89964995Y-75006200D01*
X89950852Y-74992058D01*
X90130458Y-74812452D01*
X90144600Y-74826595D01*
X90158742Y-74812452D01*
X90338348Y-74992058D01*
X90324205Y-75006200D01*
X91420086Y-76102080D01*
X91704584Y-75982614D01*
X91760000Y-75836676D01*
X91760000Y-77113574D01*
X91513629Y-77359515D01*
X91325215Y-77813266D01*
X91324786Y-78304579D01*
X91512408Y-78758657D01*
X91859515Y-79106371D01*
X92020481Y-79173210D01*
X84191407Y-79173210D01*
X84288200Y-78835200D01*
X84288200Y-78435200D01*
X82880200Y-78435200D01*
X82880200Y-78455200D01*
X82626200Y-78455200D01*
X82626200Y-78435200D01*
X82606200Y-78435200D01*
X82606200Y-78181200D01*
X82626200Y-78181200D01*
X82626200Y-78161200D01*
X82880200Y-78161200D01*
X82880200Y-78181200D01*
X84288200Y-78181200D01*
X84288200Y-77781200D01*
X84122754Y-77203448D01*
X83910330Y-76936199D01*
X83974601Y-76936199D01*
X84265440Y-76878347D01*
X84512002Y-76713600D01*
X84523062Y-76702540D01*
X84783988Y-76810886D01*
X85502062Y-76811513D01*
X86165715Y-76537297D01*
X86421771Y-76281686D01*
X89048720Y-76281686D01*
X89168186Y-76566184D01*
X89839490Y-76821094D01*
X90557246Y-76799704D01*
X91121014Y-76566184D01*
X91240480Y-76281686D01*
X90144600Y-75185805D01*
X89048720Y-76281686D01*
X86421771Y-76281686D01*
X86673912Y-76029985D01*
X86949286Y-75366812D01*
X86949913Y-74648738D01*
X86840840Y-74384762D01*
X86954403Y-74271199D01*
X88492946Y-74271199D01*
X88329706Y-74701090D01*
M02*
